<svg xmlns="http://www.w3.org/2000/svg" xmlns:xlink="http://www.w3.org/1999/xlink" width="133.717" height="42.361" viewBox="0 0 133.717 42.361">
  <defs>
    <linearGradient id="linear-gradient" x1="1.625" y1="-4.143" x2="0.33" y2="-3.468" gradientUnits="objectBoundingBox">
      <stop offset="0" stop-color="#00a0ff"/>
      <stop offset="0.007" stop-color="#00a1ff"/>
      <stop offset="0.26" stop-color="#00beff"/>
      <stop offset="0.512" stop-color="#00d2ff"/>
      <stop offset="0.76" stop-color="#00dfff"/>
      <stop offset="1" stop-color="#00e3ff"/>
    </linearGradient>
    <linearGradient id="linear-gradient-2" x1="1.977" y1="-11.775" x2="-0.399" y2="-11.775" gradientUnits="objectBoundingBox">
      <stop offset="0" stop-color="#ffe000"/>
      <stop offset="0.409" stop-color="#ffbd00"/>
      <stop offset="0.775" stop-color="orange"/>
      <stop offset="1" stop-color="#ff9c00"/>
    </linearGradient>
    <linearGradient id="linear-gradient-3" x1="0.913" y1="-8.638" x2="-0.447" y2="-6.852" gradientUnits="objectBoundingBox">
      <stop offset="0" stop-color="#ff3a44"/>
      <stop offset="1" stop-color="#c31162"/>
    </linearGradient>
    <linearGradient id="linear-gradient-4" x1="-0.134" y1="-8.068" x2="0.473" y2="-7.27" gradientUnits="objectBoundingBox">
      <stop offset="0" stop-color="#32a071"/>
      <stop offset="0.068" stop-color="#2da771"/>
      <stop offset="0.476" stop-color="#15cf74"/>
      <stop offset="0.801" stop-color="#06e775"/>
      <stop offset="1" stop-color="#00f076"/>
    </linearGradient>
  </defs>
  <g id="Group_71431" data-name="Group 71431" transform="translate(0 0)">
    <rect id="Rectangle_43273" data-name="Rectangle 43273" width="133.717" height="42.361" rx="5" transform="translate(0 0)"/>
    <g id="Group_70948" data-name="Group 70948" transform="translate(21.348 11.385)">
      <g id="g18" transform="translate(24.466 0)">
        <path id="path20" d="M-68.975-14.523a2.09,2.09,0,0,1-.579,1.543,2.294,2.294,0,0,1-1.721.684,2.381,2.381,0,0,1-1.72-.692,2.321,2.321,0,0,1-.709-1.724,2.305,2.305,0,0,1,.709-1.719,2.366,2.366,0,0,1,1.72-.7,2.472,2.472,0,0,1,.961.2,1.894,1.894,0,0,1,.73.515l-.407.407a1.6,1.6,0,0,0-1.284-.545,1.8,1.8,0,0,0-1.279.511,1.766,1.766,0,0,0-.537,1.332,1.775,1.775,0,0,0,.537,1.336,1.817,1.817,0,0,0,1.279.511,1.789,1.789,0,0,0,1.306-.515,1.439,1.439,0,0,0,.392-.937h-1.7v-.557h2.265A1.572,1.572,0,0,1-68.975-14.523Z" transform="translate(73.703 17.127)" fill="#fff"/>
      </g>
      <g id="g22" transform="translate(30.058 0.106)">
        <path id="path24" d="M-63.784-16.423h-2.127v1.464h1.918v.557h-1.918v1.464h2.127v.568h-2.729v-4.62h2.729Z" transform="translate(66.513 16.991)" fill="#fff"/>
      </g>
      <g id="g26" transform="translate(33.415 0.106)">
        <path id="path28" d="M-60.289-12.371h-.6v-4.052H-62.2v-.568h3.213v.568h-1.306Z" transform="translate(62.196 16.991)" fill="#fff"/>
      </g>
      <g id="g30" transform="translate(38.954 0.106)">
        <path id="path32" d="M-55.075-12.371v-4.62h.6v4.62Z" transform="translate(55.075 16.991)" fill="#fff"/>
      </g>
      <g id="g34" transform="translate(40.313 0.106)">
        <path id="path36" d="M-51.42-12.371h-.6v-4.052h-1.31v-.568h3.217v.568h-1.31Z" transform="translate(53.327 16.991)" fill="#fff"/>
      </g>
      <g id="g38" transform="translate(45.494 0)">
        <path id="path40" d="M-42.547-13a2.311,2.311,0,0,1-1.713.7,2.314,2.314,0,0,1-1.717-.7,2.348,2.348,0,0,1-.689-1.716,2.346,2.346,0,0,1,.689-1.715,2.312,2.312,0,0,1,1.717-.7,2.3,2.3,0,0,1,1.709.7,2.339,2.339,0,0,1,.693,1.712A2.348,2.348,0,0,1-42.547-13Zm-2.985-.387a1.733,1.733,0,0,0,1.272.519,1.723,1.723,0,0,0,1.268-.519,1.8,1.8,0,0,0,.521-1.328,1.8,1.8,0,0,0-.521-1.328,1.723,1.723,0,0,0-1.268-.519,1.733,1.733,0,0,0-1.272.519,1.805,1.805,0,0,0-.521,1.328A1.805,1.805,0,0,0-45.532-13.383Z" transform="translate(46.666 17.127)" fill="#fff"/>
      </g>
      <g id="g42" transform="translate(51.148 0.106)">
        <path id="path44" d="M-39.4-12.371v-4.62h.73l2.273,3.593h.026l-.026-.888v-2.705h.6v4.62h-.628l-2.379-3.77h-.026l.026.891v2.879Z" transform="translate(39.397 16.991)" fill="#fff"/>
      </g>
      <path id="path46" d="M-52.893-3.413A3.25,3.25,0,0,0-56.219-.136a3.258,3.258,0,0,0,3.327,3.277A3.259,3.259,0,0,0-49.561-.136,3.251,3.251,0,0,0-52.893-3.413Zm0,5.264A1.9,1.9,0,0,1-54.762-.136a1.9,1.9,0,0,1,1.869-1.987A1.9,1.9,0,0,1-51.019-.136,1.908,1.908,0,0,1-52.893,1.851Zm-7.259-5.264A3.248,3.248,0,0,0-63.479-.136a3.257,3.257,0,0,0,3.327,3.277A3.257,3.257,0,0,0-56.824-.136,3.249,3.249,0,0,0-60.151-3.413Zm0,5.264A1.907,1.907,0,0,1-62.024-.136a1.9,1.9,0,0,1,1.873-1.987A1.9,1.9,0,0,1-58.282-.136,1.9,1.9,0,0,1-60.151,1.851Zm-8.639-4.26v1.393h3.365A2.876,2.876,0,0,1-66.19.733a3.478,3.478,0,0,1-2.6,1.017,3.673,3.673,0,0,1-3.692-3.7,3.672,3.672,0,0,1,3.692-3.7,3.594,3.594,0,0,1,2.536.992l.993-.982a4.943,4.943,0,0,0-3.53-1.4,5.192,5.192,0,0,0-5.226,5.091A5.192,5.192,0,0,0-68.79,3.141,4.735,4.735,0,0,0-65.2,1.711a4.558,4.558,0,0,0,1.219-3.25,4.592,4.592,0,0,0-.076-.87Zm35.323,1.08a3.071,3.071,0,0,0-2.84-2.084A3.131,3.131,0,0,0-39.432-.136a3.225,3.225,0,0,0,3.289,3.277,3.3,3.3,0,0,0,2.763-1.452l-1.13-.745a1.9,1.9,0,0,1-1.633.907A1.688,1.688,0,0,1-37.749.858l4.435-1.814ZM-37.989-.238a1.808,1.808,0,0,1,1.732-1.911,1.291,1.291,0,0,1,1.234.7Zm-3.6,3.18h1.458V-6.69h-1.458Zm-2.388-5.626h-.049a2.312,2.312,0,0,0-1.743-.73,3.277,3.277,0,0,0-3.18,3.288,3.264,3.264,0,0,0,3.18,3.266A2.275,2.275,0,0,0-44.03,2.4h.049v.47a1.688,1.688,0,0,1-1.77,1.927,1.838,1.838,0,0,1-1.671-1.171l-1.269.523a3.163,3.163,0,0,0,2.939,1.937c1.71,0,3.152-.994,3.152-3.412V-3.214h-1.382Zm-1.668,4.534A1.89,1.89,0,0,1-47.494-.125a1.9,1.9,0,0,1,1.846-2,1.856,1.856,0,0,1,1.771,2A1.842,1.842,0,0,1-45.648,1.851ZM-26.641-6.69h-3.487V2.942h1.454V-.708h2.032a3.073,3.073,0,0,0,3.2-2.991A3.076,3.076,0,0,0-26.641-6.69Zm.038,4.643h-2.07v-3.3h2.07A1.681,1.681,0,0,1-24.9-3.7,1.691,1.691,0,0,1-26.6-2.047Zm8.988-1.384a2.732,2.732,0,0,0-2.592,1.475l1.29.534a1.382,1.382,0,0,1,1.328-.708A1.4,1.4,0,0,1-16.057-.892v.1a3.231,3.231,0,0,0-1.52-.373c-1.389,0-2.805.756-2.805,2.167a2.24,2.24,0,0,0,2.418,2.122,2.064,2.064,0,0,0,1.857-.943h.05v.744h1.4v-3.7A2.662,2.662,0,0,0-17.615-3.432Zm-.175,5.279c-.476,0-1.139-.233-1.139-.816C-18.929.285-18.1,0-17.387,0a2.638,2.638,0,0,1,1.329.324A1.759,1.759,0,0,1-17.79,1.847Zm8.254-5.068L-11.208.955h-.05l-1.728-4.176h-1.568l2.6,5.836-1.481,3.246h1.519l4-9.082ZM-22.643,2.942h1.458V-6.69h-1.458Z" transform="translate(98.238 14.885)" fill="#fff"/>
      <g id="g48" transform="translate(0 0.464)">
        <path id="path64" d="M-104.8-16.475a1.523,1.523,0,0,0-.361,1.083V1.649a1.525,1.525,0,0,0,.361,1.083l.057.052,9.661-9.546v-.225l-9.661-9.546Z" transform="translate(105.159 16.531)" fill="url(#linear-gradient)"/>
      </g>
      <g id="g66" transform="translate(10.079 6.826)">
        <path id="path78" d="M-88.983-1.759-92.2-4.943v-.225l3.221-3.183.072.041,3.814,2.145c1.089.608,1.089,1.61,0,2.223L-88.907-1.8Z" transform="translate(92.2 8.351)" fill="url(#linear-gradient-2)"/>
      </g>
      <g id="g80" transform="translate(0.361 10.121)">
        <path id="path88" d="M-91.684-.859l-3.293-3.255-9.718,9.606a1.281,1.281,0,0,0,1.622.045l11.39-6.4" transform="translate(104.695 4.114)" fill="url(#linear-gradient-3)"/>
      </g>
      <g id="g90" transform="translate(0.361 0.214)">
        <path id="path104" d="M-91.684-10.2l-11.39-6.4a1.286,1.286,0,0,0-1.622.049l9.718,9.6Z" transform="translate(104.695 16.852)" fill="url(#linear-gradient-4)"/>
      </g>
    </g>
  </g>
</svg>
