<svg id="Group_71432" data-name="Group 71432" xmlns="http://www.w3.org/2000/svg" width="133.717" height="42.361" viewBox="0 0 133.717 42.361">
  <rect id="Rectangle_43205" data-name="Rectangle 43205" width="133.717" height="42.361" rx="5" transform="translate(0 0)"/>
  <g id="Group_70955" data-name="Group 70955" transform="translate(24.194 9.962)">
    <g id="Group_70951" data-name="Group 70951" transform="translate(0 0)">
      <g id="Group_70950" data-name="Group 70950">
        <path id="Path_141391" data-name="Path 141391" d="M-125.6,5.682A4.509,4.509,0,0,1-123.456,1.9a4.618,4.618,0,0,0-3.637-1.966c-1.53-.161-3.014.915-3.793.915-.795,0-1.995-.9-3.288-.873A4.842,4.842,0,0,0-138.25,2.46c-1.762,3.051-.448,7.535,1.241,10,.845,1.208,1.832,2.557,3.124,2.509,1.264-.052,1.736-.806,3.261-.806s1.954.806,3.272.775c1.356-.022,2.21-1.213,3.026-2.432a9.981,9.981,0,0,0,1.384-2.818A4.358,4.358,0,0,1-125.6,5.682Z" transform="translate(139.087 4.87)" fill="#fff"/>
        <path id="Path_141392" data-name="Path 141392" d="M-125.8-3.058a4.438,4.438,0,0,0,1.016-3.18,4.521,4.521,0,0,0-2.923,1.512,4.223,4.223,0,0,0-1.042,3.063A3.734,3.734,0,0,0-125.8-3.058Z" transform="translate(136.795 6.238)" fill="#fff"/>
      </g>
    </g>
    <g id="Group_70952" data-name="Group 70952" transform="translate(23.036 9.165)">
      <path id="Path_141393" data-name="Path 141393" d="M-100.731,16.092H-102.5l-.968-3.04h-3.363l-.922,3.04h-1.72l3.332-10.351h2.058Zm-3.026-4.316-.875-2.7q-.139-.414-.522-1.95h-.031q-.153.66-.492,1.95l-.859,2.7Z" transform="translate(109.469 -5.589)" fill="#fff"/>
      <path id="Path_141394" data-name="Path 141394" d="M-89.271,13.049A4.241,4.241,0,0,1-90.3,16.058a3.009,3.009,0,0,1-2.288.983,2.288,2.288,0,0,1-2.119-1.059h-.031v3.932H-96.4V11.866q0-1.2-.061-2.457H-95l.093,1.183h.031a2.762,2.762,0,0,1,2.518-1.336,2.768,2.768,0,0,1,2.2,1.044A4.112,4.112,0,0,1-89.271,13.049Zm-1.689.061a3.073,3.073,0,0,0-.492-1.8,1.7,1.7,0,0,0-1.444-.737,1.724,1.724,0,0,0-1.113.407,1.887,1.887,0,0,0-.653,1.068,2.171,2.171,0,0,0-.077.506V13.8a1.994,1.994,0,0,0,.5,1.375,1.655,1.655,0,0,0,1.3.561,1.7,1.7,0,0,0,1.458-.722A3.177,3.177,0,0,0-90.96,13.11Z" transform="translate(106.578 -6.37)" fill="#fff"/>
      <path id="Path_141395" data-name="Path 141395" d="M-78.233,13.049a4.238,4.238,0,0,1-1.03,3.009,3.006,3.006,0,0,1-2.287.983,2.286,2.286,0,0,1-2.119-1.059H-83.7v3.932h-1.658V11.866q0-1.2-.061-2.457h1.458l.093,1.183h.031A2.761,2.761,0,0,1-81.32,9.256a2.773,2.773,0,0,1,2.2,1.044A4.123,4.123,0,0,1-78.233,13.049Zm-1.689.061a3.073,3.073,0,0,0-.492-1.8,1.7,1.7,0,0,0-1.443-.737,1.726,1.726,0,0,0-1.114.407,1.886,1.886,0,0,0-.652,1.068,2.213,2.213,0,0,0-.077.506V13.8a2,2,0,0,0,.5,1.375,1.659,1.659,0,0,0,1.3.561,1.7,1.7,0,0,0,1.458-.722A3.177,3.177,0,0,0-79.923,13.11Z" transform="translate(104.125 -6.37)" fill="#fff"/>
      <path id="Path_141396" data-name="Path 141396" d="M-65.675,13.146a2.759,2.759,0,0,1-.919,2.15,4.074,4.074,0,0,1-2.819.906,4.935,4.935,0,0,1-2.683-.645l.384-1.382a4.546,4.546,0,0,0,2.4.661,2.266,2.266,0,0,0,1.46-.423,1.382,1.382,0,0,0,.521-1.131,1.442,1.442,0,0,0-.43-1.061,4,4,0,0,0-1.428-.8q-2.718-1.014-2.718-2.968a2.626,2.626,0,0,1,.953-2.091,3.756,3.756,0,0,1,2.534-.815,5.024,5.024,0,0,1,2.349.492l-.415,1.352a4.075,4.075,0,0,0-1.981-.476,2.005,2.005,0,0,0-1.366.43,1.229,1.229,0,0,0-.415.937,1.265,1.265,0,0,0,.475,1.013,5.371,5.371,0,0,0,1.506.8A5.109,5.109,0,0,1-66.3,11.351,2.629,2.629,0,0,1-65.675,13.146Z" transform="translate(101.164 -5.546)" fill="#fff"/>
      <path id="Path_141397" data-name="Path 141397" d="M-58.09,10.166h-1.828V13.79q0,1.382.968,1.382a2.949,2.949,0,0,0,.737-.077l.046,1.259a3.757,3.757,0,0,1-1.29.184,1.99,1.99,0,0,1-1.536-.6,2.942,2.942,0,0,1-.553-2.012V10.165h-1.089V8.92h1.089V7.554l1.629-.492V8.92h1.828Z" transform="translate(99.061 -5.883)" fill="#fff"/>
      <path id="Path_141398" data-name="Path 141398" d="M-48.277,13.08a4.094,4.094,0,0,1-.983,2.826,3.51,3.51,0,0,1-2.735,1.136,3.337,3.337,0,0,1-2.617-1.09,3.969,3.969,0,0,1-.975-2.749,4.054,4.054,0,0,1,1.006-2.84,3.48,3.48,0,0,1,2.71-1.106,3.408,3.408,0,0,1,2.641,1.09A3.923,3.923,0,0,1-48.277,13.08Zm-1.72.054a3.357,3.357,0,0,0-.445-1.771,1.638,1.638,0,0,0-1.489-.893,1.663,1.663,0,0,0-1.521.893,3.422,3.422,0,0,0-.445,1.8,3.352,3.352,0,0,0,.445,1.77,1.672,1.672,0,0,0,1.506.893,1.659,1.659,0,0,0,1.489-.908A3.369,3.369,0,0,0-50,13.133Z" transform="translate(97.495 -6.371)" fill="#fff"/>
      <path id="Path_141399" data-name="Path 141399" d="M-40.4,10.868a2.879,2.879,0,0,0-.523-.046,1.567,1.567,0,0,0-1.352.661,2.485,2.485,0,0,0-.415,1.474v3.916h-1.657l.016-5.113q0-1.29-.062-2.35h1.444l.061,1.428h.046a2.552,2.552,0,0,1,.829-1.182,2,2,0,0,1,1.2-.4,2.662,2.662,0,0,1,.415.03Z" transform="translate(95.007 -6.37)" fill="#fff"/>
      <path id="Path_141400" data-name="Path 141400" d="M-31.618,12.784a3.889,3.889,0,0,1-.061.752h-4.975a2.165,2.165,0,0,0,.722,1.69,2.464,2.464,0,0,0,1.627.522,5.5,5.5,0,0,0,2.013-.353l.26,1.151a6.223,6.223,0,0,1-2.5.461,3.625,3.625,0,0,1-2.727-1.021,3.772,3.772,0,0,1-.99-2.741,4.276,4.276,0,0,1,.922-2.81,3.178,3.178,0,0,1,2.609-1.2,2.781,2.781,0,0,1,2.443,1.2A4.037,4.037,0,0,1-31.618,12.784Zm-1.581-.43a2.253,2.253,0,0,0-.322-1.275,1.449,1.449,0,0,0-1.321-.691,1.573,1.573,0,0,0-1.32.676,2.475,2.475,0,0,0-.491,1.29H-33.2Z" transform="translate(93.642 -6.366)" fill="#fff"/>
    </g>
    <g id="Group_70954" data-name="Group 70954" transform="translate(24.021 0.264)">
      <g id="Group_70953" data-name="Group 70953">
        <path id="Path_141401" data-name="Path 141401" d="M-104.023-3.149a2.553,2.553,0,0,1-.823,2.067,3.273,3.273,0,0,1-2.165.641A10.036,10.036,0,0,1-108.2-.5v-5a8.8,8.8,0,0,1,1.4-.106,3.026,3.026,0,0,1,2.014.581A2.348,2.348,0,0,1-104.023-3.149Zm-.859.023a1.859,1.859,0,0,0-.471-1.366,1.858,1.858,0,0,0-1.377-.475,3.45,3.45,0,0,0-.656.053v3.8a4.3,4.3,0,0,0,.551.023,1.928,1.928,0,0,0,1.444-.52A2.084,2.084,0,0,0-104.883-3.126Z" transform="translate(108.203 5.835)" fill="#fff"/>
        <path id="Path_141402" data-name="Path 141402" d="M-98-1.954a2.011,2.011,0,0,1-.483,1.388,1.724,1.724,0,0,1-1.343.558,1.639,1.639,0,0,1-1.286-.536,1.952,1.952,0,0,1-.478-1.35,1.992,1.992,0,0,1,.494-1.4,1.713,1.713,0,0,1,1.332-.543,1.677,1.677,0,0,1,1.3.535A1.936,1.936,0,0,1-98-1.954Zm-.845.026a1.658,1.658,0,0,0-.219-.87.8.8,0,0,0-.731-.439.818.818,0,0,0-.747.439,1.68,1.68,0,0,0-.219.885,1.658,1.658,0,0,0,.219.87A.823.823,0,0,0-99.8-.6a.813.813,0,0,0,.731-.446A1.648,1.648,0,0,0-98.841-1.928Z" transform="translate(106.733 5.44)" fill="#fff"/>
        <path id="Path_141403" data-name="Path 141403" d="M-90.632-3.736-91.779-.07h-.747L-93-1.662A11.911,11.911,0,0,1-93.3-2.846h-.015a8.672,8.672,0,0,1-.295,1.185l-.5,1.592h-.755l-1.079-3.666h.838l.415,1.743q.15.618.249,1.177h.015q.091-.46.3-1.169l.52-1.75h.664l.5,1.713q.181.626.294,1.207h.023a11.533,11.533,0,0,1,.249-1.207l.445-1.713h.8Z" transform="translate(105.479 5.418)" fill="#fff"/>
        <path id="Path_141404" data-name="Path 141404" d="M-84.6-.092h-.815v-2.1q0-.971-.739-.971a.736.736,0,0,0-.589.267.947.947,0,0,0-.226.628V-.092h-.815V-2.71q0-.483-.03-1.049h.716l.038.573h.023a1.178,1.178,0,0,1,.422-.443,1.378,1.378,0,0,1,.739-.206,1.17,1.17,0,0,1,.853.332A1.614,1.614,0,0,1-84.6-2.288Z" transform="translate(103.672 5.44)" fill="#fff"/>
        <path id="Path_141405" data-name="Path 141405" d="M-81.024-.55h-.814V-5.9h.814Z" transform="translate(102.344 5.899)" fill="#fff"/>
        <path id="Path_141406" data-name="Path 141406" d="M-75.647-1.954A2.011,2.011,0,0,1-76.13-.566a1.725,1.725,0,0,1-1.343.558A1.636,1.636,0,0,1-78.76-.544a1.952,1.952,0,0,1-.478-1.35,1.991,1.991,0,0,1,.494-1.4,1.712,1.712,0,0,1,1.331-.543,1.678,1.678,0,0,1,1.3.535A1.936,1.936,0,0,1-75.647-1.954Zm-.846.026a1.658,1.658,0,0,0-.219-.87.8.8,0,0,0-.73-.439.816.816,0,0,0-.747.439,1.68,1.68,0,0,0-.219.885,1.658,1.658,0,0,0,.219.87.823.823,0,0,0,.74.439.812.812,0,0,0,.73-.446A1.641,1.641,0,0,0-76.493-1.928Z" transform="translate(101.766 5.44)" fill="#fff"/>
        <path id="Path_141407" data-name="Path 141407" d="M-70.409-.091h-.732L-71.2-.513h-.023A1.255,1.255,0,0,1-72.3-.008a1.105,1.105,0,0,1-.837-.332,1.041,1.041,0,0,1-.287-.747,1.139,1.139,0,0,1,.562-1.026,2.918,2.918,0,0,1,1.581-.347v-.068q0-.724-.761-.724a1.705,1.705,0,0,0-.956.271l-.166-.535A2.351,2.351,0,0,1-71.9-3.832q1.437,0,1.439,1.517v1.35A5.726,5.726,0,0,0-70.409-.091Zm-.846-1.26v-.565Q-72.6-1.94-72.6-1.177a.552.552,0,0,0,.156.43.57.57,0,0,0,.4.143.823.823,0,0,0,.5-.17.694.694,0,0,0,.282-.434A.691.691,0,0,0-71.255-1.351Z" transform="translate(100.473 5.44)" fill="#fff"/>
        <path id="Path_141408" data-name="Path 141408" d="M-64.594-.55h-.723l-.038-.589h-.023a1.219,1.219,0,0,1-1.178.672,1.38,1.38,0,0,1-1.1-.52,2.027,2.027,0,0,1-.437-1.35,2.126,2.126,0,0,1,.475-1.441,1.461,1.461,0,0,1,1.132-.513,1.1,1.1,0,0,1,1.033.5h.016V-5.9h.816v4.361Q-64.623-1-64.594-.55ZM-65.439-2.1v-.611a1.2,1.2,0,0,0-.023-.257.928.928,0,0,0-.295-.494.8.8,0,0,0-.545-.2.836.836,0,0,0-.717.362,1.553,1.553,0,0,0-.261.928,1.448,1.448,0,0,0,.25.883.839.839,0,0,0,.712.362.785.785,0,0,0,.644-.3A1,1,0,0,0-65.439-2.1Z" transform="translate(99.29 5.899)" fill="#fff"/>
        <path id="Path_141409" data-name="Path 141409" d="M-55.657-1.954A2.011,2.011,0,0,1-56.14-.566a1.723,1.723,0,0,1-1.343.558A1.641,1.641,0,0,1-58.77-.544a1.952,1.952,0,0,1-.478-1.35,1.992,1.992,0,0,1,.494-1.4,1.714,1.714,0,0,1,1.332-.543,1.675,1.675,0,0,1,1.3.535A1.936,1.936,0,0,1-55.657-1.954Zm-.845.026a1.658,1.658,0,0,0-.219-.87.806.806,0,0,0-.732-.439A.819.819,0,0,0-58.2-2.8a1.68,1.68,0,0,0-.219.885,1.658,1.658,0,0,0,.219.87.823.823,0,0,0,.74.439.814.814,0,0,0,.732-.446A1.655,1.655,0,0,0-56.5-1.928Z" transform="translate(97.324 5.44)" fill="#fff"/>
        <path id="Path_141410" data-name="Path 141410" d="M-49.914-.092h-.814v-2.1q0-.971-.74-.971a.733.733,0,0,0-.588.267.943.943,0,0,0-.226.628V-.092H-53.1V-2.71q0-.483-.029-1.049h.716l.038.573h.023a1.19,1.19,0,0,1,.422-.443,1.38,1.38,0,0,1,.74-.206,1.169,1.169,0,0,1,.852.332,1.611,1.611,0,0,1,.422,1.215Z" transform="translate(95.963 5.44)" fill="#fff"/>
        <path id="Path_141411" data-name="Path 141411" d="M-42.581-3.386h-.9v1.781c0,.453.159.679.475.679a1.435,1.435,0,0,0,.363-.038l.021.618a1.831,1.831,0,0,1-.633.091.974.974,0,0,1-.754-.294,1.438,1.438,0,0,1-.272-.989V-3.386h-.536V-4h.536v-.672l.8-.241V-4h.9v.611Z" transform="translate(94.116 5.679)" fill="#fff"/>
        <path id="Path_141412" data-name="Path 141412" d="M-37.3-.55h-.816V-2.635q0-.986-.738-.986a.778.778,0,0,0-.778.572,1.024,1.024,0,0,0-.038.293v2.2h-.814V-5.9h.814v2.21h.016a1.232,1.232,0,0,1,1.1-.6,1.136,1.136,0,0,1,.838.332A1.67,1.67,0,0,1-37.3-2.73Z" transform="translate(93.155 5.899)" fill="#fff"/>
        <path id="Path_141413" data-name="Path 141413" d="M-31.6-2.1a1.969,1.969,0,0,1-.03.369h-2.445a1.069,1.069,0,0,0,.354.83,1.214,1.214,0,0,0,.8.257,2.7,2.7,0,0,0,.989-.173l.128.566a3.07,3.07,0,0,1-1.23.226,1.777,1.777,0,0,1-1.339-.5,1.848,1.848,0,0,1-.486-1.346,2.1,2.1,0,0,1,.453-1.381,1.559,1.559,0,0,1,1.282-.588,1.364,1.364,0,0,1,1.2.588A1.957,1.957,0,0,1-31.6-2.1Zm-.778-.211a1.1,1.1,0,0,0-.158-.626.712.712,0,0,0-.649-.34.774.774,0,0,0-.649.332,1.234,1.234,0,0,0-.242.634Z" transform="translate(91.905 5.442)" fill="#fff"/>
      </g>
    </g>
  </g>
</svg>
