<svg xmlns="http://www.w3.org/2000/svg" xmlns:xlink="http://www.w3.org/1999/xlink" width="95.771" height="30.34" viewBox="0 0 95.771 30.34">
  <defs>
    <linearGradient id="linear-gradient" x1="1.625" y1="-4.143" x2="0.33" y2="-3.468" gradientUnits="objectBoundingBox">
      <stop offset="0" stop-color="#00a0ff"/>
      <stop offset="0.007" stop-color="#00a1ff"/>
      <stop offset="0.26" stop-color="#00beff"/>
      <stop offset="0.512" stop-color="#00d2ff"/>
      <stop offset="0.76" stop-color="#00dfff"/>
      <stop offset="1" stop-color="#00e3ff"/>
    </linearGradient>
    <linearGradient id="linear-gradient-2" x1="1.977" y1="-11.775" x2="-0.399" y2="-11.775" gradientUnits="objectBoundingBox">
      <stop offset="0" stop-color="#ffe000"/>
      <stop offset="0.409" stop-color="#ffbd00"/>
      <stop offset="0.775" stop-color="orange"/>
      <stop offset="1" stop-color="#ff9c00"/>
    </linearGradient>
    <linearGradient id="linear-gradient-3" x1="0.913" y1="-8.638" x2="-0.447" y2="-6.852" gradientUnits="objectBoundingBox">
      <stop offset="0" stop-color="#ff3a44"/>
      <stop offset="1" stop-color="#c31162"/>
    </linearGradient>
    <linearGradient id="linear-gradient-4" x1="-0.134" y1="-8.068" x2="0.473" y2="-7.27" gradientUnits="objectBoundingBox">
      <stop offset="0" stop-color="#32a071"/>
      <stop offset="0.068" stop-color="#2da771"/>
      <stop offset="0.476" stop-color="#15cf74"/>
      <stop offset="0.801" stop-color="#06e775"/>
      <stop offset="1" stop-color="#00f076"/>
    </linearGradient>
  </defs>
  <g id="Group_79247" data-name="Group 79247" transform="translate(0)">
    <g id="Group_79246" data-name="Group 79246" transform="translate(0)">
      <rect id="Rectangle_41266" data-name="Rectangle 41266" width="95.771" height="30.34" rx="9" fill="#532280"/>
    </g>
    <g id="Group_79245" data-name="Group 79245" transform="translate(14.338 7.82)">
      <g id="g18" transform="translate(18.071 0)">
        <path id="path20" d="M-70.211-15.2a1.544,1.544,0,0,1-.427,1.14,1.694,1.694,0,0,1-1.271.506,1.758,1.758,0,0,1-1.27-.511,1.715,1.715,0,0,1-.523-1.273,1.7,1.7,0,0,1,.523-1.27,1.748,1.748,0,0,1,1.27-.515,1.826,1.826,0,0,1,.709.145,1.4,1.4,0,0,1,.539.38l-.3.3a1.18,1.18,0,0,0-.948-.4,1.33,1.33,0,0,0-.944.377,1.3,1.3,0,0,0-.4.984,1.311,1.311,0,0,0,.4.987,1.342,1.342,0,0,0,.944.377,1.321,1.321,0,0,0,.965-.38,1.063,1.063,0,0,0,.29-.692h-1.254v-.411h1.673A1.161,1.161,0,0,1-70.211-15.2Z" transform="translate(73.703 17.127)" fill="#fff" stroke="#fff" stroke-miterlimit="10" stroke-width="0.16"/>
      </g>
      <g id="g22" transform="translate(22.202 0.078)">
        <path id="path24" d="M-64.5-16.572h-1.571v1.081h1.417v.411h-1.417V-14H-64.5v.419h-2.016v-3.412H-64.5Z" transform="translate(66.513 16.991)" fill="#fff" stroke="#fff" stroke-miterlimit="10" stroke-width="0.16"/>
      </g>
      <g id="g26" transform="translate(24.682 0.078)">
        <path id="path28" d="M-60.787-13.579h-.445v-2.993H-62.2v-.419h2.373v.419h-.965Z" transform="translate(62.196 16.991)" fill="#fff" stroke="#fff" stroke-miterlimit="10" stroke-width="0.16"/>
      </g>
      <g id="g30" transform="translate(28.772 0.078)">
        <path id="path32" d="M-55.075-13.579v-3.412h.444v3.412Z" transform="translate(55.075 16.991)" fill="#fff" stroke="#fff" stroke-miterlimit="10" stroke-width="0.16"/>
      </g>
      <g id="g34" transform="translate(29.777 0.078)">
        <path id="path36" d="M-51.918-13.579h-.441v-2.993h-.967v-.419h2.376v.419h-.967Z" transform="translate(53.327 16.991)" fill="#fff" stroke="#fff" stroke-miterlimit="10" stroke-width="0.16"/>
      </g>
      <g id="g38" transform="translate(33.603 0)">
        <path id="path40" d="M-43.624-14.075a1.707,1.707,0,0,1-1.265.517,1.709,1.709,0,0,1-1.268-.517,1.734,1.734,0,0,1-.509-1.267,1.733,1.733,0,0,1,.509-1.267,1.708,1.708,0,0,1,1.268-.518,1.7,1.7,0,0,1,1.262.52,1.728,1.728,0,0,1,.512,1.264A1.734,1.734,0,0,1-43.624-14.075Zm-2.2-.286a1.28,1.28,0,0,0,.94.383,1.273,1.273,0,0,0,.936-.383,1.331,1.331,0,0,0,.385-.981,1.331,1.331,0,0,0-.385-.981,1.273,1.273,0,0,0-.936-.383,1.28,1.28,0,0,0-.94.383,1.333,1.333,0,0,0-.385.981A1.333,1.333,0,0,0-45.828-14.361Z" transform="translate(46.666 17.127)" fill="#fff" stroke="#fff" stroke-miterlimit="10" stroke-width="0.16"/>
      </g>
      <g id="g42" transform="translate(37.779 0.078)">
        <path id="path44" d="M-39.4-13.579v-3.412h.539l1.679,2.654h.02l-.02-.656v-2h.444v3.412H-37.2l-1.757-2.785h-.02l.02.658v2.126Z" transform="translate(39.397 16.991)" fill="#fff" stroke="#fff" stroke-miterlimit="10" stroke-width="0.16"/>
      </g>
      <path id="path46" d="M-58.414-4.361A2.4,2.4,0,0,0-60.871-1.94,2.407,2.407,0,0,0-58.414.48a2.407,2.407,0,0,0,2.461-2.42A2.4,2.4,0,0,0-58.414-4.361Zm0,3.888a1.407,1.407,0,0,1-1.38-1.467,1.4,1.4,0,0,1,1.38-1.468A1.4,1.4,0,0,1-57.03-1.94,1.409,1.409,0,0,1-58.414-.473Zm-5.362-3.888A2.4,2.4,0,0,0-66.233-1.94,2.4,2.4,0,0,0-63.775.48a2.406,2.406,0,0,0,2.458-2.42A2.4,2.4,0,0,0-63.775-4.361Zm0,3.888A1.408,1.408,0,0,1-65.159-1.94a1.4,1.4,0,0,1,1.383-1.468,1.4,1.4,0,0,1,1.38,1.468A1.407,1.407,0,0,1-63.775-.473ZM-70.156-3.62v1.029h2.486A2.125,2.125,0,0,1-68.236-1.3a2.569,2.569,0,0,1-1.921.751A2.713,2.713,0,0,1-72.883-3.28a2.713,2.713,0,0,1,2.727-2.732,2.655,2.655,0,0,1,1.873.733L-67.549-6A3.651,3.651,0,0,0-70.156-7.04a3.835,3.835,0,0,0-3.86,3.76A3.835,3.835,0,0,0-70.156.48,3.5,3.5,0,0,0-67.5-.576a3.367,3.367,0,0,0,.9-2.4,3.392,3.392,0,0,0-.056-.643Zm26.091.8a2.268,2.268,0,0,0-2.1-1.54A2.312,2.312,0,0,0-48.471-1.94,2.382,2.382,0,0,0-46.041.48,2.435,2.435,0,0,0-44-.593l-.835-.55a1.4,1.4,0,0,1-1.206.67,1.247,1.247,0,0,1-1.186-.734l3.276-1.34Zm-3.34.806a1.336,1.336,0,0,1,1.279-1.412.953.953,0,0,1,.911.514ZM-50.067.333h1.077V-6.781h-1.077Zm-1.764-4.155h-.036a1.707,1.707,0,0,0-1.287-.539A2.42,2.42,0,0,0-55.5-1.932,2.411,2.411,0,0,0-53.155.48a1.68,1.68,0,0,0,1.287-.55h.036V.277A1.247,1.247,0,0,1-53.139,1.7,1.357,1.357,0,0,1-54.373.836l-.937.387a2.336,2.336,0,0,0,2.171,1.431A2.224,2.224,0,0,0-50.81.133V-4.214h-1.021ZM-53.063-.473a1.4,1.4,0,0,1-1.363-1.459,1.406,1.406,0,0,1,1.363-1.476,1.371,1.371,0,0,1,1.308,1.476A1.36,1.36,0,0,1-53.063-.473Zm14.039-6.308H-41.6V.333h1.074v-2.7h1.5a2.27,2.27,0,0,0,2.363-2.209A2.272,2.272,0,0,0-39.024-6.781ZM-39-3.352h-1.529v-2.44H-39a1.242,1.242,0,0,1,1.26,1.22A1.249,1.249,0,0,1-39-3.352Zm6.639-1.023a2.018,2.018,0,0,0-1.914,1.089l.952.395a1.021,1.021,0,0,1,.981-.523,1.032,1.032,0,0,1,1.131.915v.075A2.386,2.386,0,0,0-32.329-2.7c-1.026,0-2.072.558-2.072,1.6A1.655,1.655,0,0,0-32.615.469a1.525,1.525,0,0,0,1.372-.7h.037v.55h1.037V-2.408A1.966,1.966,0,0,0-32.357-4.375Zm-.129,3.9c-.352,0-.841-.172-.841-.6,0-.551.611-.762,1.139-.762a1.948,1.948,0,0,1,.982.239A1.3,1.3,0,0,1-32.486-.476Zm6.1-3.743-1.235,3.084h-.037l-1.277-3.084H-30.1l1.918,4.31-1.094,2.4h1.122L-25.2-4.219ZM-36.071.333h1.077V-6.781h-1.077Z" transform="translate(91.907 12.835)" fill="#fff"/>
      <g id="g48" transform="translate(0 0.342)">
        <path id="path64" d="M-104.892-16.49a1.125,1.125,0,0,0-.267.8V-3.1a1.126,1.126,0,0,0,.267.8l.042.038,7.136-7.051V-9.48l-7.136-7.051Z" transform="translate(105.159 16.531)" fill="url(#linear-gradient)"/>
      </g>
      <g id="g66" transform="translate(7.445 5.042)">
        <path id="path78" d="M-89.824-3.482-92.2-5.834V-6l2.379-2.351.053.03,2.817,1.584c.8.449.8,1.189,0,1.642l-2.817,1.582Z" transform="translate(92.2 8.351)" fill="url(#linear-gradient-2)"/>
      </g>
      <g id="g80" transform="translate(0.267 7.476)">
        <path id="path88" d="M-95.084-1.71l-2.432-2.4-7.178,7.1a.946.946,0,0,0,1.2.033l8.413-4.725" transform="translate(104.695 4.114)" fill="url(#linear-gradient-3)"/>
      </g>
      <g id="g90" transform="translate(0.267 0.158)">
        <path id="path104" d="M-95.084-11.938l-8.413-4.725a.95.95,0,0,0-1.2.036l7.178,7.092Z" transform="translate(104.695 16.852)" fill="url(#linear-gradient-4)"/>
      </g>
    </g>
  </g>
</svg>
