<svg id="Group_79248" data-name="Group 79248" xmlns="http://www.w3.org/2000/svg" width="95.771" height="30.34" viewBox="0 0 95.771 30.34">
  <g id="Group_68571" data-name="Group 68571" transform="translate(0)">
    <rect id="Rectangle_41266" data-name="Rectangle 41266" width="95.771" height="30.34" rx="9" fill="#532280"/>
  </g>
  <g id="Group_79244" data-name="Group 79244" transform="translate(16.293 7.169)">
    <g id="Group_1110" data-name="Group 1110" transform="translate(0 0)">
      <g id="Group_1109" data-name="Group 1109">
        <path id="Path_3477" data-name="Path 3477" d="M-129.128,4.175a3.33,3.33,0,0,1,1.586-2.794,3.411,3.411,0,0,0-2.686-1.452c-1.13-.119-2.226.676-2.8.676s-1.474-.665-2.429-.645a3.576,3.576,0,0,0-3.01,1.836c-1.3,2.254-.331,5.566.916,7.387.624.892,1.353,1.888,2.307,1.853.934-.038,1.282-.6,2.409-.6s1.444.6,2.417.573c1-.016,1.633-.9,2.235-1.8a7.372,7.372,0,0,0,1.022-2.081A3.219,3.219,0,0,1-129.128,4.175Z" transform="translate(139.087 3.619)" fill="#fff"/>
        <path id="Path_3478" data-name="Path 3478" d="M-126.577-3.889a3.278,3.278,0,0,0,.75-2.349,3.339,3.339,0,0,0-2.159,1.117,3.119,3.119,0,0,0-.77,2.262A2.758,2.758,0,0,0-126.577-3.889Z" transform="translate(134.698 6.238)" fill="#fff"/>
      </g>
    </g>
    <g id="Group_1111" data-name="Group 1111" transform="translate(17.015 6.77)">
      <path id="Path_3479" data-name="Path 3479" d="M-103.015,13.386h-1.3l-.715-2.246h-2.484l-.681,2.246h-1.27l2.461-7.645h1.52Zm-2.235-3.188-.646-2q-.1-.306-.385-1.44h-.023q-.113.488-.363,1.44l-.635,2Z" transform="translate(109.469 -5.629)" fill="#fff"/>
      <path id="Path_3480" data-name="Path 3480" d="M-91.149,12.058a3.133,3.133,0,0,1-.76,2.223,2.222,2.222,0,0,1-1.69.726,1.69,1.69,0,0,1-1.565-.782h-.023v2.9h-1.225V11.184q0-.884-.045-1.815h1.077l.068.874h.023a2.04,2.04,0,0,1,1.86-.987,2.045,2.045,0,0,1,1.628.771A3.037,3.037,0,0,1-91.149,12.058ZM-92.4,12.1a2.27,2.27,0,0,0-.363-1.327,1.254,1.254,0,0,0-1.066-.545,1.274,1.274,0,0,0-.822.3,1.394,1.394,0,0,0-.482.789,1.6,1.6,0,0,0-.057.373v.919a1.473,1.473,0,0,0,.369,1.016,1.222,1.222,0,0,0,.958.414,1.254,1.254,0,0,0,1.077-.533A2.346,2.346,0,0,0-92.4,12.1Z" transform="translate(103.933 -7.125)" fill="#fff"/>
      <path id="Path_3481" data-name="Path 3481" d="M-80.112,12.058a3.13,3.13,0,0,1-.761,2.223,2.22,2.22,0,0,1-1.69.726,1.688,1.688,0,0,1-1.565-.782h-.023v2.9h-1.225V11.184q0-.884-.045-1.815h1.077l.068.874h.023a2.039,2.039,0,0,1,1.86-.987,2.048,2.048,0,0,1,1.628.771A3.046,3.046,0,0,1-80.112,12.058Zm-1.248.045a2.27,2.27,0,0,0-.364-1.327,1.252,1.252,0,0,0-1.066-.545,1.275,1.275,0,0,0-.823.3,1.393,1.393,0,0,0-.481.789,1.635,1.635,0,0,0-.057.373v.919a1.477,1.477,0,0,0,.368,1.016,1.225,1.225,0,0,0,.959.414,1.254,1.254,0,0,0,1.077-.533A2.346,2.346,0,0,0-81.36,12.1Z" transform="translate(99.236 -7.125)" fill="#fff"/>
      <path id="Path_3482" data-name="Path 3482" d="M-67.353,11.159a2.038,2.038,0,0,1-.679,1.588,3.01,3.01,0,0,1-2.083.669A3.645,3.645,0,0,1-72.1,12.94l.284-1.021a3.357,3.357,0,0,0,1.771.488,1.674,1.674,0,0,0,1.078-.313,1.02,1.02,0,0,0,.385-.835,1.065,1.065,0,0,0-.318-.784,2.953,2.953,0,0,0-1.055-.591q-2.008-.749-2.007-2.192a1.94,1.94,0,0,1,.7-1.545,2.774,2.774,0,0,1,1.872-.6,3.711,3.711,0,0,1,1.735.363l-.306,1a3.01,3.01,0,0,0-1.463-.352,1.481,1.481,0,0,0-1.009.318.908.908,0,0,0-.306.692.934.934,0,0,0,.351.749,3.967,3.967,0,0,0,1.112.59,3.773,3.773,0,0,1,1.452.93A1.942,1.942,0,0,1-67.353,11.159Z" transform="translate(93.566 -5.546)" fill="#fff"/>
      <path id="Path_3483" data-name="Path 3483" d="M-59.278,9.355h-1.35v2.677q0,1.021.715,1.021A2.178,2.178,0,0,0-59.369,13l.034.93a2.775,2.775,0,0,1-.952.136,1.47,1.47,0,0,1-1.135-.442,2.173,2.173,0,0,1-.408-1.486V9.354h-.8V8.434h.8V7.425l1.2-.363V8.434h1.35Z" transform="translate(89.54 -6.191)" fill="#fff"/>
      <path id="Path_3484" data-name="Path 3484" d="M-50.187,12.081a3.024,3.024,0,0,1-.726,2.087,2.593,2.593,0,0,1-2.02.839,2.465,2.465,0,0,1-1.933-.8,2.931,2.931,0,0,1-.72-2.03,2.994,2.994,0,0,1,.743-2.1,2.571,2.571,0,0,1,2-.817,2.518,2.518,0,0,1,1.951.805A2.9,2.9,0,0,1-50.187,12.081Zm-1.271.04a2.48,2.48,0,0,0-.329-1.308,1.21,1.21,0,0,0-1.1-.66,1.228,1.228,0,0,0-1.123.66,2.527,2.527,0,0,0-.329,1.331,2.476,2.476,0,0,0,.329,1.308,1.235,1.235,0,0,0,1.112.66,1.226,1.226,0,0,0,1.1-.671A2.489,2.489,0,0,0-51.458,12.12Z" transform="translate(86.541 -7.125)" fill="#fff"/>
      <path id="Path_3485" data-name="Path 3485" d="M-41.443,10.446a2.127,2.127,0,0,0-.386-.034,1.157,1.157,0,0,0-1,.488,1.835,1.835,0,0,0-.306,1.089v2.893h-1.224l.011-3.777q0-.953-.046-1.736h1.067l.045,1.055h.034a1.885,1.885,0,0,1,.612-.873,1.481,1.481,0,0,1,.885-.3,1.967,1.967,0,0,1,.306.022Z" transform="translate(81.778 -7.125)" fill="#fff"/>
      <path id="Path_3486" data-name="Path 3486" d="M-33.352,11.857a2.872,2.872,0,0,1-.045.556h-3.674a1.6,1.6,0,0,0,.533,1.248,1.82,1.82,0,0,0,1.2.385,4.064,4.064,0,0,0,1.487-.261l.192.85a4.6,4.6,0,0,1-1.848.341,2.677,2.677,0,0,1-2.014-.754,2.786,2.786,0,0,1-.731-2.024,3.158,3.158,0,0,1,.681-2.076,2.347,2.347,0,0,1,1.927-.884,2.054,2.054,0,0,1,1.8.884A2.982,2.982,0,0,1-33.352,11.857Zm-1.168-.318a1.664,1.664,0,0,0-.238-.942,1.07,1.07,0,0,0-.976-.511,1.162,1.162,0,0,0-.975.5,1.828,1.828,0,0,0-.362.952h2.551Z" transform="translate(79.165 -7.117)" fill="#fff"/>
    </g>
    <g id="Group_1113" data-name="Group 1113" transform="translate(17.742 0.195)">
      <g id="Group_1112" data-name="Group 1112">
        <path id="Path_3487" data-name="Path 3487" d="M-105.116-3.792a1.886,1.886,0,0,1-.608,1.527,2.418,2.418,0,0,1-1.6.473,7.413,7.413,0,0,1-.881-.045V-5.531a6.5,6.5,0,0,1,1.037-.078,2.235,2.235,0,0,1,1.488.429A1.734,1.734,0,0,1-105.116-3.792Zm-.635.017a1.373,1.373,0,0,0-.348-1.009,1.372,1.372,0,0,0-1.017-.351,2.548,2.548,0,0,0-.485.039v2.809a3.179,3.179,0,0,0,.407.017,1.424,1.424,0,0,0,1.067-.384A1.539,1.539,0,0,0-105.751-3.775Z" transform="translate(108.203 5.776)" fill="#fff"/>
        <path id="Path_3488" data-name="Path 3488" d="M-98.935-2.445a1.485,1.485,0,0,1-.357,1.025,1.273,1.273,0,0,1-.992.412,1.21,1.21,0,0,1-.95-.4,1.442,1.442,0,0,1-.353-1,1.471,1.471,0,0,1,.365-1.031,1.265,1.265,0,0,1,.984-.4,1.239,1.239,0,0,1,.959.4A1.43,1.43,0,0,1-98.935-2.445Zm-.624.02a1.225,1.225,0,0,0-.161-.643.6.6,0,0,0-.54-.324.6.6,0,0,0-.552.324,1.241,1.241,0,0,0-.161.654,1.225,1.225,0,0,0,.161.643.608.608,0,0,0,.546.324.6.6,0,0,0,.54-.33A1.217,1.217,0,0,0-99.559-2.426Z" transform="translate(105.388 5.019)" fill="#fff"/>
        <path id="Path_3489" data-name="Path 3489" d="M-92.02-3.736l-.847,2.708h-.551L-93.77-2.2a8.8,8.8,0,0,1-.218-.875H-94a6.409,6.409,0,0,1-.218.875l-.373,1.176h-.558l-.8-2.708h.619l.306,1.287q.111.457.184.869h.011q.067-.34.223-.863l.384-1.293h.491l.368,1.265q.134.463.217.892h.017a8.521,8.521,0,0,1,.184-.892l.329-1.265h.591Z" transform="translate(102.987 4.979)" fill="#fff"/>
        <path id="Path_3490" data-name="Path 3490" d="M-85.439-1.07h-.6V-2.621q0-.717-.546-.717a.543.543,0,0,0-.435.2.7.7,0,0,0-.167.464v1.606h-.6V-3q0-.357-.022-.775h.529l.028.423h.017a.87.87,0,0,1,.312-.327,1.018,1.018,0,0,1,.546-.152.864.864,0,0,1,.63.245,1.192,1.192,0,0,1,.312.9Z" transform="translate(99.527 5.021)" fill="#fff"/>
        <path id="Path_3491" data-name="Path 3491" d="M-81.236-1.948h-.6V-5.9h.6Z" transform="translate(96.984 5.899)" fill="#fff"/>
        <path id="Path_3492" data-name="Path 3492" d="M-76.586-2.445a1.485,1.485,0,0,1-.357,1.025,1.274,1.274,0,0,1-.992.412,1.209,1.209,0,0,1-.95-.4,1.442,1.442,0,0,1-.353-1,1.471,1.471,0,0,1,.365-1.031,1.265,1.265,0,0,1,.983-.4,1.24,1.24,0,0,1,.959.4A1.43,1.43,0,0,1-76.586-2.445Zm-.625.02a1.225,1.225,0,0,0-.161-.643.594.594,0,0,0-.539-.324.6.6,0,0,0-.552.324,1.241,1.241,0,0,0-.161.654,1.225,1.225,0,0,0,.161.643.608.608,0,0,0,.546.324.6.6,0,0,0,.539-.33A1.212,1.212,0,0,0-77.211-2.426Z" transform="translate(95.878 5.019)" fill="#fff"/>
        <path id="Path_3493" data-name="Path 3493" d="M-71.2-1.069h-.541l-.045-.312H-71.8a.927.927,0,0,1-.791.373.816.816,0,0,1-.618-.245.769.769,0,0,1-.212-.552A.841.841,0,0,1-73-2.562a2.156,2.156,0,0,1,1.168-.256v-.051q0-.535-.562-.535a1.26,1.26,0,0,0-.706.2l-.122-.4a1.737,1.737,0,0,1,.929-.234q1.062,0,1.063,1.12v1A4.23,4.23,0,0,0-71.2-1.069ZM-71.821-2v-.418q-1-.017-1,.546a.408.408,0,0,0,.115.318.421.421,0,0,0,.294.106.608.608,0,0,0,.368-.125.513.513,0,0,0,.209-.321A.51.51,0,0,0-71.821-2Z" transform="translate(93.402 5.019)" fill="#fff"/>
        <path id="Path_3494" data-name="Path 3494" d="M-65.509-1.948h-.534l-.028-.435h-.017a.9.9,0,0,1-.87.5,1.019,1.019,0,0,1-.813-.384,1.5,1.5,0,0,1-.323-1,1.57,1.57,0,0,1,.351-1.065,1.079,1.079,0,0,1,.836-.379.812.812,0,0,1,.763.368h.011V-5.9h.6v3.221Q-65.53-2.282-65.509-1.948Zm-.624-1.142v-.452a.886.886,0,0,0-.017-.19.686.686,0,0,0-.218-.365.592.592,0,0,0-.4-.148.618.618,0,0,0-.53.268,1.147,1.147,0,0,0-.193.685,1.07,1.07,0,0,0,.185.652.62.62,0,0,0,.526.267.58.58,0,0,0,.476-.223A.742.742,0,0,0-66.133-3.09Z" transform="translate(91.136 5.899)" fill="#fff"/>
        <path id="Path_3495" data-name="Path 3495" d="M-56.6-2.445a1.485,1.485,0,0,1-.357,1.025,1.272,1.272,0,0,1-.992.412,1.212,1.212,0,0,1-.95-.4,1.442,1.442,0,0,1-.353-1,1.471,1.471,0,0,1,.365-1.031,1.266,1.266,0,0,1,.984-.4,1.237,1.237,0,0,1,.958.4A1.43,1.43,0,0,1-56.6-2.445Zm-.624.02a1.225,1.225,0,0,0-.161-.643.6.6,0,0,0-.541-.324.605.605,0,0,0-.552.324,1.241,1.241,0,0,0-.161.654,1.225,1.225,0,0,0,.161.643.608.608,0,0,0,.546.324.6.6,0,0,0,.541-.33A1.222,1.222,0,0,0-57.219-2.426Z" transform="translate(87.372 5.019)" fill="#fff"/>
        <path id="Path_3496" data-name="Path 3496" d="M-50.754-1.07h-.6V-2.621q0-.717-.546-.717a.541.541,0,0,0-.434.2.7.7,0,0,0-.167.464v1.606h-.6V-3q0-.357-.021-.775h.529l.028.423h.017a.879.879,0,0,1,.312-.327,1.02,1.02,0,0,1,.546-.152.864.864,0,0,1,.63.245,1.19,1.19,0,0,1,.312.9Z" transform="translate(84.767 5.021)" fill="#fff"/>
        <path id="Path_3497" data-name="Path 3497" d="M-43.165-3.785h-.663v1.316c0,.334.118.5.351.5A1.06,1.06,0,0,0-43.208-2l.016.457a1.353,1.353,0,0,1-.468.067.72.72,0,0,1-.557-.217,1.062,1.062,0,0,1-.2-.73V-3.785h-.4v-.451h.4v-.5l.59-.178v.674h.663v.452Z" transform="translate(81.23 5.478)" fill="#fff"/>
        <path id="Path_3498" data-name="Path 3498" d="M-38.137-1.948h-.6v-1.54q0-.728-.545-.728a.575.575,0,0,0-.574.422.756.756,0,0,0-.028.217v1.629h-.6V-5.9h.6v1.632h.011a.91.91,0,0,1,.813-.445.839.839,0,0,1,.619.245,1.233,1.233,0,0,1,.306.908Z" transform="translate(79.39 5.899)" fill="#fff"/>
        <path id="Path_3499" data-name="Path 3499" d="M-32.455-2.555a1.454,1.454,0,0,1-.022.273h-1.806a.79.79,0,0,0,.261.613.9.9,0,0,0,.591.19,2,2,0,0,0,.73-.128l.094.418a2.267,2.267,0,0,1-.909.167,1.313,1.313,0,0,1-.989-.371,1.365,1.365,0,0,1-.359-.994,1.55,1.55,0,0,1,.334-1.02,1.151,1.151,0,0,1,.947-.434,1.007,1.007,0,0,1,.885.434A1.446,1.446,0,0,1-32.455-2.555Zm-.574-.156a.811.811,0,0,0-.117-.462.526.526,0,0,0-.479-.251.572.572,0,0,0-.479.245.911.911,0,0,0-.179.468Z" transform="translate(76.996 5.023)" fill="#fff"/>
      </g>
    </g>
  </g>
</svg>
