<svg xmlns="http://www.w3.org/2000/svg" xmlns:xlink="http://www.w3.org/1999/xlink" width="241.859" height="76.619" viewBox="0 0 241.859 76.619">
  <defs>
    <linearGradient id="linear-gradient" x1="1.625" y1="-4.143" x2="0.33" y2="-3.468" gradientUnits="objectBoundingBox">
      <stop offset="0" stop-color="#00a0ff"/>
      <stop offset="0.007" stop-color="#00a1ff"/>
      <stop offset="0.26" stop-color="#00beff"/>
      <stop offset="0.512" stop-color="#00d2ff"/>
      <stop offset="0.76" stop-color="#00dfff"/>
      <stop offset="1" stop-color="#00e3ff"/>
    </linearGradient>
    <linearGradient id="linear-gradient-2" x1="1.977" y1="-11.775" x2="-0.399" y2="-11.775" gradientUnits="objectBoundingBox">
      <stop offset="0" stop-color="#ffe000"/>
      <stop offset="0.409" stop-color="#ffbd00"/>
      <stop offset="0.775" stop-color="orange"/>
      <stop offset="1" stop-color="#ff9c00"/>
    </linearGradient>
    <linearGradient id="linear-gradient-3" x1="0.913" y1="-8.638" x2="-0.447" y2="-6.852" gradientUnits="objectBoundingBox">
      <stop offset="0" stop-color="#ff3a44"/>
      <stop offset="1" stop-color="#c31162"/>
    </linearGradient>
    <linearGradient id="linear-gradient-4" x1="-0.134" y1="-8.068" x2="0.473" y2="-7.27" gradientUnits="objectBoundingBox">
      <stop offset="0" stop-color="#32a071"/>
      <stop offset="0.068" stop-color="#2da771"/>
      <stop offset="0.476" stop-color="#15cf74"/>
      <stop offset="0.801" stop-color="#06e775"/>
      <stop offset="1" stop-color="#00f076"/>
    </linearGradient>
  </defs>
  <g id="Group_74392" data-name="Group 74392" transform="translate(3430 -5340.242)">
    <g id="Group_68570" data-name="Group 68570" transform="translate(-3430 5340.242)">
      <path id="Rectangle_41265" data-name="Rectangle 41265" d="M20,0H201.859a40,40,0,0,1,40,40V56.619a20,20,0,0,1-20,20H40a40,40,0,0,1-40-40V20A20,20,0,0,1,20,0Z" transform="translate(0)"/>
      <g id="Group_1108" data-name="Group 1108" transform="translate(17.539 13.847)">
        <g id="g18" transform="translate(56.043 0)">
          <path id="path20" d="M-62.872-11.162A4.788,4.788,0,0,1-64.2-7.627,5.255,5.255,0,0,1-68.141-6.06,5.453,5.453,0,0,1-72.08-7.645,5.318,5.318,0,0,1-73.7-11.593a5.28,5.28,0,0,1,1.623-3.937,5.42,5.42,0,0,1,3.939-1.6,5.663,5.663,0,0,1,2.2.449A4.339,4.339,0,0,1-64.267-15.5l-.932.932a3.659,3.659,0,0,0-2.941-1.249,4.123,4.123,0,0,0-2.929,1.171A4.045,4.045,0,0,0-72.3-11.593,4.065,4.065,0,0,0-71.07-8.532a4.162,4.162,0,0,0,2.929,1.171,4.1,4.1,0,0,0,2.991-1.179,3.3,3.3,0,0,0,.9-2.147h-3.889v-1.276h5.188A3.6,3.6,0,0,1-62.872-11.162Z" transform="translate(73.703 17.127)" fill="#fff" stroke="#fff" stroke-miterlimit="10" stroke-width="0.16"/>
        </g>
        <g id="g22" transform="translate(68.853 0.242)">
          <path id="path24" d="M-60.261-15.69h-4.873v3.353h4.394v1.276h-4.394v3.353h4.873v1.3h-6.252V-16.991h6.252Z" transform="translate(66.513 16.991)" fill="#fff" stroke="#fff" stroke-miterlimit="10" stroke-width="0.16"/>
        </g>
        <g id="g26" transform="translate(76.544 0.242)">
          <path id="path28" d="M-57.827-6.408h-1.379V-15.69H-62.2v-1.3h7.36v1.3h-2.991Z" transform="translate(62.196 16.991)" fill="#fff" stroke="#fff" stroke-miterlimit="10" stroke-width="0.16"/>
        </g>
        <g id="g30" transform="translate(89.231 0.242)">
          <path id="path32" d="M-55.075-6.408V-16.991H-53.7V-6.408Z" transform="translate(55.075 16.991)" fill="#fff" stroke="#fff" stroke-miterlimit="10" stroke-width="0.16"/>
        </g>
        <g id="g34" transform="translate(92.345 0.242)">
          <path id="path36" d="M-48.958-6.408h-1.368V-15.69h-3v-1.3h7.369v1.3h-3Z" transform="translate(53.327 16.991)" fill="#fff" stroke="#fff" stroke-miterlimit="10" stroke-width="0.16"/>
        </g>
        <g id="g38" transform="translate(104.213 0)">
          <path id="path40" d="M-37.23-7.663a5.294,5.294,0,0,1-3.923,1.6,5.3,5.3,0,0,1-3.934-1.6,5.377,5.377,0,0,1-1.579-3.93,5.373,5.373,0,0,1,1.579-3.928,5.3,5.3,0,0,1,3.934-1.605,5.262,5.262,0,0,1,3.914,1.612,5.359,5.359,0,0,1,1.587,3.921A5.378,5.378,0,0,1-37.23-7.663Zm-6.838-.887a3.969,3.969,0,0,0,2.915,1.188,3.947,3.947,0,0,0,2.9-1.188,4.129,4.129,0,0,0,1.194-3.043,4.129,4.129,0,0,0-1.194-3.043,3.947,3.947,0,0,0-2.9-1.188,3.969,3.969,0,0,0-2.915,1.188,4.135,4.135,0,0,0-1.194,3.043A4.135,4.135,0,0,0-44.068-8.55Z" transform="translate(46.666 17.127)" fill="#fff" stroke="#fff" stroke-miterlimit="10" stroke-width="0.16"/>
        </g>
        <g id="g42" transform="translate(117.164 0.242)">
          <path id="path44" d="M-39.4-6.408V-16.991h1.673l5.206,8.231h.061l-.061-2.035v-6.2h1.377V-6.408h-1.438l-5.45-8.636h-.061L-38.029-13v6.594Z" transform="translate(39.397 16.991)" fill="#fff" stroke="#fff" stroke-miterlimit="10" stroke-width="0.16"/>
        </g>
        <path id="path46" d="M-25.629,1.268a7.444,7.444,0,0,0-7.62,7.508,7.464,7.464,0,0,0,7.62,7.506A7.466,7.466,0,0,0-18,8.776,7.447,7.447,0,0,0-25.629,1.268Zm0,12.058a4.363,4.363,0,0,1-4.281-4.55,4.343,4.343,0,0,1,4.281-4.552,4.35,4.35,0,0,1,4.292,4.552A4.37,4.37,0,0,1-25.629,13.326ZM-42.257,1.268a7.44,7.44,0,0,0-7.622,7.508,7.46,7.46,0,0,0,7.622,7.506,7.461,7.461,0,0,0,7.622-7.506A7.441,7.441,0,0,0-42.257,1.268Zm0,12.058a4.368,4.368,0,0,1-4.29-4.55,4.348,4.348,0,0,1,4.29-4.552,4.342,4.342,0,0,1,4.281,4.552A4.362,4.362,0,0,1-42.257,13.326ZM-62.045,3.568V6.759h7.709a6.589,6.589,0,0,1-1.753,4.007,7.967,7.967,0,0,1-5.956,2.329A8.414,8.414,0,0,1-70.5,4.621a8.412,8.412,0,0,1,8.457-8.472,8.233,8.233,0,0,1,5.81,2.273l2.275-2.248A11.322,11.322,0,0,0-62.045-7.04,11.894,11.894,0,0,0-74.016,4.621,11.894,11.894,0,0,0-62.045,16.282a10.845,10.845,0,0,0,8.233-3.275,10.44,10.44,0,0,0,2.792-7.445A10.52,10.52,0,0,0-51.2,3.568ZM18.869,6.043a7.035,7.035,0,0,0-6.5-4.775A7.171,7.171,0,0,0,5.206,8.776a7.388,7.388,0,0,0,7.535,7.506,7.552,7.552,0,0,0,6.33-3.326l-2.589-1.707a4.356,4.356,0,0,1-3.741,2.077,3.866,3.866,0,0,1-3.679-2.275L19.22,6.9ZM8.511,8.542a4.142,4.142,0,0,1,3.968-4.377A2.956,2.956,0,0,1,15.3,5.757ZM.255,15.825H3.594V-6.238H.255ZM-5.215,2.939h-.112A5.3,5.3,0,0,0-9.32,1.268,7.506,7.506,0,0,0-16.6,8.8,7.477,7.477,0,0,0-9.32,16.282a5.21,5.21,0,0,0,3.993-1.705h.112v1.076c0,2.87-1.552,4.413-4.055,4.413A4.209,4.209,0,0,1-13.1,17.384L-16,18.583A7.246,7.246,0,0,0-9.27,23.021c3.916,0,7.221-2.277,7.221-7.816V1.724H-5.215Zm-3.82,10.387A4.329,4.329,0,0,1-13.262,8.8,4.36,4.36,0,0,1-9.035,4.223c2.268,0,4.057,1.931,4.057,4.577A4.218,4.218,0,0,1-9.035,13.326ZM34.5-6.238H26.518V15.825h3.332V7.464H34.5c3.7,0,7.328-2.644,7.328-6.852S38.195-6.238,34.5-6.238ZM34.592,4.4H29.849V-3.17h4.743A3.851,3.851,0,0,1,38.5.612,3.874,3.874,0,0,1,34.592,4.4ZM55.181,1.225A6.259,6.259,0,0,0,49.244,4.6L52.2,5.827a3.165,3.165,0,0,1,3.043-1.621c1.728,0,3.481,1.026,3.508,2.838v.232a7.4,7.4,0,0,0-3.481-.853c-3.182,0-6.426,1.732-6.426,4.964,0,2.958,2.607,4.86,5.539,4.86a4.728,4.728,0,0,0,4.255-2.161h.114V15.79h3.216V7.325C61.965,3.415,59.009,1.225,55.181,1.225Zm-.4,12.092c-1.09,0-2.608-.534-2.608-1.869,0-1.709,1.894-2.364,3.533-2.364a6.042,6.042,0,0,1,3.045.741A4.028,4.028,0,0,1,54.78,13.317ZM73.686,1.708l-3.829,9.566h-.114L65.785,1.708H62.193L68.14,15.075l-3.392,7.437h3.48l9.163-20.8ZM43.662,15.825H47V-6.238H43.662Z" transform="translate(129.501 25.011)" fill="#fff"/>
        <g id="g48" transform="translate(0 1.062)">
          <path id="path64" d="M-104.332-16.4a3.489,3.489,0,0,0-.827,2.482V25.115a3.492,3.492,0,0,0,.827,2.482l.13.119L-82.071,5.85V5.335L-104.2-16.531Z" transform="translate(105.159 16.531)" fill="url(#linear-gradient)"/>
        </g>
        <g id="g66" transform="translate(23.088 15.636)">
          <path id="path78" d="M-84.831,6.748-92.2-.544v-.515l7.378-7.292.166.094,8.737,4.914c2.494,1.393,2.494,3.688,0,5.092l-8.737,4.9Z" transform="translate(92.2 8.351)" fill="url(#linear-gradient-2)"/>
        </g>
        <g id="g80" transform="translate(0.827 23.184)">
          <path id="path88" d="M-74.89,3.342l-7.543-7.456-22.261,22c.828.861,2.179.964,3.715.1L-74.89,3.342" transform="translate(104.695 4.114)" fill="url(#linear-gradient-3)"/>
        </g>
        <g id="g90" transform="translate(0.827 0.489)">
          <path id="path104" d="M-74.89-1.612l-26.09-14.652c-1.536-.852-2.886-.748-3.715.112L-82.434,5.843Z" transform="translate(104.695 16.852)" fill="url(#linear-gradient-4)"/>
        </g>
      </g>
    </g>
  </g>
</svg>
