<svg xmlns="http://www.w3.org/2000/svg" width="220.829" height="42.769" viewBox="0 0 220.829 42.769">
  <g id="Group_71102" data-name="Group 71102" transform="translate(0)">
    <g id="Component_17_9" data-name="Component 17 – 9">
      <g id="Group_1" data-name="Group 1" transform="translate(68.663 0)">
        <path id="Path_1" data-name="Path 1" d="M-2091.634,1336.346v12.041h-5.94v-12.041q-.149-2.695-2.24-2.771h-.333q-2.258.076-2.258,3.23v11.582h-5.922V1336.8q0-8.314,8.179-8.772h.333a9.754,9.754,0,0,1,5.219,1.605,9.649,9.649,0,0,1,5.2-1.605h.333q8.179.459,8.179,8.772v11.582h-5.922V1336.8q0-3.153-2.258-3.23h-.333Q-2091.486,1333.651-2091.634,1336.346Z" transform="translate(2108.326 -1321.463)" fill="#fff"/>
        <path id="Path_2" data-name="Path 2" d="M-1940.326,1347.167q-.592.26-.87.352a11.291,11.291,0,0,1-4.108.759,11.393,11.393,0,0,1-5.348-1.314,10.509,10.509,0,0,1-4-3.627,9.411,9.411,0,0,1-1.5-5.2,9.445,9.445,0,0,1,.87-4.034,10.065,10.065,0,0,1,2.387-3.22,10.362,10.362,0,0,1,3.479-2.091,11.39,11.39,0,0,1,4.108-.759,11.742,11.742,0,0,1,4.108.74,10.369,10.369,0,0,1,3.479,2.11,10.114,10.114,0,0,1,2.406,3.22,9.443,9.443,0,0,1,.87,4.034l-.019,9.641-5.866-.055Zm-9.234-11.418a4.407,4.407,0,0,0-.685,2.387,4.542,4.542,0,0,0,1.481,3.387,4.824,4.824,0,0,0,3.46,1.406,4.847,4.847,0,0,0,3.479-1.406,4.542,4.542,0,0,0,1.48-3.387,4.408,4.408,0,0,0-.685-2.387,5.065,5.065,0,0,0-1.832-1.74,4.938,4.938,0,0,0-2.443-.629,4.971,4.971,0,0,0-2.424.629A5.06,5.06,0,0,0-1949.56,1335.749Z" transform="translate(1988.325 -1321.463)" fill="#fff"/>
        <path id="Path_3" data-name="Path 3" d="M-1828.19,1341.763a5.84,5.84,0,0,0,4.293,1.758q2.646,0,2.646-1.554,0-.814-1.462-1.2-1.036-.24-3.294-.833a6.527,6.527,0,0,1-3.09-1.776,5.443,5.443,0,0,1-1.24-3.923,5.714,5.714,0,0,1,1.018-3.442,6.112,6.112,0,0,1,2.683-2.073,9.69,9.69,0,0,1,3.682-.685,8.8,8.8,0,0,1,2.295.315,11.1,11.1,0,0,1,2.258.962,10.341,10.341,0,0,1,1.925,1.369l-3.257,3.239a5.06,5.06,0,0,0-3.109-1.073q-2.017,0-2.017,1.129,0,1.018,1.5,1.425,1.647.444,3.313.833a6.382,6.382,0,0,1,3.053,1.7,5.464,5.464,0,0,1,1.24,3.96,5.718,5.718,0,0,1-1.073,3.479,6.409,6.409,0,0,1-2.868,2.2,9.466,9.466,0,0,1-3.72.759,14.871,14.871,0,0,1-2.905-.259,8.907,8.907,0,0,1-2.424-.814,15.391,15.391,0,0,1-2.443-1.536Z" transform="translate(1889.787 -1321.463)" fill="#fff"/>
        <path id="Path_4" data-name="Path 4" d="M-1736.4,1341.763a5.84,5.84,0,0,0,4.293,1.758q2.646,0,2.646-1.554,0-.814-1.462-1.2-1.036-.24-3.294-.833a6.526,6.526,0,0,1-3.09-1.776,5.442,5.442,0,0,1-1.24-3.923,5.715,5.715,0,0,1,1.018-3.442,6.113,6.113,0,0,1,2.683-2.073,9.691,9.691,0,0,1,3.682-.685,8.8,8.8,0,0,1,2.295.315,11.093,11.093,0,0,1,2.258.962,10.333,10.333,0,0,1,1.925,1.369l-3.257,3.239a5.06,5.06,0,0,0-3.109-1.073q-2.017,0-2.017,1.129,0,1.018,1.5,1.425,1.647.444,3.312.833a6.38,6.38,0,0,1,3.054,1.7,5.464,5.464,0,0,1,1.24,3.96,5.718,5.718,0,0,1-1.073,3.479,6.408,6.408,0,0,1-2.868,2.2,9.464,9.464,0,0,1-3.719.759,14.873,14.873,0,0,1-2.905-.259,8.908,8.908,0,0,1-2.424-.814,15.375,15.375,0,0,1-2.443-1.536Z" transform="translate(1817.405 -1321.463)" fill="#fff"/>
        <path id="Path_5" data-name="Path 5" d="M-1646.591,1309.325h-3.9l1.332-5.07h2.572v-7.291l5.9.037v7.254h3.923l-1.314,5.07h-2.609v6.273q0,2.517,3.146,2.517a3.933,3.933,0,0,0,1.554-.24l-1.7,5.885a5.768,5.768,0,0,1-.907.074,10.083,10.083,0,0,1-4.4-.851,5.769,5.769,0,0,1-2.683-2.572,9.207,9.207,0,0,1-.907-4.349Z" transform="translate(1747.301 -1296.963)" fill="#fff"/>
        <path id="Path_6" data-name="Path 6" d="M-1554.085,1346.862a10.461,10.461,0,0,1-4-3.646,9.446,9.446,0,0,1-1.5-5.219,9.441,9.441,0,0,1,.87-4.034,10,10,0,0,1,2.387-3.238,10.913,10.913,0,0,1,3.5-2.128,11.689,11.689,0,0,1,4.09-.74,11.74,11.74,0,0,1,4.108.74,10.5,10.5,0,0,1,3.5,2.109,10.118,10.118,0,0,1,2.387,3.257,9.443,9.443,0,0,1,.87,4.034,9.46,9.46,0,0,1-.851,4.034,10.19,10.19,0,0,1-2.406,3.275,11.013,11.013,0,0,1-3.5,2.128,11.2,11.2,0,0,1-4.108.759A11.267,11.267,0,0,1-1554.085,1346.862Zm1.888-5.459a4.789,4.789,0,0,0,3.46,1.425,4.812,4.812,0,0,0,3.479-1.425,4.562,4.562,0,0,0,1.48-3.405,4.407,4.407,0,0,0-.685-2.387,5.067,5.067,0,0,0-1.832-1.74,4.827,4.827,0,0,0-2.443-.648,4.858,4.858,0,0,0-2.424.648,5.058,5.058,0,0,0-1.832,1.74,4.4,4.4,0,0,0-.685,2.387A4.561,4.561,0,0,0-1552.2,1341.4Z" transform="translate(1675.61 -1321.325)" fill="#fff"/>
        <path id="Path_7" data-name="Path 7" d="M-1424.906,1333.805a2.27,2.27,0,0,0-1.2-.362h-.333q-2.258.1-2.257,3.234v11.53h-5.922v-11.53q0-8.314,8.179-8.733h.333a9.5,9.5,0,0,1,1.2.114Z" transform="translate(1577.072 -1321.394)" fill="#fff"/>
      </g>
      <g id="Group_6" data-name="Group 6" transform="translate(0)">
        <g id="LOGO">
          <g id="Group_3" data-name="Group 3">
            <circle id="Ellipse_3" data-name="Ellipse 3" cx="4.935" cy="4.935" r="4.935" transform="translate(22.288)" fill="#fff"/>
            <circle id="Ellipse_4" data-name="Ellipse 4" cx="4.935" cy="4.935" r="4.935" transform="translate(22.288 32.899)" fill="#fff"/>
            <g id="Group_1-2" data-name="Group 1" transform="translate(6.25 23.029)">
              <circle id="Ellipse_5" data-name="Ellipse 5" cx="4.935" cy="4.935" r="4.935" fill="#fff"/>
              <circle id="Ellipse_6" data-name="Ellipse 6" cx="4.935" cy="4.935" r="4.935" transform="translate(32.076)" fill="#fff"/>
            </g>
            <g id="Group_2" data-name="Group 2" transform="translate(0 5.251)">
              <path id="Path_1-2" data-name="Path 1" d="M-1855.361,862.437c-2.094,2.78-5.165,2.955-8.253,3.186-5.527.417-10.676,1.513-13.357,7.265a4.765,4.765,0,0,1-3.975,2.866,4.77,4.77,0,0,1-3.975-2.866c-2.679-5.752-7.83-6.849-13.357-7.265-3.087-.231-6.158-.406-8.253-3.186-3.355-4.469-1.337-9.947,4.085-11.142,5.143-1.135,8.9,1.4,12.551,4.5,2.577,2.188,5.292,4.244,8.949,4.249s6.371-2.061,8.948-4.249c3.653-3.1,7.407-5.636,12.551-4.5C-1854.023,852.491-1852.005,857.968-1855.361,862.437Z" transform="translate(1908.168 -851.019)" fill="#fff"/>
            </g>
          </g>
        </g>
      </g>
      <g id="Group_2-2" data-name="Group 2" transform="translate(69.31 32.234)">
        <path id="Path_8" data-name="Path 8" d="M-2105.262,1458.106v-7.246h2.589a4,4,0,0,1,1.491.276,3.937,3.937,0,0,1,1.22.761,3.564,3.564,0,0,1,.822,1.159,3.492,3.492,0,0,1,.3,1.43,3.42,3.42,0,0,1-.3,1.42,3.563,3.563,0,0,1-.822,1.159,3.851,3.851,0,0,1-1.226.766,3.991,3.991,0,0,1-1.486.276Zm1.848-5.7v4.177h.577a2.123,2.123,0,0,0,.837-.169,2.173,2.173,0,0,0,.689-.465,2.119,2.119,0,0,0,.46-.674,1.971,1.971,0,0,0,.158-.786,2.086,2.086,0,0,0-.163-.8,2.155,2.155,0,0,0-.449-.664,2.186,2.186,0,0,0-.689-.454,2.163,2.163,0,0,0-.843-.169Z" transform="translate(2105.262 -1450.554)" fill="#fff"/>
        <path id="Path_9" data-name="Path 9" d="M-2067.169,1450.7a.875.875,0,0,1-.307.306.809.809,0,0,1-.429.118.81.81,0,0,1-.424-.113.864.864,0,0,1-.307-.312.858.858,0,0,1-.117-.434.84.84,0,0,1,.112-.429.908.908,0,0,1,.312-.312.815.815,0,0,1,.424-.112.842.842,0,0,1,.429.112.867.867,0,0,1,.307.312.843.843,0,0,1,.112.429A.834.834,0,0,1-2067.169,1450.7Zm.107,1.047v5.234h-1.629v-5.229Z" transform="translate(2076.472 -1449.411)" fill="#fff"/>
        <path id="Path_10" data-name="Path 10" d="M-2048.876,1462.292l-.005,2.768v.378a2.346,2.346,0,0,1-.715,1.721,2.314,2.314,0,0,1-.889.526,3.089,3.089,0,0,1-1.031.184h-.286a2.6,2.6,0,0,1-1.854-.71,2.092,2.092,0,0,1-.562-.832l1.558-.9a1,1,0,0,0,.322.684.988.988,0,0,0,.7.281,1.007,1.007,0,0,0,.587-.184,1,1,0,0,0,.373-.459l0-.021.01-.026.02-.071a.51.51,0,0,0,.026-.123v-.015l0-.016.005-.02v-.031h0v-.536l-.041.021-.041.015a2.8,2.8,0,0,1-1.072.209,2.75,2.75,0,0,1-1.394-.373,2.786,2.786,0,0,1-1.042-1.016,2.769,2.769,0,0,1-.393-1.455,2.731,2.731,0,0,1,.23-1.123,2.855,2.855,0,0,1,.623-.909,2.846,2.846,0,0,1,.909-.587,2.838,2.838,0,0,1,1.067-.209,3.111,3.111,0,0,1,1.409.245A2.522,2.522,0,0,1-2048.876,1462.292Zm-3.7.9a1.293,1.293,0,0,0,.929.393,1.3,1.3,0,0,0,.935-.393,1.258,1.258,0,0,0,.4-.934,1.249,1.249,0,0,0-.184-.653,1.327,1.327,0,0,0-.49-.48,1.334,1.334,0,0,0-.659-.174,1.277,1.277,0,0,0-.648.174,1.36,1.36,0,0,0-.5.48,1.247,1.247,0,0,0-.184.653A1.257,1.257,0,0,0-2052.578,1463.2Z" transform="translate(2065.296 -1457.334)" fill="#fff"/>
        <path id="Path_11" data-name="Path 11" d="M-2019.867,1450.7a.878.878,0,0,1-.306.306.81.81,0,0,1-.429.118.81.81,0,0,1-.424-.113.864.864,0,0,1-.307-.312.857.857,0,0,1-.117-.434.839.839,0,0,1,.113-.429.905.905,0,0,1,.311-.312.814.814,0,0,1,.424-.112.843.843,0,0,1,.429.112.871.871,0,0,1,.306.312.842.842,0,0,1,.112.429A.832.832,0,0,1-2019.867,1450.7Zm.107,1.047v5.234h-1.629v-5.229Z" transform="translate(2039.172 -1449.411)" fill="#fff"/>
        <path id="Path_12" data-name="Path 12" d="M-2006.2,1454.3h-1.078l.368-1.4h.71v-2.012l1.629.01v2h1.082l-.362,1.4h-.72v1.731q0,.695.868.695a1.088,1.088,0,0,0,.429-.066l-.47,1.624a1.6,1.6,0,0,1-.25.02,2.779,2.779,0,0,1-1.215-.235,1.591,1.591,0,0,1-.74-.71,2.541,2.541,0,0,1-.25-1.2Z" transform="translate(2027.996 -1450.573)" fill="#fff"/>
        <path id="Path_13" data-name="Path 13" d="M-1977.824,1464.738c-.109.048-.189.08-.24.1a3.118,3.118,0,0,1-1.134.209,3.147,3.147,0,0,1-1.476-.363,2.9,2.9,0,0,1-1.1-1,2.6,2.6,0,0,1-.414-1.435,2.607,2.607,0,0,1,.24-1.113,2.777,2.777,0,0,1,.659-.889,2.862,2.862,0,0,1,.96-.577,3.143,3.143,0,0,1,1.134-.209,3.241,3.241,0,0,1,1.134.2,2.862,2.862,0,0,1,.96.582,2.79,2.79,0,0,1,.664.889,2.6,2.6,0,0,1,.24,1.113l-.005,2.661-1.619-.016Zm-2.548-3.151a1.217,1.217,0,0,0-.189.659,1.255,1.255,0,0,0,.409.935,1.331,1.331,0,0,0,.955.388,1.337,1.337,0,0,0,.96-.388,1.253,1.253,0,0,0,.409-.935,1.217,1.217,0,0,0-.189-.659,1.4,1.4,0,0,0-.506-.48,1.364,1.364,0,0,0-.674-.173,1.374,1.374,0,0,0-.669.173A1.4,1.4,0,0,0-1980.372,1461.588Z" transform="translate(2008.213 -1457.334)" fill="#fff"/>
        <path id="Path_14" data-name="Path 14" d="M-1947.708,1450.865l1.629-.005v7.241l-1.629.02Z" transform="translate(1981.022 -1450.554)" fill="#fff"/>
        <path id="Path_15" data-name="Path 15" d="M-1918.8,1452.171a2.535,2.535,0,0,0-.557-.424,1.266,1.266,0,0,0-.593-.133.788.788,0,0,0-.47.158.486.486,0,0,0-.23.419q0,.367.5.582t1.047.424a2.39,2.39,0,0,1,.94.679,2.1,2.1,0,0,1,.393,1.379,2.268,2.268,0,0,1-.7,1.787,2.541,2.541,0,0,1-1.772.628,3.462,3.462,0,0,1-1.205-.214,2.9,2.9,0,0,1-1.031-.643l.96-1.369a1.467,1.467,0,0,0,1.21.582,1.089,1.089,0,0,0,.577-.169.527.527,0,0,0,.271-.48q0-.372-.506-.592-.224-.1-.521-.219l-.266-.107-.271-.112a2.421,2.421,0,0,1-.934-.679,2.007,2.007,0,0,1-.388-1.343,2.121,2.121,0,0,1,.337-1.195,2.166,2.166,0,0,1,.873-.776,2.513,2.513,0,0,1,1.139-.266,2.969,2.969,0,0,1,1.1.215,3.019,3.019,0,0,1,.965.623Z" transform="translate(1961.128 -1449.944)" fill="#fff"/>
        <path id="Path_16" data-name="Path 16" d="M-1890.036,1461.2a1.543,1.543,0,0,0-.48-.276,1.767,1.767,0,0,0-.572-.092,1.339,1.339,0,0,0-.95.363,1.173,1.173,0,0,0-.393.9,1.632,1.632,0,0,0,.169.751,1.244,1.244,0,0,0,.485.526,1.309,1.309,0,0,0,.72.2,1.5,1.5,0,0,0,1.031-.383l.894,1.134a1.723,1.723,0,0,1-.542.362,3.444,3.444,0,0,1-.725.235,3.439,3.439,0,0,1-.69.077,3.2,3.2,0,0,1-1.568-.373,2.708,2.708,0,0,1-1.042-.991,2.606,2.606,0,0,1-.363-1.333,3.024,3.024,0,0,1,.22-1.175,2.749,2.749,0,0,1,.618-.919,2.793,2.793,0,0,1,.945-.587,3.323,3.323,0,0,1,1.19-.21,3.225,3.225,0,0,1,1.016.163,2.866,2.866,0,0,1,.883.475Z" transform="translate(1938.717 -1457.295)" fill="#fff"/>
        <path id="Path_17" data-name="Path 17" d="M-1862.967,1450.86v2.328a1.653,1.653,0,0,1,.582-.378,1.947,1.947,0,0,1,.715-.138q1.966,0,1.966,2.3v3.135l-1.634.005v-3.028a1.015,1.015,0,0,0-.215-.7.775.775,0,0,0-.6-.235.762.762,0,0,0-.592.235,1,1,0,0,0-.22.7v3.023l-1.634.01v-7.256Z" transform="translate(1915.487 -1450.554)" fill="#fff"/>
        <path id="Path_18" data-name="Path 18" d="M-1833.771,1464.653a2.883,2.883,0,0,1-1.1-1.006,2.605,2.605,0,0,1-.414-1.44,2.609,2.609,0,0,1,.24-1.113,2.764,2.764,0,0,1,.659-.894,3.017,3.017,0,0,1,.965-.587,3.228,3.228,0,0,1,1.129-.2,3.243,3.243,0,0,1,1.134.2,2.9,2.9,0,0,1,.965.582,2.792,2.792,0,0,1,.659.9,2.605,2.605,0,0,1,.24,1.113,2.607,2.607,0,0,1-.235,1.113,2.81,2.81,0,0,1-.664.9,3.041,3.041,0,0,1-.965.587,3.091,3.091,0,0,1-1.134.209A3.107,3.107,0,0,1-1833.771,1464.653Zm.521-1.506a1.322,1.322,0,0,0,.955.393,1.328,1.328,0,0,0,.96-.393,1.258,1.258,0,0,0,.409-.94,1.217,1.217,0,0,0-.189-.659,1.4,1.4,0,0,0-.506-.48,1.334,1.334,0,0,0-.674-.179,1.342,1.342,0,0,0-.669.179,1.4,1.4,0,0,0-.506.48,1.216,1.216,0,0,0-.189.659A1.259,1.259,0,0,0-1833.25,1463.147Z" transform="translate(1892.371 -1457.295)" fill="#fff"/>
        <path id="Path_19" data-name="Path 19" d="M-1799.288,1464.653a2.884,2.884,0,0,1-1.1-1.006,2.606,2.606,0,0,1-.414-1.44,2.609,2.609,0,0,1,.24-1.113,2.762,2.762,0,0,1,.659-.894,3.015,3.015,0,0,1,.965-.587,3.226,3.226,0,0,1,1.128-.2,3.242,3.242,0,0,1,1.134.2,2.894,2.894,0,0,1,.965.582,2.788,2.788,0,0,1,.659.9,2.6,2.6,0,0,1,.24,1.113,2.609,2.609,0,0,1-.235,1.113,2.808,2.808,0,0,1-.664.9,3.037,3.037,0,0,1-.965.587,3.09,3.09,0,0,1-1.134.209A3.106,3.106,0,0,1-1799.288,1464.653Zm.521-1.506a1.322,1.322,0,0,0,.955.393,1.329,1.329,0,0,0,.96-.393,1.259,1.259,0,0,0,.408-.94,1.215,1.215,0,0,0-.189-.659,1.394,1.394,0,0,0-.505-.48,1.334,1.334,0,0,0-.674-.179,1.343,1.343,0,0,0-.669.179,1.4,1.4,0,0,0-.506.48,1.217,1.217,0,0,0-.189.659A1.26,1.26,0,0,0-1798.767,1463.147Z" transform="translate(1865.18 -1457.295)" fill="#fff"/>
        <path id="Path_20" data-name="Path 20" d="M-1766.322,1450.865l1.629-.005v7.241l-1.629.02Z" transform="translate(1837.989 -1450.554)" fill="#fff"/>
        <path id="Path_21" data-name="Path 21" d="M-1750.882,1450.7a.878.878,0,0,1-.306.306.81.81,0,0,1-.429.118.809.809,0,0,1-.424-.113.861.861,0,0,1-.307-.312.857.857,0,0,1-.117-.434.841.841,0,0,1,.112-.429.906.906,0,0,1,.312-.312.814.814,0,0,1,.424-.112.843.843,0,0,1,.429.112.871.871,0,0,1,.306.312.842.842,0,0,1,.112.429A.832.832,0,0,1-1750.882,1450.7Zm.107,1.047v5.234h-1.629v-5.229Z" transform="translate(1827.062 -1449.411)" fill="#fff"/>
        <path id="Path_22" data-name="Path 22" d="M-1736.036,1460.934q-.623.025-.623.868v3.089h-1.634V1461.8a2.1,2.1,0,0,1,2.257-2.344h.092a2.1,2.1,0,0,1,2.257,2.344v3.089h-1.634V1461.8q0-.842-.623-.868Z" transform="translate(1815.886 -1457.334)" fill="#fff"/>
        <path id="Path_23" data-name="Path 23" d="M-1704.651,1462.292l-.005,2.768v.378a2.346,2.346,0,0,1-.715,1.721,2.313,2.313,0,0,1-.888.526,3.093,3.093,0,0,1-1.032.184h-.286a2.6,2.6,0,0,1-1.854-.71,2.092,2.092,0,0,1-.562-.832l1.558-.9a1,1,0,0,0,.322.684.988.988,0,0,0,.7.281,1.01,1.01,0,0,0,.588-.184,1,1,0,0,0,.373-.459l.005-.021.01-.026.02-.071a.516.516,0,0,0,.026-.123v-.015l.005-.016.005-.02v-.031h0v-.536l-.041.021-.041.015a2.8,2.8,0,0,1-1.072.209,2.749,2.749,0,0,1-1.394-.373,2.786,2.786,0,0,1-1.042-1.016,2.768,2.768,0,0,1-.393-1.455,2.731,2.731,0,0,1,.23-1.123,2.85,2.85,0,0,1,.623-.909,2.843,2.843,0,0,1,.909-.587,2.84,2.84,0,0,1,1.068-.209,3.11,3.11,0,0,1,1.409.245A2.522,2.522,0,0,1-1704.651,1462.292Zm-3.7.9a1.292,1.292,0,0,0,.929.393,1.3,1.3,0,0,0,.935-.393,1.258,1.258,0,0,0,.4-.934,1.249,1.249,0,0,0-.184-.653,1.327,1.327,0,0,0-.49-.48,1.333,1.333,0,0,0-.659-.174,1.278,1.278,0,0,0-.649.174,1.363,1.363,0,0,0-.5.48,1.248,1.248,0,0,0-.184.653A1.258,1.258,0,0,0-1708.353,1463.2Z" transform="translate(1793.855 -1457.334)" fill="#fff"/>
        <path id="Path_24" data-name="Path 24" d="M-1661.254,1458.131h-4.6v-7.246h4.6v1.537h-2.824v1.256h1.435l.414,1.527h-1.848v1.4h2.824Z" transform="translate(1758.765 -1450.573)" fill="#fff"/>
        <path id="Path_25" data-name="Path 25" d="M-1637.942,1465.677l1.92-2.717-1.792-2.5,1.792-.01.95,1.45,1.016-1.45,1.762.005-1.889,2.528,1.991,2.681-1.945.01-1-1.511-1.078,1.511Z" transform="translate(1736.754 -1458.114)" fill="#fff"/>
        <path id="Path_26" data-name="Path 26" d="M-1604.594,1462.207a2.533,2.533,0,0,1,.414-1.4,2.848,2.848,0,0,1,1.1-1,3.111,3.111,0,0,1,1.476-.368,3.09,3.09,0,0,1,1.134.209,2.923,2.923,0,0,1,.965.587,2.827,2.827,0,0,1,.664.9,2.609,2.609,0,0,1,.235,1.113,2.592,2.592,0,0,1-.24,1.108,2.737,2.737,0,0,1-.659.894,2.9,2.9,0,0,1-.965.587,3.286,3.286,0,0,1-1.134.2,3.3,3.3,0,0,1-1.128-.2l-.118-.051-.118-.051v2.155l-1.629-.005Zm1.629.036a1.175,1.175,0,0,0,.189.654,1.394,1.394,0,0,0,.506.48,1.32,1.32,0,0,0,.669.179,1.347,1.347,0,0,0,.674-.179,1.393,1.393,0,0,0,.505-.48,1.19,1.19,0,0,0,.189-.654,1.27,1.27,0,0,0-.408-.94,1.328,1.328,0,0,0-.96-.393,1.322,1.322,0,0,0-.955.393A1.26,1.26,0,0,0-1602.965,1462.243Z" transform="translate(1710.457 -1457.315)" fill="#fff"/>
        <path id="Path_27" data-name="Path 27" d="M-1564.6,1461.138a2.68,2.68,0,0,1,.23,1.1v.046a.339.339,0,0,1-.005.056l-.01.087h-.633v.01h-3.513a1.279,1.279,0,0,0,.373.741,1.267,1.267,0,0,0,.919.388,1.256,1.256,0,0,0,.919-.388l.01-.01.016-.021.015-.016.01-.015.878,1.256a3.062,3.062,0,0,1-.766.465,2.943,2.943,0,0,1-1.082.2,2.87,2.87,0,0,1-1.415-.363,2.778,2.778,0,0,1-1.057-1.006,2.654,2.654,0,0,1-.4-1.435,2.632,2.632,0,0,1,.23-1.1,2.749,2.749,0,0,1,.633-.889,2.8,2.8,0,0,1,.919-.587,2.979,2.979,0,0,1,1.088-.2,2.94,2.94,0,0,1,1.082.2,2.831,2.831,0,0,1,.924.582A2.665,2.665,0,0,1-1564.6,1461.138Zm-2.64-.2a1.272,1.272,0,0,0-.644.173,1.518,1.518,0,0,0-.357.317h2a1.521,1.521,0,0,0-.357-.317A1.271,1.271,0,0,0-1567.242,1460.934Z" transform="translate(1683.266 -1457.334)" fill="#fff"/>
        <path id="Path_28" data-name="Path 28" d="M-1534.132,1461.007a.639.639,0,0,0-.332-.1h-.092q-.623.025-.623.868v3.094h-1.634v-3.094a2.1,2.1,0,0,1,2.257-2.344h.092a2.645,2.645,0,0,1,.332.031Z" transform="translate(1657.008 -1457.315)" fill="#fff"/>
        <path id="Path_29" data-name="Path 29" d="M-1516.4,1450.7a.878.878,0,0,1-.306.306.81.81,0,0,1-.429.118.81.81,0,0,1-.424-.113.864.864,0,0,1-.307-.312.857.857,0,0,1-.117-.434.841.841,0,0,1,.112-.429.907.907,0,0,1,.312-.312.814.814,0,0,1,.424-.112.843.843,0,0,1,.429.112.871.871,0,0,1,.306.312.842.842,0,0,1,.112.429A.832.832,0,0,1-1516.4,1450.7Zm.107,1.047v5.234h-1.629v-5.229Z" transform="translate(1642.158 -1449.411)" fill="#fff"/>
        <path id="Path_30" data-name="Path 30" d="M-1498.3,1461.138a2.684,2.684,0,0,1,.229,1.1v.046a.34.34,0,0,1-.005.056l-.01.087h-.633v.01h-3.513a1.278,1.278,0,0,0,.373.741,1.267,1.267,0,0,0,.919.388,1.256,1.256,0,0,0,.919-.388l.01-.01.015-.021.015-.016.01-.015.878,1.256a3.062,3.062,0,0,1-.766.465,2.942,2.942,0,0,1-1.083.2,2.871,2.871,0,0,1-1.415-.363,2.779,2.779,0,0,1-1.057-1.006,2.654,2.654,0,0,1-.4-1.435,2.63,2.63,0,0,1,.23-1.1,2.749,2.749,0,0,1,.633-.889,2.8,2.8,0,0,1,.919-.587,2.98,2.98,0,0,1,1.088-.2,2.939,2.939,0,0,1,1.083.2,2.833,2.833,0,0,1,.924.582A2.672,2.672,0,0,1-1498.3,1461.138Zm-2.64-.2a1.272,1.272,0,0,0-.644.173,1.515,1.515,0,0,0-.357.317h2a1.521,1.521,0,0,0-.357-.317A1.271,1.271,0,0,0-1500.939,1460.934Z" transform="translate(1630.982 -1457.334)" fill="#fff"/>
        <path id="Path_31" data-name="Path 31" d="M-1468.253,1460.934q-.623.025-.623.868v3.089h-1.634V1461.8a2.1,2.1,0,0,1,2.257-2.344h.092a2.1,2.1,0,0,1,2.257,2.344v3.089h-1.634V1461.8q0-.842-.623-.868Z" transform="translate(1604.724 -1457.334)" fill="#fff"/>
        <path id="Path_32" data-name="Path 32" d="M-1438.549,1461.2a1.543,1.543,0,0,0-.48-.276,1.764,1.764,0,0,0-.572-.092,1.339,1.339,0,0,0-.95.363,1.173,1.173,0,0,0-.393.9,1.632,1.632,0,0,0,.169.751,1.243,1.243,0,0,0,.485.526,1.308,1.308,0,0,0,.72.2,1.5,1.5,0,0,0,1.031-.383l.894,1.134a1.723,1.723,0,0,1-.542.362,3.445,3.445,0,0,1-.725.235,3.439,3.439,0,0,1-.689.077,3.206,3.206,0,0,1-1.568-.373,2.708,2.708,0,0,1-1.042-.991,2.607,2.607,0,0,1-.363-1.333,3.022,3.022,0,0,1,.22-1.175,2.747,2.747,0,0,1,.618-.919,2.794,2.794,0,0,1,.945-.587,3.324,3.324,0,0,1,1.19-.21,3.225,3.225,0,0,1,1.016.163,2.866,2.866,0,0,1,.883.475Z" transform="translate(1582.694 -1457.295)" fill="#fff"/>
        <path id="Path_33" data-name="Path 33" d="M-1410.309,1461.138a2.677,2.677,0,0,1,.23,1.1v.046a.317.317,0,0,1-.005.056l-.01.087h-.633v.01h-3.513a1.278,1.278,0,0,0,.373.741,1.268,1.268,0,0,0,.919.388,1.257,1.257,0,0,0,.919-.388l.01-.01.015-.021.015-.016.01-.015.878,1.256a3.058,3.058,0,0,1-.766.465,2.944,2.944,0,0,1-1.083.2,2.871,2.871,0,0,1-1.415-.363,2.78,2.78,0,0,1-1.057-1.006,2.654,2.654,0,0,1-.4-1.435,2.63,2.63,0,0,1,.23-1.1,2.753,2.753,0,0,1,.633-.889,2.8,2.8,0,0,1,.919-.587,2.979,2.979,0,0,1,1.087-.2,2.941,2.941,0,0,1,1.083.2,2.836,2.836,0,0,1,.924.582A2.667,2.667,0,0,1-1410.309,1461.138Zm-2.64-.2a1.27,1.27,0,0,0-.643.173,1.512,1.512,0,0,0-.357.317h2a1.516,1.516,0,0,0-.357-.317A1.271,1.271,0,0,0-1412.949,1460.934Z" transform="translate(1561.597 -1457.334)" fill="#fff"/>
      </g>
    </g>
  </g>
</svg>
