<svg id="Group_877" data-name="Group 877" xmlns="http://www.w3.org/2000/svg" width="59.213" height="59.213" viewBox="0 0 59.213 59.213">
  <path id="Path_45" data-name="Path 45" d="M29.607,0A29.607,29.607,0,1,0,59.213,29.607,29.606,29.606,0,0,0,29.607,0Zm0,54.587a24.981,24.981,0,1,1,24.98-24.981A24.98,24.98,0,0,1,29.607,54.587Z" fill="#fff"/>
  <g id="icon" transform="translate(16.695 16.695)">
    <path id="Path_49" data-name="Path 49" d="M20,6.986a1,1,0,0,1-1-1V4a1,1,0,0,1,1-1h1.993a1,1,0,0,1,1,1V5.989a1,1,0,0,1-1,1Z" transform="translate(-0.068 -0.011)" fill="#fff"/>
    <path id="Path_50" data-name="Path 50" d="M12.986,9.188a3.774,3.774,0,0,0-1.966.561,1.881,1.881,0,0,1,.562-.093,1.927,1.927,0,1,1-1.926,1.927,1.9,1.9,0,0,1,.094-.563,3.756,3.756,0,0,0-.562,1.966,3.8,3.8,0,1,0,3.8-3.8Z" transform="translate(-0.033 -0.033)" fill="#fff"/>
    <g id="Group_65" data-name="Group 65" transform="translate(4.982 4.982)">
      <path id="Path_51" data-name="Path 51" d="M12.971,6.993a5.978,5.978,0,1,1-5.978,5.978,5.979,5.979,0,0,1,5.978-5.978m0-1.993a7.971,7.971,0,1,0,7.971,7.971A7.981,7.981,0,0,0,12.971,5Z" transform="translate(-5 -5)" fill="#fff"/>
    </g>
    <path id="Path_52" data-name="Path 52" d="M21.049,0H4.857A4.857,4.857,0,0,0,0,4.857V21.049a4.857,4.857,0,0,0,4.857,4.857H21.049a4.857,4.857,0,0,0,4.857-4.857V4.857A4.857,4.857,0,0,0,21.049,0Zm2.865,8.968H17.4a5.978,5.978,0,1,1-8.894,0H1.993V4.857A2.868,2.868,0,0,1,4.857,1.993H21.049a2.868,2.868,0,0,1,2.865,2.865Z" fill="#fff"/>
  </g>
</svg>
