<svg xmlns="http://www.w3.org/2000/svg" width="59.213" height="59.213" viewBox="0 0 59.213 59.213">
  <g id="Group_65401" data-name="Group 65401" transform="translate(-10938.075 -9101.199)">
    <g id="Group_65399" data-name="Group 65399" transform="translate(10938.075 9101.199)">
      <path id="Path_45" data-name="Path 45" d="M29.607,0A29.607,29.607,0,1,0,59.213,29.607,29.606,29.606,0,0,0,29.607,0Zm0,54.587a24.981,24.981,0,1,1,24.98-24.981A24.98,24.98,0,0,1,29.607,54.587Z" fill="#fff"/>
    </g>
    <g id="Group_65400" data-name="Group 65400" transform="translate(10954.308 9117.918)">
      <path id="Forma_1_copy" data-name="Forma 1 copy" d="M3231.377,187.773v9.959h-5.736v-9.3c0-2.337-.827-3.925-2.9-3.925a3.145,3.145,0,0,0-2.942,2.11,4.042,4.042,0,0,0-.2,1.411v9.7h-5.73s.078-15.737,0-17.368h5.731v2.463c-.008.02-.024.037-.032.06h.032v-.06a5.692,5.692,0,0,1,5.168-2.87C3228.551,179.953,3231.377,182.436,3231.377,187.773Zm-23.5-15.787a3.01,3.01,0,1,0-.073,6.007h.034a3.011,3.011,0,1,0,.039-6.007Zm-2.9,25.746h5.732V180.359h-5.732Z" transform="translate(-3204.627 -171.986)" fill="#fff"/>
    </g>
  </g>
</svg>
