<svg id="White_Google_play" data-name="White Google play" xmlns="http://www.w3.org/2000/svg" xmlns:xlink="http://www.w3.org/1999/xlink" width="209.496" height="66.368" viewBox="0 0 209.496 66.368">
  <defs>
    <linearGradient id="linear-gradient" x1="1.625" y1="-4.143" x2="0.33" y2="-3.468" gradientUnits="objectBoundingBox">
      <stop offset="0" stop-color="#00a0ff"/>
      <stop offset="0.007" stop-color="#00a1ff"/>
      <stop offset="0.26" stop-color="#00beff"/>
      <stop offset="0.512" stop-color="#00d2ff"/>
      <stop offset="0.76" stop-color="#00dfff"/>
      <stop offset="1" stop-color="#00e3ff"/>
    </linearGradient>
    <linearGradient id="linear-gradient-2" x1="1.977" y1="-11.775" x2="-0.399" y2="-11.775" gradientUnits="objectBoundingBox">
      <stop offset="0" stop-color="#ffe000"/>
      <stop offset="0.409" stop-color="#ffbd00"/>
      <stop offset="0.775" stop-color="orange"/>
      <stop offset="1" stop-color="#ff9c00"/>
    </linearGradient>
    <linearGradient id="linear-gradient-3" x1="0.913" y1="-8.638" x2="-0.447" y2="-6.852" gradientUnits="objectBoundingBox">
      <stop offset="0" stop-color="#ff3a44"/>
      <stop offset="1" stop-color="#c31162"/>
    </linearGradient>
    <linearGradient id="linear-gradient-4" x1="-0.134" y1="-8.068" x2="0.473" y2="-7.27" gradientUnits="objectBoundingBox">
      <stop offset="0" stop-color="#32a071"/>
      <stop offset="0.068" stop-color="#2da771"/>
      <stop offset="0.476" stop-color="#15cf74"/>
      <stop offset="0.801" stop-color="#06e775"/>
      <stop offset="1" stop-color="#00f076"/>
    </linearGradient>
  </defs>
  <g id="Group_89009" data-name="Group 89009" transform="translate(-102 -493)">
    <g id="Group_89008" data-name="Group 89008" transform="translate(7563 -3815)">
      <g id="Group_89006" data-name="Group 89006" transform="translate(-7461 4308)">
        <g id="Group_89005" data-name="Group 89005">
          <rect id="Rectangle_51980" data-name="Rectangle 51980" width="209.497" height="66.368" rx="9" transform="translate(0)" fill="#fff"/>
        </g>
      </g>
      <g id="Group_89007" data-name="Group 89007" transform="translate(-7429.636 4324.244)">
        <g id="g18" transform="translate(39.53 0)">
          <path id="path20" d="M-66.064-12.92A3.377,3.377,0,0,1-67-10.426,3.706,3.706,0,0,1-69.78-9.321a3.846,3.846,0,0,1-2.778-1.118A3.751,3.751,0,0,1-73.7-13.224,3.724,3.724,0,0,1-72.558-16a3.823,3.823,0,0,1,2.778-1.126,3.994,3.994,0,0,1,1.552.317,3.06,3.06,0,0,1,1.18.832l-.657.657A2.581,2.581,0,0,0-69.78-16.2a2.908,2.908,0,0,0-2.066.826,2.853,2.853,0,0,0-.867,2.153,2.867,2.867,0,0,0,.867,2.159,2.935,2.935,0,0,0,2.066.826,2.89,2.89,0,0,0,2.11-.832,2.326,2.326,0,0,0,.633-1.514H-69.78v-.9h3.659A2.539,2.539,0,0,1-66.064-12.92Z" transform="translate(73.703 17.127)" fill="#532280" stroke="#fff" stroke-miterlimit="10" stroke-width="0.16"/>
        </g>
        <g id="g22" transform="translate(48.565 0.171)">
          <path id="path24" d="M-62.1-16.074H-65.54v2.365h3.1v.9h-3.1v2.365H-62.1v.917h-4.41v-7.465h4.41Z" transform="translate(66.513 16.991)" fill="#532280" stroke="#fff" stroke-miterlimit="10" stroke-width="0.16"/>
        </g>
        <g id="g26" transform="translate(53.99 0.171)">
          <path id="path28" d="M-59.115-9.526h-.973v-6.547H-62.2v-.917H-57v.917h-2.11Z" transform="translate(62.196 16.991)" fill="#532280" stroke="#fff" stroke-miterlimit="10" stroke-width="0.16"/>
        </g>
        <g id="g30" transform="translate(62.939 0.171)">
          <path id="path32" d="M-55.075-9.526v-7.465h.971v7.465Z" transform="translate(55.075 16.991)" fill="#532280" stroke="#fff" stroke-miterlimit="10" stroke-width="0.16"/>
        </g>
        <g id="g34" transform="translate(65.136 0.171)">
          <path id="path36" d="M-50.246-9.526h-.965v-6.547h-2.116v-.917h5.2v.917h-2.116Z" transform="translate(53.327 16.991)" fill="#532280" stroke="#fff" stroke-miterlimit="10" stroke-width="0.16"/>
        </g>
        <g id="g38" transform="translate(73.506 0)">
          <path id="path40" d="M-40.011-10.452a3.734,3.734,0,0,1-2.767,1.131,3.739,3.739,0,0,1-2.775-1.131,3.793,3.793,0,0,1-1.113-2.772,3.79,3.79,0,0,1,1.113-2.771,3.735,3.735,0,0,1,2.775-1.132,3.711,3.711,0,0,1,2.761,1.137,3.78,3.78,0,0,1,1.12,2.766A3.793,3.793,0,0,1-40.011-10.452Zm-4.823-.626a2.8,2.8,0,0,0,2.056.838,2.784,2.784,0,0,0,2.048-.838,2.912,2.912,0,0,0,.842-2.146,2.912,2.912,0,0,0-.842-2.146,2.784,2.784,0,0,0-2.048-.838,2.8,2.8,0,0,0-2.056.838,2.917,2.917,0,0,0-.842,2.146A2.917,2.917,0,0,0-44.834-11.077Z" transform="translate(46.666 17.127)" fill="#532280" stroke="#fff" stroke-miterlimit="10" stroke-width="0.16"/>
        </g>
        <g id="g42" transform="translate(82.641 0.171)">
          <path id="path44" d="M-39.4-9.526v-7.465h1.18l3.672,5.806h.043l-.043-1.435v-4.371h.971v7.465h-1.014l-3.844-6.091h-.043l.043,1.44v4.651Z" transform="translate(39.397 16.991)" fill="#532280" stroke="#fff" stroke-miterlimit="10" stroke-width="0.16"/>
        </g>
        <path id="path46" d="M-39.886-1.18a5.251,5.251,0,0,0-5.375,5.3A5.264,5.264,0,0,0-39.886,9.41,5.266,5.266,0,0,0-34.5,4.115,5.253,5.253,0,0,0-39.886-1.18Zm0,8.505a3.077,3.077,0,0,1-3.02-3.21A3.063,3.063,0,0,1-39.886.9a3.068,3.068,0,0,1,3.027,3.211A3.083,3.083,0,0,1-39.886,7.325ZM-51.615-1.18a5.248,5.248,0,0,0-5.376,5.3A5.262,5.262,0,0,0-51.615,9.41a5.262,5.262,0,0,0,5.376-5.294A5.249,5.249,0,0,0-51.615-1.18Zm0,8.505a3.081,3.081,0,0,1-3.026-3.21A3.067,3.067,0,0,1-51.615.9a3.062,3.062,0,0,1,3.02,3.211A3.077,3.077,0,0,1-51.615,7.325ZM-65.572.442V2.693h5.438a4.648,4.648,0,0,1-1.237,2.826,5.619,5.619,0,0,1-4.2,1.642,5.935,5.935,0,0,1-5.965-5.977,5.934,5.934,0,0,1,5.965-5.975,5.807,5.807,0,0,1,4.1,1.6l1.6-1.586a7.986,7.986,0,0,0-5.7-2.267,8.389,8.389,0,0,0-8.444,8.225A8.389,8.389,0,0,0-65.572,9.41,7.65,7.65,0,0,0-59.765,7.1,7.364,7.364,0,0,0-57.8,1.848,7.42,7.42,0,0,0-57.919.442ZM-8.5,2.188A4.962,4.962,0,0,0-13.088-1.18a5.058,5.058,0,0,0-5.049,5.3A5.211,5.211,0,0,0-12.823,9.41,5.327,5.327,0,0,0-8.358,7.064l-1.826-1.2a3.072,3.072,0,0,1-2.639,1.465,2.727,2.727,0,0,1-2.6-1.6L-8.252,2.79Zm-7.306,1.763a2.922,2.922,0,0,1,2.8-3.088,2.085,2.085,0,0,1,1.993,1.123Zm-5.823,5.137h2.355V-6.474h-2.355ZM-25.487,0h-.079A3.735,3.735,0,0,0-28.383-1.18,5.294,5.294,0,0,0-33.52,4.133,5.274,5.274,0,0,0-28.383,9.41a3.675,3.675,0,0,0,2.816-1.2h.079v.759c0,2.024-1.095,3.113-2.86,3.113a2.969,2.969,0,0,1-2.7-1.891l-2.05.846a5.111,5.111,0,0,0,4.749,3.13c2.762,0,5.093-1.606,5.093-5.513V-.858h-2.233Zm-2.694,7.326a3.054,3.054,0,0,1-2.982-3.192A3.076,3.076,0,0,1-28.182.9,3,3,0,0,1-25.32,4.133,2.975,2.975,0,0,1-28.182,7.325Zm30.71-13.8H-3.1V9.088h2.35v-5.9H2.529A4.966,4.966,0,0,0,7.7-1.643,4.969,4.969,0,0,0,2.529-6.474Zm.062,7.5H-.755V-4.311H2.59A2.716,2.716,0,0,1,5.346-1.643,2.732,2.732,0,0,1,2.59,1.027ZM17.113-1.21a4.415,4.415,0,0,0-4.187,2.383l2.084.863A2.233,2.233,0,0,1,17.155.892a2.258,2.258,0,0,1,2.474,2v.163a5.22,5.22,0,0,0-2.456-.6c-2.244,0-4.533,1.221-4.533,3.5,0,2.086,1.839,3.428,3.907,3.428a3.335,3.335,0,0,0,3-1.524h.08v1.2H21.9V3.093C21.9.334,19.813-1.21,17.113-1.21ZM16.83,7.319c-.769,0-1.84-.377-1.84-1.318,0-1.205,1.336-1.668,2.492-1.668a4.262,4.262,0,0,1,2.148.523A2.841,2.841,0,0,1,16.83,7.319ZM30.166-.87l-2.7,6.747h-.08L24.592-.87H22.059l4.195,9.429L23.861,13.8h2.454L32.778-.87ZM8.988,9.088h2.356V-6.474H8.988Z" transform="translate(113.152 19.716)" fill="#532280"/>
        <g id="g48" transform="translate(0 0.749)">
          <path id="path64" d="M-104.576-16.441a2.461,2.461,0,0,0-.583,1.751V12.844a2.463,2.463,0,0,0,.583,1.751l.092.084L-88.874-.745v-.363l-15.61-15.423Z" transform="translate(105.159 16.531)" fill="url(#linear-gradient)"/>
        </g>
        <g id="g66" transform="translate(16.285 11.029)">
          <path id="path78" d="M-87,2.3l-5.2-5.144v-.363L-87-8.351l.117.067,6.163,3.466c1.759.983,1.759,2.6,0,3.592l-6.163,3.46Z" transform="translate(92.2 8.351)" fill="url(#linear-gradient-2)"/>
        </g>
        <g id="g80" transform="translate(0.583 16.353)">
          <path id="path88" d="M-83.672,1.145l-5.321-5.259-15.7,15.521a2.07,2.07,0,0,0,2.62.073l18.4-10.335" transform="translate(104.695 4.114)" fill="url(#linear-gradient-3)"/>
        </g>
        <g id="g90" transform="translate(0.583 0.345)">
          <path id="path104" d="M-83.672-6.1l-18.4-10.335a2.078,2.078,0,0,0-2.62.079l15.7,15.514Z" transform="translate(104.695 16.852)" fill="url(#linear-gradient-4)"/>
        </g>
      </g>
    </g>
  </g>
</svg>
