<svg xmlns="http://www.w3.org/2000/svg" width="32.88" height="24.069" viewBox="0 0 32.88 24.069">
  <g id="Group_893" data-name="Group 893" transform="translate(0)">
    <g id="Group_235" data-name="Group 235" transform="translate(0 0)">
      <path id="Path_908" data-name="Path 908" d="M33.774,17.058H9.106A4.11,4.11,0,0,0,5,21.163V37.021a4.111,4.111,0,0,0,4.106,4.106H33.774a4.111,4.111,0,0,0,4.106-4.106V21.163A4.11,4.11,0,0,0,33.774,17.058ZM9.106,18.221H33.774a2.94,2.94,0,0,1,2.481,1.366L23.6,31.536a3.192,3.192,0,0,1-4.326,0L6.625,19.587A2.941,2.941,0,0,1,9.106,18.221ZM6.191,37.408a2.994,2.994,0,0,1-.028-.387V21.163a2.934,2.934,0,0,1,.028-.386L15,29.093Zm27.583,2.556H9.106A2.94,2.94,0,0,1,6.625,38.6l9.218-8.706,2.636,2.489a4.367,4.367,0,0,0,5.922,0l2.636-2.489L36.254,38.6A2.939,2.939,0,0,1,33.774,39.964Zm2.942-18.8V37.021a2.988,2.988,0,0,1-.028.387l-8.8-8.315,8.8-8.315A3.052,3.052,0,0,1,36.717,21.163Z" transform="translate(-5 -17.058)" fill="#fff"/>
    </g>
  </g>
</svg>
