<svg id="Group_85923" data-name="Group 85923" xmlns="http://www.w3.org/2000/svg" width="36.421" height="28.4" viewBox="0 0 36.421 28.4">
  <circle id="Ellipse_81" data-name="Ellipse 81" cx="3.432" cy="3.432" r="3.432" transform="translate(14.779)" fill="#fff"/>
  <path id="Path_209" data-name="Path 209" d="M131.286,1302.556a3.034,3.034,0,0,1-6.067,0c0-.018,0-.035,0-.051v-.016a.322.322,0,0,1,0-.033c0-.02,0-.038,0-.055,0-.043,0-.085.009-.126s.007-.07.012-.106a.509.509,0,0,1,.006-.051l.013-.085c0-.018.006-.038.011-.056a.878.878,0,0,1,.024-.106c0-.024.011-.049.016-.073a.122.122,0,0,1,.006-.019c.012-.048.025-.1.04-.144,0-.006,0-.013.008-.019.013-.043.028-.085.045-.127a.615.615,0,0,1,.027-.068c.012-.031.025-.063.04-.095s.019-.045.03-.067a2.722,2.722,0,0,1,.178-.322c.025-.042.053-.082.081-.121a.075.075,0,0,1,.014-.02c.031-.045.064-.088.1-.13a.008.008,0,0,1,0-.006c.035-.043.069-.084.106-.126a.585.585,0,0,1,.042-.043v0l0,0v0c.024-.025.046-.048.07-.072.039-.039.079-.078.121-.115s.081-.07.122-.1a.047.047,0,0,1,.013-.01c.04-.033.082-.064.124-.095s.082-.058.125-.085a.081.081,0,0,1,.021-.013c.042-.027.085-.052.13-.078a2.878,2.878,0,0,1,.518-.231c.032-.012.063-.022.1-.031s.087-.026.132-.036.069-.018.1-.024l.067-.015.073-.013c.048-.007.1-.015.145-.02s.078-.009.117-.01.054,0,.082-.006c.051,0,.1,0,.155,0s.105,0,.156,0c.029,0,.056,0,.082.006s.078.006.117.01.1.012.145.02l.073.013.067.015c.035.006.069.015.1.024s.089.022.132.036.064.02.1.031a2.89,2.89,0,0,1,.539.243c.033.018.066.037.1.058.057.035.114.074.167.113s.082.06.121.092.071.057.1.086a3.019,3.019,0,0,1,.217.213h0a2.828,2.828,0,0,1,.269.334c.03.042.058.084.085.129a2.765,2.765,0,0,1,.171.311l.027.059c.018.04.036.081.051.123a.154.154,0,0,1,.011.024c.019.051.039.1.055.156l0,.013c.016.054.033.108.046.163,0,.018.009.036.012.054a1.3,1.3,0,0,1,.03.135.3.3,0,0,1,.006.032l.018.108,0,.036c0,.037.009.076.012.114s.007.082.009.126c0,.018,0,.036,0,.055a.318.318,0,0,1,0,.033v.016C131.286,1302.521,131.286,1302.538,131.286,1302.556Z" transform="translate(-110.042 -1277.189)" fill="#fff"/>
  <g id="Group_102" data-name="Group 102" transform="translate(4.222 3.593)">
    <circle id="Ellipse_82" data-name="Ellipse 82" cx="3.369" cy="3.369" r="3.369" transform="translate(0 11.567)" fill="#fff"/>
    <circle id="Ellipse_83" data-name="Ellipse 83" cx="3.369" cy="3.369" r="3.369" transform="translate(0 11.567)" fill="#fff"/>
    <path id="Path_210" data-name="Path 210" d="M121.316,1262.01a6.2,6.2,0,0,1-.556-.587C120.954,1261.61,121.141,1261.806,121.316,1262.01Z" transform="translate(-111.554 -1257.623)" fill="#fff"/>
    <circle id="Ellipse_84" data-name="Ellipse 84" cx="3.369" cy="3.369" r="3.369" transform="translate(0 11.567)" fill="#fff"/>
    <path id="Path_211" data-name="Path 211" d="M98.8,1251.732" transform="translate(-98.204 -1251.732)" fill="#fff"/>
    <path id="Path_212" data-name="Path 212" d="M119.795,1260.7l-.865-.84C119.215,1260.12,119.5,1260.4,119.795,1260.7Z" transform="translate(-110.442 -1256.673)" fill="#fff"/>
  </g>
  <circle id="Ellipse_85" data-name="Ellipse 85" cx="3.369" cy="3.369" r="3.369" transform="translate(25.46 15.16)" fill="#fff"/>
  <path id="Path_213" data-name="Path 213" d="M122.936,1256.415a4.823,4.823,0,0,1-1.048,3c-.084.091-.165.182-.242.279a4.478,4.478,0,0,1-2.234,1.363,5.219,5.219,0,0,1-2.676-.029,7.82,7.82,0,0,0-5.5.775,8.362,8.362,0,0,0-2.869,2.536,4.686,4.686,0,0,0-.669,1.142c-.086.263-.089.542-.179.806a3.02,3.02,0,0,1-.416.8,2.951,2.951,0,0,1-5.169-.788c-.1-.295-.093-.619-.22-.9a7.9,7.9,0,0,0-2.484-2.954,8.274,8.274,0,0,0-3.484-1.494,8.388,8.388,0,0,0-1.948-.107c-.763.046-1.483.347-2.249.38a4.872,4.872,0,0,1-2.112-.382,4.741,4.741,0,0,1-.892-.5,5.1,5.1,0,0,1-.742-.652c-.085-.09-.166-.182-.242-.279a4.822,4.822,0,0,1-1.048-3,4.816,4.816,0,0,1,4.816-4.816h.023s3.7-.542,7.853,3.206l.019.017.865.84c-.291-.3-.579-.58-.865-.84a7.93,7.93,0,0,1,.708.6l.009.011a6.419,6.419,0,0,0,.558.59,6.222,6.222,0,0,0,9.009-.594l.006-.008a8.114,8.114,0,0,1,.718-.61l.009-.008c4.155-3.748,7.853-3.206,7.853-3.206h.023A4.816,4.816,0,0,1,122.936,1256.415Z" transform="translate(-86.515 -1248.042)" fill="#fff"/>
</svg>
