<svg id="Blue_app_store" data-name="Blue app store" xmlns="http://www.w3.org/2000/svg" width="209.496" height="66.368" viewBox="0 0 209.496 66.368">
  <g id="Group_68571" data-name="Group 68571">
    <rect id="Rectangle_41266" data-name="Rectangle 41266" width="209.497" height="66.368" rx="9" transform="translate(0)" fill="#532280"/>
  </g>
  <g id="Group_79244" data-name="Group 79244" transform="translate(35.641 15.683)">
    <g id="Group_1110" data-name="Group 1110" transform="translate(0 0)">
      <g id="Group_1109" data-name="Group 1109">
        <path id="Path_3477" data-name="Path 3477" d="M-117.3,9.232a7.285,7.285,0,0,1,3.47-6.112,7.461,7.461,0,0,0-5.876-3.177c-2.472-.26-4.87,1.479-6.129,1.479-1.284,0-3.223-1.454-5.313-1.411a7.823,7.823,0,0,0-6.585,4.016c-2.848,4.93-.724,12.175,2,16.159,1.365,1.952,2.959,4.131,5.047,4.054,2.042-.084,2.8-1.3,5.269-1.3,2.442,0,3.158,1.3,5.287,1.253,2.192-.035,3.571-1.96,4.888-3.93A16.125,16.125,0,0,0-113,15.709,7.042,7.042,0,0,1-117.3,9.232Z" transform="translate(139.087 7.818)" fill="#fff"/>
        <path id="Path_3478" data-name="Path 3478" d="M-123.97-1.1a7.17,7.17,0,0,0,1.641-5.139A7.3,7.3,0,0,0-127.051-3.8a6.824,6.824,0,0,0-1.684,4.949A6.033,6.033,0,0,0-123.97-1.1Z" transform="translate(141.734 6.238)" fill="#fff"/>
      </g>
    </g>
    <g id="Group_1111" data-name="Group 1111" transform="translate(37.22 14.809)">
      <path id="Path_3479" data-name="Path 3479" d="M-95.35,22.465H-98.2l-1.563-4.912H-105.2l-1.489,4.912h-2.778l5.384-16.724h3.325Zm-4.888-6.973-1.414-4.367q-.224-.669-.843-3.15h-.05q-.247,1.067-.794,3.15l-1.389,4.367Z" transform="translate(109.469 -5.496)" fill="#fff"/>
      <path id="Path_3480" data-name="Path 3480" d="M-84.845,15.385a6.853,6.853,0,0,1-1.663,4.862,4.861,4.861,0,0,1-3.7,1.588,3.7,3.7,0,0,1-3.424-1.712h-.05v6.352h-2.679v-13q0-1.934-.1-3.97H-94.1l.15,1.911h.05a4.463,4.463,0,0,1,4.069-2.159,4.473,4.473,0,0,1,3.56,1.686A6.644,6.644,0,0,1-84.845,15.385Zm-2.729.1a4.965,4.965,0,0,0-.794-2.9A2.743,2.743,0,0,0-90.7,11.389a2.786,2.786,0,0,0-1.8.657,3.048,3.048,0,0,0-1.054,1.725,3.508,3.508,0,0,0-.124.817V16.6a3.222,3.222,0,0,0,.807,2.222,2.674,2.674,0,0,0,2.1.906,2.743,2.743,0,0,0,2.356-1.166A5.133,5.133,0,0,0-87.575,15.483Z" transform="translate(112.809 -4.594)" fill="#fff"/>
      <path id="Path_3481" data-name="Path 3481" d="M-73.808,15.385a6.848,6.848,0,0,1-1.664,4.862,4.857,4.857,0,0,1-3.7,1.588,3.694,3.694,0,0,1-3.423-1.712h-.05v6.352h-2.679v-13q0-1.934-.1-3.97h2.356l.15,1.911h.05a4.461,4.461,0,0,1,4.069-2.159,4.48,4.48,0,0,1,3.561,1.686A6.663,6.663,0,0,1-73.808,15.385Zm-2.729.1a4.965,4.965,0,0,0-.8-2.9,2.739,2.739,0,0,0-2.331-1.191,2.789,2.789,0,0,0-1.8.657,3.047,3.047,0,0,0-1.053,1.725,3.576,3.576,0,0,0-.124.817V16.6a3.232,3.232,0,0,0,.8,2.222,2.68,2.68,0,0,0,2.1.906,2.743,2.743,0,0,0,2.356-1.166A5.133,5.133,0,0,0-76.538,15.483Z" transform="translate(115.642 -4.594)" fill="#fff"/>
      <path id="Path_3482" data-name="Path 3482" d="M-61.721,17.825A4.457,4.457,0,0,1-63.206,21.3a6.583,6.583,0,0,1-4.555,1.464A7.974,7.974,0,0,1-72.1,21.721l.621-2.233A7.344,7.344,0,0,0-67.6,20.556a3.662,3.662,0,0,0,2.359-.684,2.232,2.232,0,0,0,.842-1.827,2.329,2.329,0,0,0-.695-1.714A6.46,6.46,0,0,0-67.4,15.038q-4.392-1.638-4.391-4.8a4.243,4.243,0,0,1,1.539-3.379,6.069,6.069,0,0,1,4.094-1.317,8.117,8.117,0,0,1,3.8.794l-.67,2.184a6.585,6.585,0,0,0-3.2-.769,3.24,3.24,0,0,0-2.207.695,1.986,1.986,0,0,0-.67,1.514,2.044,2.044,0,0,0,.768,1.637,8.678,8.678,0,0,0,2.433,1.291,8.254,8.254,0,0,1,3.176,2.033A4.248,4.248,0,0,1-61.721,17.825Z" transform="translate(119.061 -5.546)" fill="#fff"/>
      <path id="Path_3483" data-name="Path 3483" d="M-55.291,12.077h-2.953v5.855q0,2.234,1.563,2.233a4.765,4.765,0,0,0,1.19-.124l.074,2.035a6.07,6.07,0,0,1-2.084.3,3.215,3.215,0,0,1-2.482-.968,4.753,4.753,0,0,1-.893-3.251V12.075h-1.759V10.064h1.759V7.856l2.631-.794v3h2.953Z" transform="translate(121.49 -5.157)" fill="#fff"/>
      <path id="Path_3484" data-name="Path 3484" d="M-43.776,15.434A6.615,6.615,0,0,1-45.364,20a5.671,5.671,0,0,1-4.418,1.836,5.392,5.392,0,0,1-4.229-1.761,6.412,6.412,0,0,1-1.576-4.441,6.55,6.55,0,0,1,1.625-4.589,5.623,5.623,0,0,1,4.378-1.787,5.507,5.507,0,0,1,4.268,1.762A6.339,6.339,0,0,1-43.776,15.434Zm-2.78.087a5.424,5.424,0,0,0-.719-2.861,2.646,2.646,0,0,0-2.405-1.443,2.687,2.687,0,0,0-2.457,1.443,5.528,5.528,0,0,0-.719,2.912,5.416,5.416,0,0,0,.719,2.86A2.7,2.7,0,0,0-49.7,19.873,2.681,2.681,0,0,0-47.3,18.406,5.444,5.444,0,0,0-46.555,15.52Z" transform="translate(123.299 -4.594)" fill="#fff"/>
      <path id="Path_3485" data-name="Path 3485" d="M-37.94,11.86a4.652,4.652,0,0,0-.844-.074,2.531,2.531,0,0,0-2.184,1.068,4.015,4.015,0,0,0-.67,2.381v6.327h-2.678l.025-8.261q0-2.085-.1-3.8h2.334l.1,2.307h.074a4.124,4.124,0,0,1,1.34-1.91,3.239,3.239,0,0,1,1.937-.646,4.3,4.3,0,0,1,.67.049Z" transform="translate(126.172 -4.594)" fill="#fff"/>
      <path id="Path_3486" data-name="Path 3486" d="M-27.534,14.967a6.284,6.284,0,0,1-.1,1.215H-35.67A3.5,3.5,0,0,0-34.5,18.913a3.981,3.981,0,0,0,2.629.843,8.89,8.89,0,0,0,3.252-.571l.42,1.86a10.055,10.055,0,0,1-4.043.745,5.856,5.856,0,0,1-4.406-1.65,6.094,6.094,0,0,1-1.6-4.428,6.909,6.909,0,0,1,1.49-4.54,5.135,5.135,0,0,1,4.216-1.934A4.494,4.494,0,0,1-28.6,11.172,6.522,6.522,0,0,1-27.534,14.967Zm-2.555-.695a3.64,3.64,0,0,0-.52-2.06A2.34,2.34,0,0,0-32.744,11.1a2.542,2.542,0,0,0-2.133,1.092,4,4,0,0,0-.793,2.084h5.581Z" transform="translate(127.748 -4.598)" fill="#fff"/>
    </g>
    <g id="Group_1113" data-name="Group 1113" transform="translate(38.811 0.426)">
      <g id="Group_1112" data-name="Group 1112">
        <path id="Path_3487" data-name="Path 3487" d="M-101.45-1.634a4.125,4.125,0,0,1-1.33,3.34,5.288,5.288,0,0,1-3.5,1.035,16.215,16.215,0,0,1-1.926-.1V-5.438a14.216,14.216,0,0,1,2.268-.171,4.89,4.89,0,0,1,3.255.939A3.794,3.794,0,0,1-101.45-1.634Zm-1.389.036A3,3,0,0,0-103.6-3.8a3,3,0,0,0-2.226-.768,5.574,5.574,0,0,0-1.061.085V1.657a6.953,6.953,0,0,0,.89.036,3.115,3.115,0,0,0,2.334-.841A3.367,3.367,0,0,0-102.838-1.6Z" transform="translate(108.203 5.973)" fill="#fff"/>
        <path id="Path_3488" data-name="Path 3488" d="M-95.785-.8a3.249,3.249,0,0,1-.78,2.243,2.785,2.785,0,0,1-2.17.9,2.647,2.647,0,0,1-2.079-.866A3.153,3.153,0,0,1-101.587-.7a3.218,3.218,0,0,1,.8-2.254,2.768,2.768,0,0,1,2.151-.877,2.709,2.709,0,0,1,2.1.865A3.128,3.128,0,0,1-95.785-.8Zm-1.366.043A2.679,2.679,0,0,0-97.5-2.162a1.3,1.3,0,0,0-1.181-.709,1.321,1.321,0,0,0-1.208.709,2.715,2.715,0,0,0-.353,1.43A2.679,2.679,0,0,0-99.893.674a1.329,1.329,0,0,0,1.2.709A1.314,1.314,0,0,0-97.517.662,2.662,2.662,0,0,0-97.151-.756Z" transform="translate(109.901 6.43)" fill="#fff"/>
        <path id="Path_3489" data-name="Path 3489" d="M-87.361-3.736l-1.854,5.924h-1.206l-.768-2.572A19.254,19.254,0,0,1-91.665-2.3h-.024a14.019,14.019,0,0,1-.476,1.914l-.816,2.572H-94.2l-1.743-5.924h1.353l.67,2.816q.243,1,.4,1.9h.024q.147-.743.489-1.889l.841-2.828h1.073l.806,2.767q.292,1.012.475,1.95h.036a18.636,18.636,0,0,1,.4-1.95l.719-2.767h1.293Z" transform="translate(111.35 6.454)" fill="#fff"/>
        <path id="Path_3490" data-name="Path 3490" d="M-82.62,2.213h-1.317V-1.18q0-1.568-1.194-1.568a1.188,1.188,0,0,0-.951.431A1.53,1.53,0,0,0-86.448-1.3V2.212h-1.317v-4.23q0-.78-.048-1.7h1.157l.062.926h.036a1.9,1.9,0,0,1,.682-.715,2.226,2.226,0,0,1,1.194-.333A1.891,1.891,0,0,1-83.3-3.3a2.607,2.607,0,0,1,.682,1.963Z" transform="translate(113.436 6.429)" fill="#fff"/>
        <path id="Path_3491" data-name="Path 3491" d="M-80.522,2.743h-1.316V-5.9h1.316Z" transform="translate(114.97 5.899)" fill="#fff"/>
        <path id="Path_3492" data-name="Path 3492" d="M-73.436-.8a3.249,3.249,0,0,1-.78,2.243,2.787,2.787,0,0,1-2.17.9,2.644,2.644,0,0,1-2.079-.866A3.153,3.153,0,0,1-79.238-.7a3.218,3.218,0,0,1,.8-2.254,2.767,2.767,0,0,1,2.15-.877,2.712,2.712,0,0,1,2.1.865A3.128,3.128,0,0,1-73.436-.8ZM-74.8-.756a2.679,2.679,0,0,0-.353-1.406,1.3,1.3,0,0,0-1.18-.709,1.318,1.318,0,0,0-1.208.709A2.715,2.715,0,0,0-77.9-.732,2.679,2.679,0,0,0-77.544.674a1.329,1.329,0,0,0,1.2.709,1.312,1.312,0,0,0,1.18-.721A2.651,2.651,0,0,0-74.8-.756Z" transform="translate(115.637 6.43)" fill="#fff"/>
        <path id="Path_3493" data-name="Path 3493" d="M-68.556,2.213h-1.183l-.1-.682h-.036a2.028,2.028,0,0,1-1.73.817,1.786,1.786,0,0,1-1.352-.537A1.683,1.683,0,0,1-73.419.6a1.84,1.84,0,0,1,.909-1.658,4.715,4.715,0,0,1,2.555-.56v-.111q0-1.171-1.23-1.17a2.755,2.755,0,0,0-1.544.439L-73-3.321a3.8,3.8,0,0,1,2.032-.511q2.322,0,2.325,2.451V.8A9.253,9.253,0,0,0-68.556,2.213ZM-69.923.177V-.737Q-72.1-.775-72.1.457a.892.892,0,0,0,.253.695.921.921,0,0,0,.643.231,1.33,1.33,0,0,0,.806-.274,1.122,1.122,0,0,0,.456-.7A1.115,1.115,0,0,0-69.923.177Z" transform="translate(117.131 6.43)" fill="#fff"/>
        <path id="Path_3494" data-name="Path 3494" d="M-62.439,2.743h-1.169l-.062-.951h-.036a1.969,1.969,0,0,1-1.9,1.086,2.23,2.23,0,0,1-1.779-.841,3.275,3.275,0,0,1-.706-2.182,3.435,3.435,0,0,1,.768-2.329A2.361,2.361,0,0,1-65.5-3.3a1.775,1.775,0,0,1,1.669.8h.025V-5.9h1.318V1.147Q-62.485,2.012-62.439,2.743ZM-63.8.245V-.743a1.939,1.939,0,0,0-.036-.415,1.5,1.5,0,0,0-.476-.8,1.294,1.294,0,0,0-.881-.323,1.351,1.351,0,0,0-1.159.586,2.51,2.51,0,0,0-.422,1.5,2.34,2.34,0,0,0,.4,1.426,1.356,1.356,0,0,0,1.151.584,1.269,1.269,0,0,0,1.041-.488A1.623,1.623,0,0,0-63.8.245Z" transform="translate(118.498 5.899)" fill="#fff"/>
        <path id="Path_3495" data-name="Path 3495" d="M-53.446-.8a3.249,3.249,0,0,1-.78,2.243,2.783,2.783,0,0,1-2.17.9,2.651,2.651,0,0,1-2.079-.866A3.153,3.153,0,0,1-59.248-.7a3.218,3.218,0,0,1,.8-2.254A2.769,2.769,0,0,1-56.3-3.832a2.707,2.707,0,0,1,2.1.865A3.128,3.128,0,0,1-53.446-.8Zm-1.365.043a2.679,2.679,0,0,0-.353-1.406,1.3,1.3,0,0,0-1.183-.709,1.324,1.324,0,0,0-1.208.709,2.715,2.715,0,0,0-.353,1.43A2.679,2.679,0,0,0-57.554.674a1.329,1.329,0,0,0,1.2.709A1.316,1.316,0,0,0-55.176.662,2.674,2.674,0,0,0-54.811-.756Z" transform="translate(120.768 6.43)" fill="#fff"/>
        <path id="Path_3496" data-name="Path 3496" d="M-47.936,2.213h-1.316V-1.18q0-1.568-1.2-1.568a1.184,1.184,0,0,0-.95.431A1.523,1.523,0,0,0-51.762-1.3V2.212h-1.318v-4.23q0-.78-.046-1.7h1.156l.062.926h.036A1.922,1.922,0,0,1-51.19-3.5,2.23,2.23,0,0,1-50-3.835a1.89,1.89,0,0,1,1.377.537,2.6,2.6,0,0,1,.682,1.963Z" transform="translate(122.339 6.429)" fill="#fff"/>
        <path id="Path_3497" data-name="Path 3497" d="M-41.206-2.448h-1.45V.43c0,.731.258,1.1.768,1.1a2.319,2.319,0,0,0,.587-.062l.034,1a2.959,2.959,0,0,1-1.023.147,1.574,1.574,0,0,1-1.218-.475,2.323,2.323,0,0,1-.44-1.6V-2.448h-.866v-.986h.866V-4.52l1.291-.39v1.474h1.45v.988Z" transform="translate(124.473 6.153)" fill="#fff"/>
        <path id="Path_3498" data-name="Path 3498" d="M-35.344,2.743h-1.318V-.625q0-1.593-1.193-1.593a1.257,1.257,0,0,0-1.257.924,1.655,1.655,0,0,0-.062.474V2.742h-1.316V-5.9h1.316v3.57h.025A1.991,1.991,0,0,1-37.369-3.3a1.835,1.835,0,0,1,1.355.537,2.7,2.7,0,0,1,.67,1.987Z" transform="translate(125.583 5.899)" fill="#fff"/>
        <path id="Path_3499" data-name="Path 3499" d="M-29.6-1.027a3.18,3.18,0,0,1-.049.6H-33.6A1.727,1.727,0,0,0-33.023.91a1.962,1.962,0,0,0,1.293.415,4.363,4.363,0,0,0,1.6-.28l.206.915a4.96,4.96,0,0,1-1.988.366,2.871,2.871,0,0,1-2.163-.811A2.986,2.986,0,0,1-34.863-.66a3.39,3.39,0,0,1,.731-2.231,2.519,2.519,0,0,1,2.071-.95,2.2,2.2,0,0,1,1.937.95A3.163,3.163,0,0,1-29.6-1.027Zm-1.257-.341a1.773,1.773,0,0,0-.255-1.012,1.15,1.15,0,0,0-1.048-.549,1.25,1.25,0,0,0-1.048.537A1.994,1.994,0,0,0-33.6-1.368Z" transform="translate(127.027 6.427)" fill="#fff"/>
      </g>
    </g>
  </g>
</svg>
