<svg xmlns="http://www.w3.org/2000/svg" xmlns:xlink="http://www.w3.org/1999/xlink" width="262" height="83" viewBox="0 0 262 83">
  <defs>
    <linearGradient id="linear-gradient" x1="1.625" y1="-4.143" x2="0.33" y2="-3.468" gradientUnits="objectBoundingBox">
      <stop offset="0" stop-color="#00a0ff"/>
      <stop offset="0.007" stop-color="#00a1ff"/>
      <stop offset="0.26" stop-color="#00beff"/>
      <stop offset="0.512" stop-color="#00d2ff"/>
      <stop offset="0.76" stop-color="#00dfff"/>
      <stop offset="1" stop-color="#00e3ff"/>
    </linearGradient>
    <linearGradient id="linear-gradient-2" x1="1.977" y1="-11.775" x2="-0.399" y2="-11.775" gradientUnits="objectBoundingBox">
      <stop offset="0" stop-color="#ffe000"/>
      <stop offset="0.409" stop-color="#ffbd00"/>
      <stop offset="0.775" stop-color="orange"/>
      <stop offset="1" stop-color="#ff9c00"/>
    </linearGradient>
    <linearGradient id="linear-gradient-3" x1="0.913" y1="-8.638" x2="-0.447" y2="-6.852" gradientUnits="objectBoundingBox">
      <stop offset="0" stop-color="#ff3a44"/>
      <stop offset="1" stop-color="#c31162"/>
    </linearGradient>
    <linearGradient id="linear-gradient-4" x1="-0.134" y1="-8.068" x2="0.473" y2="-7.27" gradientUnits="objectBoundingBox">
      <stop offset="0" stop-color="#32a071"/>
      <stop offset="0.068" stop-color="#2da771"/>
      <stop offset="0.476" stop-color="#15cf74"/>
      <stop offset="0.801" stop-color="#06e775"/>
      <stop offset="1" stop-color="#00f076"/>
    </linearGradient>
  </defs>
  <g id="Group_71106" data-name="Group 71106" transform="translate(-611 1078.749)">
    <g id="Group_71103" data-name="Group 71103" transform="translate(852 917.251)">
      <path id="Rectangle_41265" data-name="Rectangle 41265" d="M20,0H222a40,40,0,0,1,40,40V63a20,20,0,0,1-20,20H40A40,40,0,0,1,0,43V20A20,20,0,0,1,20,0Z" transform="translate(-241 -1996)" fill="#fff"/>
      <g id="Group_1108" data-name="Group 1108" transform="translate(-241.292 -1994.126)">
        <g id="g18" transform="translate(80.002 13.126)">
          <path id="path20" d="M-61.971-10.665a5.186,5.186,0,0,1-1.436,3.829,5.693,5.693,0,0,1-4.271,1.7,5.907,5.907,0,0,1-4.267-1.718A5.761,5.761,0,0,1-73.7-11.132,5.72,5.72,0,0,1-71.945-15.4a5.871,5.871,0,0,1,4.267-1.729,6.134,6.134,0,0,1,2.384.486,4.7,4.7,0,0,1,1.812,1.278l-1.009,1.009a3.963,3.963,0,0,0-3.186-1.353,4.467,4.467,0,0,0-3.173,1.268,4.382,4.382,0,0,0-1.332,3.306A4.4,4.4,0,0,0-70.85-7.817a4.508,4.508,0,0,0,3.173,1.268,4.438,4.438,0,0,0,3.24-1.278,3.572,3.572,0,0,0,.973-2.326h-4.213v-1.382h5.62A3.9,3.9,0,0,1-61.971-10.665Z" transform="translate(73.703 17.127)" stroke="#fff" stroke-miterlimit="10" stroke-width="0.16"/>
        </g>
        <g id="g22" transform="translate(93.879 13.388)">
          <path id="path24" d="M-59.741-15.582h-5.279v3.632h4.759v1.382h-4.759v3.632h5.279v1.409h-6.772V-16.991h6.772Z" transform="translate(66.513 16.991)" stroke="#fff" stroke-miterlimit="10" stroke-width="0.16"/>
        </g>
        <g id="g26" transform="translate(102.211 13.388)">
          <path id="path28" d="M-57.464-5.527h-1.494V-15.582H-62.2v-1.409h7.973v1.409h-3.24Z" transform="translate(62.196 16.991)" stroke="#fff" stroke-miterlimit="10" stroke-width="0.16"/>
        </g>
        <g id="g30" transform="translate(115.954 13.388)">
          <path id="path32" d="M-55.075-5.527V-16.991h1.492V-5.527Z" transform="translate(55.075 16.991)" stroke="#fff" stroke-miterlimit="10" stroke-width="0.16"/>
        </g>
        <g id="g34" transform="translate(119.328 13.388)">
          <path id="path36" d="M-48.595-5.527h-1.482V-15.582h-3.25v-1.409h7.982v1.409h-3.25Z" transform="translate(53.327 16.991)" stroke="#fff" stroke-miterlimit="10" stroke-width="0.16"/>
        </g>
        <g id="g38" transform="translate(132.184 13.126)">
          <path id="path40" d="M-36.445-6.875a5.734,5.734,0,0,1-4.25,1.737,5.742,5.742,0,0,1-4.261-1.737,5.825,5.825,0,0,1-1.71-4.258,5.821,5.821,0,0,1,1.71-4.256,5.737,5.737,0,0,1,4.261-1.739,5.7,5.7,0,0,1,4.24,1.747,5.8,5.8,0,0,1,1.72,4.248A5.825,5.825,0,0,1-36.445-6.875Zm-7.407-.961a4.3,4.3,0,0,0,3.157,1.287,4.276,4.276,0,0,0,3.146-1.287,4.472,4.472,0,0,0,1.293-3.3,4.472,4.472,0,0,0-1.293-3.3,4.276,4.276,0,0,0-3.146-1.287,4.3,4.3,0,0,0-3.157,1.287,4.48,4.48,0,0,0-1.293,3.3A4.48,4.48,0,0,0-43.852-7.836Z" transform="translate(46.666 17.127)" stroke="#fff" stroke-miterlimit="10" stroke-width="0.16"/>
        </g>
        <g id="g42" transform="translate(146.213 13.388)">
          <path id="path44" d="M-39.4-5.527V-16.991h1.812l5.639,8.917h.066l-.066-2.2v-6.713h1.492V-5.527h-1.558l-5.9-9.355h-.066l.066,2.212v7.143Z" transform="translate(39.397 16.991)" stroke="#fff" stroke-miterlimit="10" stroke-width="0.16"/>
        </g>
        <path id="path46" d="M-21.6,1.96a8.064,8.064,0,0,0-8.255,8.133A8.085,8.085,0,0,0-21.6,18.224a8.088,8.088,0,0,0,8.266-8.131A8.067,8.067,0,0,0-21.6,1.96Zm0,13.062a4.726,4.726,0,0,1-4.638-4.929A4.7,4.7,0,0,1-21.6,5.161a4.712,4.712,0,0,1,4.649,4.931A4.734,4.734,0,0,1-21.6,15.022ZM-39.612,1.96a8.06,8.06,0,0,0-8.257,8.133,8.081,8.081,0,0,0,8.257,8.131,8.082,8.082,0,0,0,8.257-8.131A8.061,8.061,0,0,0-39.612,1.96Zm0,13.062a4.732,4.732,0,0,1-4.647-4.929,4.71,4.71,0,0,1,4.647-4.931,4.7,4.7,0,0,1,4.638,4.931A4.725,4.725,0,0,1-39.612,15.022ZM-61.048,4.451V7.908H-52.7a7.138,7.138,0,0,1-1.9,4.341,8.63,8.63,0,0,1-6.452,2.523A9.115,9.115,0,0,1-70.21,5.592a9.113,9.113,0,0,1,9.162-9.177,8.919,8.919,0,0,1,6.294,2.463l2.465-2.436A12.265,12.265,0,0,0-61.048-7.04,12.884,12.884,0,0,0-74.016,5.592,12.884,12.884,0,0,0-61.048,18.224a11.749,11.749,0,0,0,8.919-3.547,11.31,11.31,0,0,0,3.024-8.065,11.4,11.4,0,0,0-.189-2.16ZM26.6,7.132A7.621,7.621,0,0,0,19.558,1.96,7.769,7.769,0,0,0,11.8,10.093a8,8,0,0,0,8.162,8.131,8.181,8.181,0,0,0,6.857-3.6l-2.8-1.849a4.718,4.718,0,0,1-4.053,2.25,4.188,4.188,0,0,1-3.985-2.465l11-4.5ZM15.384,9.84a4.487,4.487,0,0,1,4.3-4.742,3.2,3.2,0,0,1,3.061,1.725ZM6.44,17.73h3.617v-23.9H6.44ZM.515,3.77H.393A5.736,5.736,0,0,0-3.932,1.96a8.131,8.131,0,0,0-7.89,8.16,8.1,8.1,0,0,0,7.89,8.1A5.644,5.644,0,0,0,.393,16.377H.515v1.166c0,3.109-1.681,4.781-4.393,4.781a4.56,4.56,0,0,1-4.146-2.9l-3.148,1.3a7.849,7.849,0,0,0,7.293,4.808c4.242,0,7.822-2.467,7.822-8.467V2.454H.515ZM-3.623,15.022a4.69,4.69,0,0,1-4.58-4.9,4.724,4.724,0,0,1,4.58-4.958c2.457,0,4.395,2.092,4.395,4.958C.771,12.959-1.166,15.022-3.623,15.022ZM43.542-6.172H34.89v23.9H38.5V8.672h5.043c4.007,0,7.938-2.864,7.938-7.423S47.539-6.172,43.542-6.172Zm.095,11.52H38.5v-8.2h5.138a4.172,4.172,0,0,1,4.232,4.1A4.2,4.2,0,0,1,43.637,5.349Zm22.3-3.435c-2.606,0-5.317,1.139-6.431,3.659l3.2,1.326a3.429,3.429,0,0,1,3.3-1.756c1.872,0,3.771,1.112,3.8,3.074v.251a8.017,8.017,0,0,0-3.771-.924c-3.447,0-6.962,1.876-6.962,5.377,0,3.2,2.824,5.265,6,5.265a5.122,5.122,0,0,0,4.609-2.341h.124v1.847h3.484V8.522C73.289,4.285,70.087,1.913,65.94,1.913Zm-.434,13.1c-1.181,0-2.826-.579-2.826-2.025,0-1.851,2.052-2.561,3.827-2.561a6.545,6.545,0,0,1,3.3.8A4.364,4.364,0,0,1,65.506,15.012ZM85.987,2.436,81.839,12.8h-.124L77.427,2.436H73.536l6.442,14.481L76.3,24.973h3.769L90,2.436ZM53.462,17.73h3.619v-23.9H53.462Z" transform="translate(153.414 39.634)"/>
        <g id="g48" transform="translate(19.292 14.276)">
          <path id="path64" d="M-104.263-16.392a3.78,3.78,0,0,0-.9,2.688V28.583a3.783,3.783,0,0,0,.9,2.688l.141.129L-80.148,7.714V7.156l-23.974-23.687Z" transform="translate(105.159 16.531)" fill="url(#linear-gradient)"/>
        </g>
        <g id="g66" transform="translate(44.303 30.064)">
          <path id="path78" d="M-84.218,8.006-92.2.106V-.452l7.992-7.9.179.1,9.465,5.323c2.7,1.509,2.7,4,0,5.516L-84.028,7.9Z" transform="translate(92.2 8.351)" fill="url(#linear-gradient-2)"/>
        </g>
        <g id="g80" transform="translate(20.188 38.241)">
          <path id="path88" d="M-72.408,3.963-80.58-4.114l-24.115,23.837c.9.932,2.36,1.044,4.024.112L-72.408,3.963" transform="translate(104.695 4.114)" fill="url(#linear-gradient-3)"/>
        </g>
        <g id="g90" transform="translate(20.188 13.656)">
          <path id="path104" d="M-72.408-.343l-28.263-15.872c-1.664-.923-3.127-.811-4.024.122L-80.58,7.733Z" transform="translate(104.695 16.852)" fill="url(#linear-gradient-4)"/>
        </g>
      </g>
    </g>
  </g>
</svg>
