<svg id="Group_71412" data-name="Group 71412" xmlns="http://www.w3.org/2000/svg" width="39.453" height="30.992" viewBox="0 0 39.453 30.992">
  <g id="Component_17_1" data-name="Component 17 – 1" transform="translate(0)">
    <g id="Group_6" data-name="Group 6">
      <g id="LOGO">
        <g id="Group_3" data-name="Group 3">
          <circle id="Ellipse_3" data-name="Ellipse 3" cx="3.576" cy="3.576" r="3.576" transform="translate(16.151)" fill="#fff"/>
          <circle id="Ellipse_4" data-name="Ellipse 4" cx="3.576" cy="3.576" r="3.576" transform="translate(16.151 23.84)" fill="#fff"/>
          <g id="Group_1" data-name="Group 1" transform="translate(4.529 16.688)">
            <circle id="Ellipse_5" data-name="Ellipse 5" cx="3.576" cy="3.576" r="3.576" fill="#fff"/>
            <circle id="Ellipse_6" data-name="Ellipse 6" cx="3.576" cy="3.576" r="3.576" transform="translate(23.244)" fill="#fff"/>
          </g>
          <g id="Group_2" data-name="Group 2" transform="translate(0 3.805)">
            <path id="Path_1" data-name="Path 1" d="M-1869.9,859.293c-1.518,2.014-3.743,2.142-5.98,2.309-4.005.3-7.736,1.1-9.679,5.264a3.453,3.453,0,0,1-2.881,2.077,3.456,3.456,0,0,1-2.881-2.077c-1.942-4.168-5.674-4.963-9.679-5.264-2.237-.167-4.462-.294-5.98-2.309-2.431-3.238-.969-7.208,2.96-8.074,3.727-.822,6.449,1.013,9.095,3.262,1.868,1.585,3.835,3.076,6.485,3.079s4.617-1.494,6.484-3.079c2.647-2.249,5.368-4.084,9.095-3.262C-1868.932,852.086-1867.47,856.055-1869.9,859.293Z" transform="translate(1908.168 -851.019)" fill="#fff"/>
          </g>
        </g>
      </g>
    </g>
  </g>
</svg>
