<svg xmlns="http://www.w3.org/2000/svg" width="241.859" height="76.619" viewBox="0 0 241.859 76.619">
  <g id="Group_74393" data-name="Group 74393" transform="translate(3150.293 -5340.242)">
    <g id="Group_68571" data-name="Group 68571" transform="translate(-3150.293 5340.242)">
      <path id="Rectangle_41266" data-name="Rectangle 41266" d="M40,0H221.859a20,20,0,0,1,20,20V36.619a40,40,0,0,1-40,40H20a20,20,0,0,1-20-20V40A40,40,0,0,1,40,0Z" transform="translate(0)"/>
      <g id="Group_1114" data-name="Group 1114" transform="translate(23.078 12.001)">
        <g id="Group_1110" data-name="Group 1110" transform="translate(0 0)">
          <g id="Group_1109" data-name="Group 1109">
            <path id="Path_3477" data-name="Path 3477" d="M-108.2,13.123a10.328,10.328,0,0,1,4.919-8.666,10.578,10.578,0,0,0-8.331-4.5c-3.5-.369-6.9,2.1-8.689,2.1-1.821,0-4.57-2.061-7.533-2a11.092,11.092,0,0,0-9.336,5.694c-4.037,6.989-1.026,17.26,2.842,22.91,1.935,2.767,4.2,5.856,7.155,5.748,2.9-.119,3.977-1.846,7.47-1.846,3.462,0,4.477,1.846,7.5,1.776,3.107-.05,5.063-2.779,6.931-5.571a22.862,22.862,0,0,0,3.17-6.455A9.984,9.984,0,0,1-108.2,13.123Z" transform="translate(139.087 11.048)" fill="#fff"/>
            <path id="Path_3478" data-name="Path 3478" d="M-121.964,1.047a10.166,10.166,0,0,0,2.327-7.285,10.355,10.355,0,0,0-6.7,3.463,9.674,9.674,0,0,0-2.387,7.016A8.553,8.553,0,0,0-121.964,1.047Z" transform="translate(147.149 6.238)" fill="#fff"/>
          </g>
        </g>
        <g id="Group_1111" data-name="Group 1111" transform="translate(52.768 20.995)">
          <path id="Path_3479" data-name="Path 3479" d="M-89.452,29.451H-93.5l-2.216-6.964h-7.7l-2.111,6.964h-3.939l7.633-23.71h4.714Zm-6.931-9.886-2-6.191q-.318-.949-1.2-4.467h-.071q-.35,1.513-1.126,4.467l-1.969,6.191Z" transform="translate(109.469 -5.394)" fill="#fff"/>
          <path id="Path_3480" data-name="Path 3480" d="M-79.994,17.945a9.715,9.715,0,0,1-2.357,6.893,6.892,6.892,0,0,1-5.242,2.252,5.241,5.241,0,0,1-4.855-2.427h-.071V33.67h-3.8V15.235q0-2.742-.141-5.628h3.341l.212,2.71h.071a6.328,6.328,0,0,1,5.769-3.061,6.341,6.341,0,0,1,5.047,2.391A9.419,9.419,0,0,1-79.994,17.945Zm-3.87.139a7.038,7.038,0,0,0-1.126-4.116A3.889,3.889,0,0,0-88.3,12.279a3.95,3.95,0,0,0-2.55.932,4.322,4.322,0,0,0-1.495,2.446,4.973,4.973,0,0,0-.176,1.158v2.851a4.568,4.568,0,0,0,1.144,3.15A3.791,3.791,0,0,0-88.4,24.1a3.889,3.889,0,0,0,3.341-1.653A7.277,7.277,0,0,0-83.864,18.084Z" transform="translate(119.639 -2.646)" fill="#fff"/>
          <path id="Path_3481" data-name="Path 3481" d="M-68.958,17.945a9.708,9.708,0,0,1-2.359,6.893,6.886,6.886,0,0,1-5.24,2.252,5.236,5.236,0,0,1-4.853-2.427h-.071V33.67h-3.8V15.235q0-2.742-.141-5.628h3.341l.212,2.71h.071a6.324,6.324,0,0,1,5.769-3.061,6.352,6.352,0,0,1,5.049,2.391A9.446,9.446,0,0,1-68.958,17.945Zm-3.87.139a7.039,7.039,0,0,0-1.128-4.116,3.884,3.884,0,0,0-3.3-1.689,3.955,3.955,0,0,0-2.551.932A4.319,4.319,0,0,0-81.3,15.657a5.07,5.07,0,0,0-.176,1.158v2.851a4.582,4.582,0,0,0,1.14,3.15A3.8,3.8,0,0,0-77.365,24.1a3.889,3.889,0,0,0,3.341-1.653A7.277,7.277,0,0,0-72.827,18.084Z" transform="translate(128.266 -2.646)" fill="#fff"/>
          <path id="Path_3482" data-name="Path 3482" d="M-57.387,22.954a6.319,6.319,0,0,1-2.106,4.924,9.333,9.333,0,0,1-6.458,2.076A11.305,11.305,0,0,1-72.1,28.477l.88-3.166a10.412,10.412,0,0,0,5.491,1.514,5.191,5.191,0,0,0,3.344-.969,3.165,3.165,0,0,0,1.194-2.59,3.3,3.3,0,0,0-.985-2.43A9.159,9.159,0,0,0-65.443,19q-6.227-2.322-6.225-6.8a6.016,6.016,0,0,1,2.183-4.791,8.6,8.6,0,0,1,5.8-1.867A11.508,11.508,0,0,1-58.3,6.672l-.95,3.1a9.336,9.336,0,0,0-4.538-1.09,4.593,4.593,0,0,0-3.129.985,2.815,2.815,0,0,0-.95,2.147,2.9,2.9,0,0,0,1.089,2.321,12.3,12.3,0,0,0,3.449,1.83,11.7,11.7,0,0,1,4.5,2.883A6.022,6.022,0,0,1-57.387,22.954Z" transform="translate(138.681 -5.546)" fill="#fff"/>
          <path id="Path_3483" data-name="Path 3483" d="M-52.223,14.172H-56.41v8.3q0,3.167,2.216,3.166a6.755,6.755,0,0,0,1.687-.176l.105,2.884a8.606,8.606,0,0,1-2.954.42A4.558,4.558,0,0,1-58.874,27.4q-1.264-1.374-1.267-4.609V14.169h-2.494V11.318h2.494V8.188l3.731-1.126v4.256h4.187Z" transform="translate(146.076 -4.361)" fill="#fff"/>
          <path id="Path_3484" data-name="Path 3484" d="M-38.841,18.014a9.379,9.379,0,0,1-2.252,6.473,8.04,8.04,0,0,1-6.264,2.6,7.645,7.645,0,0,1-6-2.5,9.091,9.091,0,0,1-2.234-6.3,9.286,9.286,0,0,1,2.3-6.507,7.973,7.973,0,0,1,6.207-2.533,7.808,7.808,0,0,1,6.05,2.5A8.987,8.987,0,0,1-38.841,18.014Zm-3.941.123A7.69,7.69,0,0,0-43.8,14.08a3.752,3.752,0,0,0-3.41-2.045,3.809,3.809,0,0,0-3.483,2.045,7.838,7.838,0,0,0-1.019,4.128,7.679,7.679,0,0,0,1.019,4.055,3.831,3.831,0,0,0,3.449,2.045,3.8,3.8,0,0,0,3.41-2.081A7.718,7.718,0,0,0-42.782,18.137Z" transform="translate(151.585 -2.645)" fill="#fff"/>
          <path id="Path_3485" data-name="Path 3485" d="M-35.245,12.948a6.6,6.6,0,0,0-1.2-.105,3.589,3.589,0,0,0-3.1,1.514,5.692,5.692,0,0,0-.95,3.376V26.7h-3.8l.036-11.712q0-2.956-.143-5.382h3.308l.139,3.271h.105a5.847,5.847,0,0,1,1.9-2.708,4.593,4.593,0,0,1,2.745-.916,6.1,6.1,0,0,1,.95.069Z" transform="translate(160.335 -2.646)" fill="#fff"/>
          <path id="Path_3486" data-name="Path 3486" d="M-23.057,17.36a8.909,8.909,0,0,1-.139,1.723h-11.4a4.96,4.96,0,0,0,1.653,3.871,5.645,5.645,0,0,0,3.727,1.2,12.6,12.6,0,0,0,4.611-.809l.6,2.637a14.255,14.255,0,0,1-5.732,1.057A8.3,8.3,0,0,1-35.983,24.7a8.64,8.64,0,0,1-2.268-6.278,9.8,9.8,0,0,1,2.113-6.437,7.28,7.28,0,0,1,5.977-2.742,6.371,6.371,0,0,1,5.6,2.742A9.247,9.247,0,0,1-23.057,17.36Zm-3.622-.985a5.16,5.16,0,0,0-.738-2.92,3.318,3.318,0,0,0-3.027-1.584,3.6,3.6,0,0,0-3.023,1.548,5.668,5.668,0,0,0-1.124,2.954h7.912Z" transform="translate(165.135 -2.66)" fill="#fff"/>
        </g>
        <g id="Group_1113" data-name="Group 1113" transform="translate(55.024 0.604)">
          <g id="Group_1112" data-name="Group 1112">
            <path id="Path_3487" data-name="Path 3487" d="M-98.629.026a5.849,5.849,0,0,1-1.885,4.736,7.5,7.5,0,0,1-4.958,1.468,22.989,22.989,0,0,1-2.731-.139V-5.367a20.155,20.155,0,0,1,3.216-.242,6.932,6.932,0,0,1,4.614,1.331A5.378,5.378,0,0,1-98.629.026ZM-100.6.078a4.258,4.258,0,0,0-1.08-3.129,4.256,4.256,0,0,0-3.155-1.089,7.9,7.9,0,0,0-1.5.121v8.71a9.858,9.858,0,0,0,1.261.052,4.417,4.417,0,0,0,3.308-1.192A4.773,4.773,0,0,0-100.6.078Z" transform="translate(108.203 6.126)" fill="#fff"/>
            <path id="Path_3488" data-name="Path 3488" d="M-93.361.469a4.607,4.607,0,0,1-1.106,3.18,3.949,3.949,0,0,1-3.077,1.279A3.753,3.753,0,0,1-100.491,3.7a4.471,4.471,0,0,1-1.1-3.093,4.562,4.562,0,0,1,1.131-3.2,3.924,3.924,0,0,1,3.05-1.244,3.841,3.841,0,0,1,2.974,1.226A4.434,4.434,0,0,1-93.361.469ZM-95.3.529a3.8,3.8,0,0,0-.5-1.994,1.844,1.844,0,0,0-1.675-1,1.873,1.873,0,0,0-1.712,1,3.849,3.849,0,0,0-.5,2.027,3.8,3.8,0,0,0,.5,1.994,1.884,1.884,0,0,0,1.694,1,1.863,1.863,0,0,0,1.675-1.023A3.775,3.775,0,0,0-95.3.529Z" transform="translate(113.374 7.515)" fill="#fff"/>
            <path id="Path_3489" data-name="Path 3489" d="M-83.775-3.736l-2.628,8.4h-1.71L-89.2,1.016A27.292,27.292,0,0,1-89.878-1.7h-.034a19.87,19.87,0,0,1-.675,2.713l-1.156,3.647h-1.73l-2.471-8.4h1.919l.95,3.993q.345,1.416.57,2.7h.034q.208-1.053.693-2.678l1.192-4.009h1.521L-87.923.189q.414,1.435.673,2.765h.052a26.423,26.423,0,0,1,.57-2.765l1.019-3.923h1.833Z" transform="translate(117.785 7.59)" fill="#fff"/>
            <path id="Path_3490" data-name="Path 3490" d="M-80.451,4.74h-1.867V-.07q0-2.223-1.693-2.223a1.685,1.685,0,0,0-1.349.611,2.168,2.168,0,0,0-.518,1.44V4.738h-1.867v-6q0-1.106-.068-2.4h1.641l.087,1.313h.052a2.7,2.7,0,0,1,.967-1.014,3.156,3.156,0,0,1,1.693-.472,2.68,2.68,0,0,1,1.954.761,3.7,3.7,0,0,1,.967,2.783Z" transform="translate(124.14 7.512)" fill="#fff"/>
            <path id="Path_3491" data-name="Path 3491" d="M-79.973,6.353h-1.865V-5.9h1.865Z" transform="translate(128.811 5.899)" fill="#fff"/>
            <path id="Path_3492" data-name="Path 3492" d="M-71.012.469a4.607,4.607,0,0,1-1.106,3.18A3.951,3.951,0,0,1-75.2,4.928,3.748,3.748,0,0,1-78.142,3.7a4.471,4.471,0,0,1-1.1-3.093,4.562,4.562,0,0,1,1.131-3.2,3.923,3.923,0,0,1,3.048-1.244,3.845,3.845,0,0,1,2.975,1.226A4.434,4.434,0,0,1-71.012.469Zm-1.938.061a3.8,3.8,0,0,0-.5-1.994,1.841,1.841,0,0,0-1.673-1,1.869,1.869,0,0,0-1.712,1,3.849,3.849,0,0,0-.5,2.027,3.8,3.8,0,0,0,.5,1.994,1.884,1.884,0,0,0,1.694,1,1.86,1.86,0,0,0,1.673-1.023A3.759,3.759,0,0,0-72.951.529Z" transform="translate(130.843 7.515)" fill="#fff"/>
            <path id="Path_3493" data-name="Path 3493" d="M-66.524,4.738H-68.2l-.139-.967h-.052a2.875,2.875,0,0,1-2.453,1.158,2.532,2.532,0,0,1-1.917-.761,2.385,2.385,0,0,1-.657-1.71A2.609,2.609,0,0,1-72.131.107a6.685,6.685,0,0,1,3.622-.795V-.844q0-1.66-1.744-1.659a3.906,3.906,0,0,0-2.19.622l-.379-1.226a5.386,5.386,0,0,1,2.881-.725q3.292,0,3.3,3.474V2.735A13.118,13.118,0,0,0-66.524,4.738Zm-1.938-2.886V.556Q-71.552.5-71.552,2.249a1.265,1.265,0,0,0,.358.985,1.306,1.306,0,0,0,.912.328,1.886,1.886,0,0,0,1.142-.388,1.591,1.591,0,0,0,.647-.994A1.58,1.58,0,0,0-68.463,1.851Z" transform="translate(135.391 7.515)" fill="#fff"/>
            <path id="Path_3494" data-name="Path 3494" d="M-60.077,6.353h-1.657L-61.821,5h-.052a2.792,2.792,0,0,1-2.7,1.539,3.161,3.161,0,0,1-2.523-1.192,4.644,4.644,0,0,1-1-3.093,4.869,4.869,0,0,1,1.089-3.3,3.347,3.347,0,0,1,2.592-1.176,2.517,2.517,0,0,1,2.366,1.14h.036V-5.9h1.869v9.99Q-60.143,5.317-60.077,6.353Zm-1.935-3.542v-1.4a2.748,2.748,0,0,0-.052-.588,2.126,2.126,0,0,0-.675-1.131,1.835,1.835,0,0,0-1.249-.458,1.916,1.916,0,0,0-1.643.83,3.558,3.558,0,0,0-.6,2.125,3.317,3.317,0,0,0,.574,2.022,1.922,1.922,0,0,0,1.632.828,1.8,1.8,0,0,0,1.475-.691A2.3,2.3,0,0,0-62.012,2.811Z" transform="translate(139.553 5.899)" fill="#fff"/>
            <path id="Path_3495" data-name="Path 3495" d="M-51.022.469a4.607,4.607,0,0,1-1.106,3.18,3.946,3.946,0,0,1-3.077,1.279A3.758,3.758,0,0,1-58.152,3.7a4.471,4.471,0,0,1-1.1-3.093,4.562,4.562,0,0,1,1.131-3.2,3.925,3.925,0,0,1,3.052-1.244,3.837,3.837,0,0,1,2.972,1.226A4.434,4.434,0,0,1-51.022.469Zm-1.935.061a3.8,3.8,0,0,0-.5-1.994,1.846,1.846,0,0,0-1.677-1,1.877,1.877,0,0,0-1.712,1,3.849,3.849,0,0,0-.5,2.027,3.8,3.8,0,0,0,.5,1.994,1.884,1.884,0,0,0,1.694,1,1.866,1.866,0,0,0,1.677-1.023A3.791,3.791,0,0,0-52.957.529Z" transform="translate(146.468 7.515)" fill="#fff"/>
            <path id="Path_3496" data-name="Path 3496" d="M-45.767,4.74h-1.865V-.07q0-2.223-1.694-2.223a1.679,1.679,0,0,0-1.347.611,2.159,2.159,0,0,0-.518,1.44V4.738h-1.869v-6q0-1.106-.066-2.4h1.639l.087,1.313h.052a2.725,2.725,0,0,1,.967-1.014,3.162,3.162,0,0,1,1.694-.472,2.679,2.679,0,0,1,1.953.761,3.689,3.689,0,0,1,.967,2.783Z" transform="translate(151.252 7.512)" fill="#fff"/>
            <path id="Path_3497" data-name="Path 3497" d="M-39.7-1.42h-2.056V2.66c0,1.037.365,1.555,1.089,1.555a3.288,3.288,0,0,0,.832-.087l.048,1.416a4.2,4.2,0,0,1-1.45.208,2.232,2.232,0,0,1-1.726-.673,3.294,3.294,0,0,1-.624-2.264V-1.42h-1.228v-1.4h1.228V-4.358l1.83-.552v2.09H-39.7v1.4Z" transform="translate(157.75 6.672)" fill="#fff"/>
            <path id="Path_3498" data-name="Path 3498" d="M-33.2,6.353h-1.869V1.579q0-2.258-1.691-2.259A1.782,1.782,0,0,0-38.536.629a2.346,2.346,0,0,0-.087.672V6.351h-1.865V-5.9h1.865V-.837h.036a2.822,2.822,0,0,1,2.523-1.381,2.6,2.6,0,0,1,1.921.761,3.825,3.825,0,0,1,.95,2.817Z" transform="translate(161.13 5.899)" fill="#fff"/>
            <path id="Path_3499" data-name="Path 3499" d="M-27.4.148a4.509,4.509,0,0,1-.069.846h-5.6a2.449,2.449,0,0,0,.811,1.9,2.781,2.781,0,0,0,1.833.588,6.186,6.186,0,0,0,2.264-.4l.292,1.3a7.032,7.032,0,0,1-2.819.518,4.071,4.071,0,0,1-3.066-1.149A4.233,4.233,0,0,1-34.863.668a4.807,4.807,0,0,1,1.037-3.162A3.571,3.571,0,0,1-30.89-3.841a3.124,3.124,0,0,1,2.745,1.347A4.484,4.484,0,0,1-27.4.148Zm-1.782-.483a2.514,2.514,0,0,0-.362-1.434,1.631,1.631,0,0,0-1.486-.779,1.773,1.773,0,0,0-1.486.761,2.826,2.826,0,0,0-.554,1.452Z" transform="translate(165.528 7.508)" fill="#fff"/>
          </g>
        </g>
      </g>
    </g>
  </g>
</svg>
