<svg id="Group_104010" data-name="Group 104010" xmlns="http://www.w3.org/2000/svg" width="917.9" height="715.744" viewBox="0 0 917.9 715.744">
  <ellipse id="Ellipse_81" data-name="Ellipse 81" cx="86.483" cy="86.483" rx="86.483" ry="86.483" transform="translate(372.467)" fill="#fff"/>
  <path id="Path_209" data-name="Path 209" d="M278.131,1375.984a76.456,76.456,0,0,1-152.912,0c0-.455,0-.87.039-1.285v-.415a8.064,8.064,0,0,1,.03-.83c0-.494,0-.949.04-1.394.039-1.1.119-2.154.227-3.173.079-.909.188-1.769.306-2.678a12.767,12.767,0,0,1,.148-1.285l.336-2.145c.079-.455.158-.948.267-1.4a22.135,22.135,0,0,1,.6-2.678c.119-.6.267-1.235.415-1.849a2.956,2.956,0,0,1,.148-.483c.306-1.206.642-2.412,1.018-3.628.079-.148.119-.335.2-.483.336-1.1.712-2.154,1.127-3.213a15.79,15.79,0,0,1,.682-1.729c.3-.791.643-1.591,1.018-2.383.227-.562.484-1.125.751-1.688a68.9,68.9,0,0,1,4.487-8.114c.642-1.058,1.324-2.074,2.036-3.053a1.883,1.883,0,0,1,.346-.5c.791-1.126,1.621-2.224,2.49-3.28a.182.182,0,0,1,.109-.148c.87-1.1,1.739-2.115,2.678-3.173a13.8,13.8,0,0,1,1.057-1.087v-.039l.04-.04v-.04c.6-.642,1.166-1.205,1.769-1.809.978-.979,2-1.966,3.054-2.9.988-.91,2.036-1.77,3.064-2.6a1.243,1.243,0,0,1,.336-.267c1.018-.83,2.075-1.62,3.133-2.382s2.075-1.464,3.162-2.145a1.957,1.957,0,0,1,.534-.335c1.057-.684,2.144-1.325,3.281-1.968a72.552,72.552,0,0,1,13.045-5.811c.8-.3,1.591-.562,2.421-.791,1.087-.336,2.184-.643,3.321-.9.86-.229,1.729-.455,2.6-.613.563-.148,1.127-.257,1.7-.375.6-.11,1.245-.229,1.848-.336,1.206-.189,2.451-.376,3.656-.5.978-.108,1.957-.228,2.945-.257.672-.079,1.354-.119,2.075-.158,1.275-.069,2.6-.109,3.913-.109s2.649.04,3.923.109c.721.039,1.4.079,2.075.158.988.029,1.967.148,2.945.257,1.206.119,2.451.306,3.656.5.6.107,1.245.226,1.848.336.573.118,1.136.227,1.7.375.87.158,1.739.385,2.6.613,1.136.256,2.233.563,3.32.9.791.229,1.621.494,2.421.791a72.685,72.685,0,0,1,13.579,6.117c.83.445,1.66.939,2.451,1.463,1.433.869,2.866,1.857,4.22,2.836,1.057.752,2.075,1.5,3.054,2.332.909.682,1.779,1.434,2.609,2.154a75.654,75.654,0,0,1,5.465,5.356h.04a71.217,71.217,0,0,1,6.789,8.411c.751,1.057,1.473,2.115,2.155,3.241a69.315,69.315,0,0,1,4.3,7.846l.672,1.474c.454,1.017.909,2.035,1.285,3.093a3.954,3.954,0,0,1,.267.6c.484,1.284.978,2.6,1.393,3.924l.119.335c.415,1.364.83,2.719,1.166,4.111.109.455.227.91.3,1.365a32.782,32.782,0,0,1,.761,3.389,7.694,7.694,0,0,1,.148.8l.454,2.709.109.908c.119.939.227,1.928.307,2.866.109,1.019.188,2.075.227,3.173.039.444.039.9.039,1.394a8.031,8.031,0,0,1,.03.83v.415C278.131,1375.114,278.131,1375.529,278.131,1375.984Z" transform="translate(257.275 -736.689)" fill="#fff"/>
  <g id="Group_102" data-name="Group 102" transform="translate(106.414 90.547)">
    <ellipse id="Ellipse_82" data-name="Ellipse 82" cx="84.913" cy="84.913" rx="84.913" ry="84.913" transform="translate(0 291.525)" fill="#fff"/>
    <ellipse id="Ellipse_83" data-name="Ellipse 83" cx="84.913" cy="84.913" rx="84.913" ry="84.913" transform="translate(0 291.525)" fill="#fff"/>
    <path id="Path_210" data-name="Path 210" d="M134.783,1276.218a156.165,156.165,0,0,1-14.023-14.795C125.642,1266.137,130.356,1271.088,134.783,1276.218Z" transform="translate(111.254 -1165.652)" fill="#fff"/>
    <ellipse id="Ellipse_84" data-name="Ellipse 84" cx="84.913" cy="84.913" rx="84.913" ry="84.913" transform="translate(0 291.525)" fill="#fff"/>
    <path id="Path_211" data-name="Path 211" d="M98.8,1251.732" transform="translate(-83.824 -1251.732)" fill="#fff"/>
    <path id="Path_212" data-name="Path 212" d="M140.721,1281.028,118.93,1259.86C126.124,1266.4,133.4,1273.429,140.721,1281.028Z" transform="translate(94.999 -1179.536)" fill="#fff"/>
  </g>
  <ellipse id="Ellipse_85" data-name="Ellipse 85" cx="84.913" cy="84.913" rx="84.913" ry="84.913" transform="translate(641.661 382.072)" fill="#fff"/>
  <path id="Path_213" data-name="Path 213" d="M1004.415,1373.627A121.533,121.533,0,0,1,978,1449.189c-2.115,2.283-4.151,4.6-6.1,7.036-13.48,16.841-35.9,28.688-56.311,34.362-22.117,6.146-45.361,4.842-67.448-.742C802,1478.2,751.254,1487.108,709.6,1509.385a210.721,210.721,0,0,0-72.3,63.908c-6.1,8.619-13.569,18.688-16.87,28.779-2.164,6.621-2.233,13.667-4.516,20.309a76.058,76.058,0,0,1-10.5,20.21,74.384,74.384,0,0,1-130.262-19.854c-2.54-7.422-2.332-15.605-5.554-22.682-13.341-29.3-36.891-55.44-62.6-74.444a208.5,208.5,0,0,0-87.8-37.642,211.1,211.1,0,0,0-49.1-2.7c-19.221,1.166-37.376,8.736-56.686,9.565a122.79,122.79,0,0,1-53.237-9.634,119.541,119.541,0,0,1-22.473-12.552,128.363,128.363,0,0,1-18.688-16.425c-2.154-2.271-4.18-4.6-6.1-7.036a121.531,121.531,0,0,1-26.416-75.562,121.376,121.376,0,0,1,121.367-121.368h.573s93.2-13.656,197.918,80.8a5.994,5.994,0,0,1,.484.415l21.791,21.168c-7.323-7.6-14.6-14.626-21.791-21.168a200.2,200.2,0,0,1,17.848,15.16c.079.078.119.158.237.286a161.863,161.863,0,0,0,14.063,14.873,156.792,156.792,0,0,0,227.061-14.962c.04-.039.079-.119.158-.2a204.326,204.326,0,0,1,18.095-15.367,1.571,1.571,0,0,1,.237-.208c104.715-94.457,197.918-80.8,197.918-80.8h.573A121.376,121.376,0,0,1,1004.415,1373.627Z" transform="translate(-86.515 -1162.603)" fill="#fff"/>
</svg>
