<svg xmlns="http://www.w3.org/2000/svg" width="262" height="83" viewBox="0 0 262 83">
  <g id="Group_71105" data-name="Group 71105" transform="translate(-914 1078.749)">
    <g id="Group_71104" data-name="Group 71104" transform="translate(868 917.251)">
      <path id="Rectangle_41266" data-name="Rectangle 41266" d="M40,0H242a20,20,0,0,1,20,20V43a40,40,0,0,1-40,40H20A20,20,0,0,1,0,63V40A40,40,0,0,1,40,0Z" transform="translate(46 -1996)" fill="#fff"/>
      <g id="Group_1114" data-name="Group 1114" transform="translate(46.312 -1994.999)">
        <g id="Group_1110" data-name="Group 1110" transform="translate(24.688 11.999)">
          <g id="Group_1109" data-name="Group 1109">
            <path id="Path_3477" data-name="Path 3477" d="M-105.628,14.223A11.188,11.188,0,0,1-100.3,4.836a11.459,11.459,0,0,0-9.025-4.879c-3.8-.4-7.479,2.272-9.413,2.272-1.972,0-4.95-2.233-8.16-2.167A12.015,12.015,0,0,0-137.01,6.229c-4.373,7.571-1.112,18.7,3.078,24.818,2.1,3,4.545,6.344,7.751,6.226,3.136-.129,4.308-2,8.092-2,3.75,0,4.85,2,8.12,1.924,3.366-.054,5.485-3.011,7.508-6.035a24.766,24.766,0,0,0,3.433-6.992A10.815,10.815,0,0,1-105.628,14.223Z" transform="translate(139.087 11.961)"/>
            <path id="Path_3478" data-name="Path 3478" d="M-121.4,1.654a11.012,11.012,0,0,0,2.521-7.892,11.218,11.218,0,0,0-7.253,3.752,10.48,10.48,0,0,0-2.586,7.6A9.266,9.266,0,0,0-121.4,1.654Z" transform="translate(148.68 6.238)"/>
          </g>
        </g>
        <g id="Group_1111" data-name="Group 1111" transform="translate(81.851 34.742)">
          <path id="Path_3479" data-name="Path 3479" d="M-87.785,31.425h-4.383l-2.4-7.544h-8.345l-2.287,7.544h-4.267L-101.2,5.741h5.107Zm-7.508-10.71-2.171-6.707q-.344-1.028-1.3-4.839h-.077q-.379,1.639-1.22,4.839l-2.133,6.707Z" transform="translate(109.469 -5.365)"/>
          <path id="Path_3480" data-name="Path 3480" d="M-78.623,18.669a10.524,10.524,0,0,1-2.553,7.467,7.466,7.466,0,0,1-5.678,2.44,5.678,5.678,0,0,1-5.259-2.629h-.077V35.7h-4.115V15.733q0-2.97-.152-6.1h3.619l.23,2.936h.077a6.855,6.855,0,0,1,6.249-3.316,6.869,6.869,0,0,1,5.468,2.59A10.2,10.2,0,0,1-78.623,18.669Zm-4.192.151a7.625,7.625,0,0,0-1.22-4.458,4.213,4.213,0,0,0-3.582-1.83,4.279,4.279,0,0,0-2.762,1.009A4.682,4.682,0,0,0-92,16.19a5.387,5.387,0,0,0-.191,1.254v3.088a4.948,4.948,0,0,0,1.239,3.412,4.107,4.107,0,0,0,3.219,1.392,4.213,4.213,0,0,0,3.619-1.791A7.883,7.883,0,0,0-82.815,18.819Z" transform="translate(121.569 -2.096)"/>
          <path id="Path_3481" data-name="Path 3481" d="M-67.587,18.669a10.517,10.517,0,0,1-2.555,7.467,7.459,7.459,0,0,1-5.676,2.44,5.672,5.672,0,0,1-5.257-2.629h-.077V35.7h-4.115V15.733q0-2.97-.152-6.1H-81.8l.23,2.936h.077a6.851,6.851,0,0,1,6.249-3.316,6.881,6.881,0,0,1,5.47,2.59A10.232,10.232,0,0,1-67.587,18.669Zm-4.192.151A7.625,7.625,0,0,0-73,14.361a4.207,4.207,0,0,0-3.58-1.83,4.284,4.284,0,0,0-2.764,1.009,4.679,4.679,0,0,0-1.617,2.65,5.493,5.493,0,0,0-.191,1.254v3.088a4.963,4.963,0,0,0,1.235,3.412,4.116,4.116,0,0,0,3.223,1.392,4.213,4.213,0,0,0,3.619-1.791A7.883,7.883,0,0,0-71.779,18.819Z" transform="translate(131.835 -2.096)"/>
          <path id="Path_3482" data-name="Path 3482" d="M-56.162,24.4a6.845,6.845,0,0,1-2.281,5.335,10.111,10.111,0,0,1-7,2.248,12.247,12.247,0,0,1-6.657-1.6l.953-3.43A11.279,11.279,0,0,0-65.194,28.6a5.624,5.624,0,0,0,3.623-1.05,3.428,3.428,0,0,0,1.293-2.806,3.578,3.578,0,0,0-1.067-2.633,9.922,9.922,0,0,0-3.543-1.986q-6.745-2.516-6.743-7.365a6.517,6.517,0,0,1,2.364-5.19,9.32,9.32,0,0,1,6.288-2.023,12.466,12.466,0,0,1,5.829,1.22l-1.029,3.354A10.113,10.113,0,0,0-63.1,8.939a4.976,4.976,0,0,0-3.389,1.067,3.05,3.05,0,0,0-1.029,2.326,3.139,3.139,0,0,0,1.179,2.515A13.328,13.328,0,0,0-62.6,16.829a12.677,12.677,0,0,1,4.877,3.123A6.524,6.524,0,0,1-56.162,24.4Z" transform="translate(144.226 -5.546)"/>
          <path id="Path_3483" data-name="Path 3483" d="M-51.356,14.765h-4.535v8.992q0,3.431,2.4,3.43A7.318,7.318,0,0,0-51.663,27l.114,3.125a9.323,9.323,0,0,1-3.2.455,4.937,4.937,0,0,1-3.812-1.486Q-59.93,27.6-59.933,24.1V14.761h-2.7V11.673h2.7V8.282l4.041-1.22v4.611h4.535Z" transform="translate(153.025 -4.136)"/>
          <path id="Path_3484" data-name="Path 3484" d="M-37.447,18.743a10.16,10.16,0,0,1-2.44,7.012,8.71,8.71,0,0,1-6.786,2.82,8.282,8.282,0,0,1-6.494-2.7,9.848,9.848,0,0,1-2.42-6.821A10.06,10.06,0,0,1-53.092,12a8.636,8.636,0,0,1,6.724-2.744,8.458,8.458,0,0,1,6.554,2.706A9.736,9.736,0,0,1-37.447,18.743Zm-4.269.133a8.33,8.33,0,0,0-1.1-4.395,4.064,4.064,0,0,0-3.694-2.216,4.126,4.126,0,0,0-3.773,2.216,8.49,8.49,0,0,0-1.1,4.472,8.319,8.319,0,0,0,1.1,4.393,4.15,4.15,0,0,0,3.736,2.216,4.117,4.117,0,0,0,3.694-2.254A8.36,8.36,0,0,0-41.716,18.876Z" transform="translate(159.579 -2.095)"/>
          <path id="Path_3485" data-name="Path 3485" d="M-34.483,13.255a7.145,7.145,0,0,0-1.3-.114,3.888,3.888,0,0,0-3.354,1.64,6.166,6.166,0,0,0-1.029,3.657v9.718h-4.113l.039-12.688q0-3.2-.154-5.831h3.584l.151,3.543h.114a6.333,6.333,0,0,1,2.057-2.934,4.975,4.975,0,0,1,2.974-.992,6.607,6.607,0,0,1,1.029.075Z" transform="translate(169.991 -2.096)"/>
          <path id="Path_3486" data-name="Path 3486" d="M-21.792,18.037a9.651,9.651,0,0,1-.151,1.866H-34.287A5.373,5.373,0,0,0-32.5,24.1a6.115,6.115,0,0,0,4.038,1.3,13.653,13.653,0,0,0,4.995-.876l.645,2.856a15.442,15.442,0,0,1-6.209,1.144,8.994,8.994,0,0,1-6.767-2.534,9.359,9.359,0,0,1-2.457-6.8,10.61,10.61,0,0,1,2.289-6.973,7.886,7.886,0,0,1,6.475-2.97,6.9,6.9,0,0,1,6.062,2.97A10.017,10.017,0,0,1-21.792,18.037Zm-3.924-1.067a5.59,5.59,0,0,0-.8-3.163,3.6,3.6,0,0,0-3.279-1.716,3.9,3.9,0,0,0-3.275,1.677,6.14,6.14,0,0,0-1.218,3.2h8.571Z" transform="translate(175.702 -2.112)"/>
        </g>
        <g id="Group_1113" data-name="Group 1113" transform="translate(84.295 12.653)">
          <g id="Group_1112" data-name="Group 1112">
            <path id="Path_3487" data-name="Path 3487" d="M-97.831.5a6.336,6.336,0,0,1-2.042,5.13,8.122,8.122,0,0,1-5.371,1.59,24.9,24.9,0,0,1-2.959-.151V-5.347a21.833,21.833,0,0,1,3.484-.262,7.51,7.51,0,0,1,5,1.442A5.826,5.826,0,0,1-97.831.5Zm-2.133.056a4.613,4.613,0,0,0-1.17-3.389,4.61,4.61,0,0,0-3.418-1.179,8.56,8.56,0,0,0-1.629.131V5.55a10.679,10.679,0,0,0,1.366.056,4.784,4.784,0,0,0,3.584-1.291A5.171,5.171,0,0,0-99.964.552Z" transform="translate(108.203 6.169)"/>
            <path id="Path_3488" data-name="Path 3488" d="M-92.676.827a4.99,4.99,0,0,1-1.2,3.445,4.278,4.278,0,0,1-3.333,1.386,4.066,4.066,0,0,1-3.192-1.33,4.843,4.843,0,0,1-1.187-3.35,4.942,4.942,0,0,1,1.226-3.462,4.251,4.251,0,0,1,3.3-1.347A4.161,4.161,0,0,1-93.836-2.5,4.8,4.8,0,0,1-92.676.827Zm-2.1.066a4.115,4.115,0,0,0-.542-2.16,2,2,0,0,0-1.814-1.089,2.029,2.029,0,0,0-1.855,1.089,4.17,4.17,0,0,0-.542,2.2,4.115,4.115,0,0,0,.542,2.16A2.041,2.041,0,0,0-97.15,4.177,2.018,2.018,0,0,0-95.336,3.07,4.089,4.089,0,0,0-94.774.893Z" transform="translate(114.356 7.821)"/>
            <path id="Path_3489" data-name="Path 3489" d="M-82.762-3.736l-2.847,9.1h-1.853l-1.179-3.951a29.567,29.567,0,0,1-.731-2.939h-.037a21.525,21.525,0,0,1-.731,2.939l-1.253,3.951h-1.874l-2.677-9.1h2.079L-92.837.589q.373,1.534.618,2.92h.037q.226-1.141.751-2.9l1.291-4.342h1.648l1.237,4.25q.449,1.555.73,3h.056a28.621,28.621,0,0,1,.618-3l1.1-4.25h1.986Z" transform="translate(119.604 7.911)"/>
            <path id="Path_3490" data-name="Path 3490" d="M-79.838,5.454h-2.023V.243q0-2.409-1.834-2.409a1.825,1.825,0,0,0-1.461.662A2.349,2.349,0,0,0-85.717.056v5.4H-87.74v-6.5q0-1.2-.073-2.6h1.778l.095,1.422h.056a2.922,2.922,0,0,1,1.048-1.1A3.419,3.419,0,0,1-83-3.835a2.9,2.9,0,0,1,2.117.824A4,4,0,0,1-79.838,0Z" transform="translate(127.166 7.819)"/>
            <path id="Path_3491" data-name="Path 3491" d="M-79.817,7.374h-2.021V-5.9h2.021Z" transform="translate(132.722 5.899)"/>
            <path id="Path_3492" data-name="Path 3492" d="M-70.327.827a4.99,4.99,0,0,1-1.2,3.445,4.28,4.28,0,0,1-3.333,1.386,4.06,4.06,0,0,1-3.192-1.33A4.843,4.843,0,0,1-79.238.978a4.942,4.942,0,0,1,1.226-3.462,4.249,4.249,0,0,1,3.3-1.347A4.165,4.165,0,0,1-71.487-2.5,4.8,4.8,0,0,1-70.327.827Zm-2.1.066a4.115,4.115,0,0,0-.542-2.16,2,2,0,0,0-1.812-1.089,2.025,2.025,0,0,0-1.855,1.089,4.17,4.17,0,0,0-.542,2.2,4.115,4.115,0,0,0,.542,2.16A2.041,2.041,0,0,0-74.8,4.177,2.015,2.015,0,0,0-72.989,3.07,4.072,4.072,0,0,0-72.427.893Z" transform="translate(135.14 7.821)"/>
            <path id="Path_3493" data-name="Path 3493" d="M-65.95,5.451h-1.816L-67.917,4.4h-.056A3.115,3.115,0,0,1-70.63,5.658a2.743,2.743,0,0,1-2.077-.824,2.584,2.584,0,0,1-.712-1.853,2.827,2.827,0,0,1,1.4-2.546A7.242,7.242,0,0,1-68.1-.426V-.6q0-1.8-1.889-1.8a4.232,4.232,0,0,0-2.372.674l-.411-1.328a5.834,5.834,0,0,1,3.121-.786q3.567,0,3.571,3.764v3.35A14.21,14.21,0,0,0-65.95,5.451Zm-2.1-3.127V.922Q-71.4.864-71.4,2.755a1.37,1.37,0,0,0,.388,1.067,1.415,1.415,0,0,0,.988.355,2.043,2.043,0,0,0,1.237-.421,1.723,1.723,0,0,0,.7-1.077A1.712,1.712,0,0,0-68.05,2.325Z" transform="translate(140.552 7.821)"/>
            <path id="Path_3494" data-name="Path 3494" d="M-59.409,7.374H-61.2L-61.3,5.913h-.056A3.024,3.024,0,0,1-64.276,7.58a3.424,3.424,0,0,1-2.733-1.291,5.03,5.03,0,0,1-1.085-3.35A5.275,5.275,0,0,1-66.915-.638a3.626,3.626,0,0,1,2.808-1.274A2.727,2.727,0,0,1-61.544-.676h.039V-5.9h2.025V4.923Q-59.48,6.251-59.409,7.374Zm-2.1-3.837V2.02a2.977,2.977,0,0,0-.056-.637A2.3,2.3,0,0,0-62.292.157a1.988,1.988,0,0,0-1.353-.5,2.076,2.076,0,0,0-1.779.9,3.854,3.854,0,0,0-.648,2.3,3.593,3.593,0,0,0,.621,2.191,2.082,2.082,0,0,0,1.768.9,1.949,1.949,0,0,0,1.6-.749A2.493,2.493,0,0,0-61.5,3.537Z" transform="translate(145.504 5.899)"/>
            <path id="Path_3495" data-name="Path 3495" d="M-50.337.827a4.99,4.99,0,0,1-1.2,3.445,4.275,4.275,0,0,1-3.333,1.386,4.071,4.071,0,0,1-3.192-1.33A4.843,4.843,0,0,1-59.248.978a4.942,4.942,0,0,1,1.226-3.462,4.252,4.252,0,0,1,3.306-1.347A4.157,4.157,0,0,1-51.5-2.5,4.8,4.8,0,0,1-50.337.827Zm-2.1.066a4.115,4.115,0,0,0-.542-2.16,2,2,0,0,0-1.816-1.089,2.033,2.033,0,0,0-1.855,1.089,4.17,4.17,0,0,0-.542,2.2,4.115,4.115,0,0,0,.542,2.16,2.041,2.041,0,0,0,1.835,1.089A2.021,2.021,0,0,0-52.995,3.07,4.106,4.106,0,0,0-52.433.893Z" transform="translate(153.731 7.821)"/>
            <path id="Path_3496" data-name="Path 3496" d="M-45.154,5.454h-2.021V.243q0-2.409-1.835-2.409a1.819,1.819,0,0,0-1.459.662A2.339,2.339,0,0,0-51.031.056v5.4h-2.025v-6.5q0-1.2-.071-2.6h1.776l.095,1.422h.056a2.952,2.952,0,0,1,1.048-1.1,3.425,3.425,0,0,1,1.835-.511,2.9,2.9,0,0,1,2.115.824A4,4,0,0,1-45.154,0Z" transform="translate(159.424 7.819)"/>
            <path id="Path_3497" data-name="Path 3497" d="M-39.273-1.129H-41.5v4.42c0,1.123.4,1.685,1.179,1.685a3.562,3.562,0,0,0,.9-.095l.052,1.534a4.544,4.544,0,0,1-1.571.226,2.418,2.418,0,0,1-1.87-.73,3.568,3.568,0,0,1-.675-2.453V-1.129h-1.33V-2.644h1.33V-4.312l1.982-.6v2.264h2.227v1.517Z" transform="translate(167.155 6.819)"/>
            <path id="Path_3498" data-name="Path 3498" d="M-32.588,7.374h-2.025V2.2q0-2.446-1.832-2.447a1.931,1.931,0,0,0-1.93,1.419,2.542,2.542,0,0,0-.095.728V7.372h-2.021V-5.9h2.021V-.416h.039a3.057,3.057,0,0,1,2.733-1.5,2.819,2.819,0,0,1,2.081.824,4.143,4.143,0,0,1,1.029,3.051Z" transform="translate(171.177 5.899)"/>
            <path id="Path_3499" data-name="Path 3499" d="M-26.774.48a4.885,4.885,0,0,1-.075.917h-6.066a2.653,2.653,0,0,0,.878,2.059,3.013,3.013,0,0,0,1.986.637,6.7,6.7,0,0,0,2.453-.43l.317,1.405a7.617,7.617,0,0,1-3.053.562,4.41,4.41,0,0,1-3.322-1.245,4.586,4.586,0,0,1-1.206-3.341A5.207,5.207,0,0,1-33.74-2.382a3.868,3.868,0,0,1,3.181-1.459,3.384,3.384,0,0,1,2.974,1.459A4.857,4.857,0,0,1-26.774.48ZM-28.7-.043A2.723,2.723,0,0,0-29.1-1.6a1.767,1.767,0,0,0-1.61-.843,1.92,1.92,0,0,0-1.61.824,3.062,3.062,0,0,0-.6,1.573Z" transform="translate(176.409 7.813)"/>
          </g>
        </g>
      </g>
    </g>
  </g>
</svg>
