<svg id="Group_104009" data-name="Group 104009" xmlns="http://www.w3.org/2000/svg" width="3495.094" height="715.754" viewBox="0 0 3495.094 715.754">
  <g id="Group_101" data-name="Group 101" transform="translate(1133.168 0.189)">
    <g id="Group_94" data-name="Group 94" transform="translate(0 499.077)">
      <path id="Path_174" data-name="Path 174" d="M200.455,1436.14l6.631-13.035c11.454,11.207,31.812,19.448,52.872,19.448,29.984,0,43.019-12.579,43.019-28.382,0-43.938-98.628-16.93-98.628-76.205,0-23.569,18.313-43.937,59.038-43.937,18.085,0,36.852,5.267,49.66,14.19l-5.722,13.5a82.531,82.531,0,0,0-43.938-13.272c-29.292,0-42.327,13.054-42.327,29.063,0,43.938,98.628,17.384,98.628,75.751,0,23.561-18.767,43.7-59.73,43.7C235.923,1456.961,212.364,1448.5,200.455,1436.14Z" transform="translate(-200.455 -1284.649)" fill="#fff"/>
      <path id="Path_175" data-name="Path 175" d="M214.673,1359.207c0-35.922,26.09-61.1,62.013-61.1,20.378,0,37.544,8.016,47.15,23.807l-12.126,8.242c-8.242-12.127-21.06-17.856-35.024-17.856-26.317,0-45.529,18.765-45.529,46.91,0,28.373,19.212,46.914,45.529,46.914,13.964,0,26.782-5.494,35.024-17.621l12.126,8.231c-9.606,15.575-26.772,23.817-47.15,23.817C240.763,1420.548,214.673,1395.141,214.673,1359.207Z" transform="translate(-74.163 -1248.453)" fill="#fff"/>
      <path id="Path_176" data-name="Path 176" d="M339.507,1393.2v69.791H323.26V1394.8c0-25.4-13.282-38.453-36.16-38.453-25.863,0-42.109,16.029-42.109,43.482v63.159H228.753V1293.2H244.99v70.472c8.924-13.954,24.726-21.969,45.084-21.969C319.366,1341.7,339.507,1358.647,339.507,1393.2Z" transform="translate(50.903 -1292.049)" fill="#fff"/>
      <path id="Path_177" data-name="Path 177" d="M243.248,1359.207c0-35.694,26.09-61.1,61.331-61.1s61.1,25.408,61.1,61.1-25.862,61.342-61.1,61.342S243.248,1394.9,243.248,1359.207Zm105.951,0c0-28.146-18.994-46.91-44.62-46.91s-44.847,18.765-44.847,46.91,19.212,46.914,44.847,46.914S349.2,1387.363,349.2,1359.207Z" transform="translate(179.655 -1248.453)" fill="#fff"/>
      <path id="Path_178" data-name="Path 178" d="M257.768,1359.207c0-35.694,26.09-61.1,61.331-61.1s61.1,25.408,61.1,61.1-25.863,61.342-61.1,61.342S257.768,1394.9,257.768,1359.207Zm105.951,0c0-28.146-18.995-46.91-44.62-46.91s-44.847,18.765-44.847,46.91,19.212,46.914,44.847,46.914S363.719,1387.363,363.719,1359.207Z" transform="translate(308.63 -1248.453)" fill="#fff"/>
      <path id="Path_179" data-name="Path 179" d="M273.516,1429.574V1293.2h16.237V1428.2c0,14.19,6.641,21.968,20.141,21.968a28.434,28.434,0,0,0,10.989-2.056l1.137,13.51a45.816,45.816,0,0,1-14.646,2.52C285.4,1464.144,273.516,1451.089,273.516,1429.574Z" transform="translate(448.512 -1292.049)" fill="#fff"/>
      <path id="Path_180" data-name="Path 180" d="M280.3,1304.63a11.719,11.719,0,0,1,11.9-11.434c6.631,0,11.889,5.029,11.889,11.217a11.895,11.895,0,0,1-23.787.217Zm3.667,38H300.2v120.358H283.967Z" transform="translate(508.771 -1292.049)" fill="#fff"/>
      <path id="Path_181" data-name="Path 181" d="M397.654,1349.6v69.79H381.407V1351.2c0-25.4-13.282-38.453-36.161-38.453-25.862,0-42.109,16.028-42.109,43.483v63.157H286.9V1299.033h15.555v22.187c8.7-14.646,24.943-23.115,45.766-23.115C377.513,1298.1,397.654,1315.053,397.654,1349.6Z" transform="translate(567.396 -1248.453)" fill="#fff"/>
      <path id="Path_182" data-name="Path 182" d="M424.975,1299.033v105.714c0,41.418-20.368,60.193-60.175,60.193-21.969,0-43.483-6.65-56.083-18.54l8.252-12.362c11.434,10.3,28.837,16.475,47.377,16.475,30.418,0,44.392-13.953,44.392-43.7v-15.338c-10.08,15.338-27.246,23.341-46.913,23.341-34.332,0-60.432-24.023-60.432-58.581s26.1-58.13,60.432-58.13c20.121,0,37.524,8.251,47.584,24.034v-23.105Zm-15.782,57.2c0-26.081-19.231-43.937-45.776-43.937s-45.529,17.856-45.529,43.938,18.994,44.174,45.529,44.174S409.193,1382.323,409.193,1356.234Z" transform="translate(696.14 -1248.453)" fill="#fff"/>
      <path id="Path_183" data-name="Path 183" d="M323.37,1436.14,330,1423.1c11.454,11.207,31.813,19.448,52.872,19.448,29.984,0,43.019-12.579,43.019-28.382,0-43.938-98.627-16.93-98.627-76.205,0-23.569,18.3-43.937,59.038-43.937,18.075,0,36.852,5.267,49.659,14.19l-5.722,13.5a82.531,82.531,0,0,0-43.938-13.272c-29.292,0-42.327,13.054-42.327,29.063,0,43.938,98.628,17.384,98.628,75.751,0,23.561-18.767,43.7-59.73,43.7C358.839,1456.961,335.279,1448.5,323.37,1436.14Z" transform="translate(891.342 -1284.649)" fill="#fff"/>
      <path id="Path_184" data-name="Path 184" d="M338.446,1304.63a11.727,11.727,0,0,1,11.908-11.434c6.631,0,11.889,5.029,11.889,11.217a11.9,11.9,0,0,1-23.8.217Zm3.676,38h16.237v120.358H342.122Z" transform="translate(1025.255 -1292.049)" fill="#fff"/>
      <path id="Path_185" data-name="Path 185" d="M543.676,1349.6v69.79H527.419V1351.2c0-25.4-12.818-38.453-34.549-38.453-24.726,0-40.281,16.028-40.281,43.483v63.157H436.352V1351.2c0-25.4-12.818-38.453-34.787-38.453-24.489,0-40.281,16.028-40.281,43.483v63.157H345.047V1299.033H360.6V1321c8.459-14.429,24.034-22.9,44.155-22.9,19.914,0,35.479,8.469,42.8,25.408,8.7-15.565,25.863-25.408,47.594-25.408C524.445,1298.1,543.676,1315.053,543.676,1349.6Z" transform="translate(1083.889 -1248.453)" fill="#fff"/>
      <path id="Path_186" data-name="Path 186" d="M491.585,1359.207c0,36.615-25.635,61.342-59.948,61.342-19.231,0-35.705-8.242-45.786-23.817v67.054H369.615V1299.033H385.18v23.8c9.843-16.019,26.535-24.726,46.458-24.726C465.95,1298.1,491.585,1322.83,491.585,1359.207Zm-16.247,0c0-27.917-19.449-46.91-44.857-46.91-25.635,0-44.847,18.993-44.847,46.91,0,28.156,19.212,46.914,44.847,46.914C455.889,1406.121,475.338,1387.363,475.338,1359.207Z" transform="translate(1302.115 -1248.453)" fill="#fff"/>
      <path id="Path_187" data-name="Path 187" d="M385.316,1429.574V1293.2h16.237V1428.2c0,14.19,6.641,21.968,20.141,21.968a28.434,28.434,0,0,0,10.99-2.056l1.136,13.51a45.811,45.811,0,0,1-14.646,2.52C397.2,1464.144,385.316,1451.089,385.316,1429.574Z" transform="translate(1441.58 -1292.049)" fill="#fff"/>
      <path id="Path_188" data-name="Path 188" d="M392.1,1304.63A11.718,11.718,0,0,1,404,1293.2c6.631,0,11.9,5.029,11.9,11.217a11.9,11.9,0,0,1-23.8.217Zm3.666,38H412v120.358H395.766Z" transform="translate(1501.839 -1292.049)" fill="#fff"/>
      <path id="Path_189" data-name="Path 189" d="M435.077,1293.081c8.934,0,18.075,2.52,24.034,7.561l-5.495,12.126c-4.585-3.895-10.979-5.96-17.848-5.96-13.964,0-21.287,7.788-21.287,22.661v14.191h37.07v13.718H414.937v106.641H398.7V1328.777C398.7,1307.272,411.507,1293.081,435.077,1293.081Zm76.9,12.364a11.919,11.919,0,1,1-11.9-11.218C506.7,1294.227,511.973,1299.257,511.973,1305.445Zm-20.141,38.215H508.09v120.358H491.833Z" transform="translate(1560.464 -1293.081)" fill="#fff"/>
      <path id="Path_190" data-name="Path 190" d="M513.6,1390.337l9.141,10.524c-10.752,12.818-27.227,19.687-46.221,19.687-37.533,0-63.4-25.645-63.4-61.342s24.944-61.1,59.513-61.1c32.247,0,56.518,23.58,57.654,57.447l-98.855,19.211c5.959,19.469,22.888,31.358,45.311,31.358C491.633,1406.121,504.668,1400.862,513.6,1390.337Zm-84.684-32.266a34.1,34.1,0,0,0,.237,5.03l84.9-16.475c-3.439-19.687-19.231-34.55-41.417-34.55C447,1312.078,428.918,1330.826,428.918,1358.072Z" transform="translate(1688.603 -1248.453)" fill="#fff"/>
      <path id="Path_191" data-name="Path 191" d="M549.092,1293.2v169.791H533.527v-23.8c-9.833,16.247-26.544,24.953-46.448,24.953-34.332,0-59.967-24.953-59.967-61.341s25.635-61.1,59.967-61.1c19.212,0,35.686,8.252,45.766,23.807V1293.2ZM533.063,1402.8c0-28.146-19.211-46.911-44.61-46.911-25.635,0-44.847,18.766-44.847,46.911s19.212,46.913,44.847,46.913C513.851,1449.716,533.063,1430.959,533.063,1402.8Z" transform="translate(1812.834 -1292.049)" fill="#fff"/>
    </g>
    <g id="Group_100" data-name="Group 100">
      <g id="Group_96" data-name="Group 96" transform="translate(2205.15 92.144)">
        <g id="Group_95" data-name="Group 95">
          <path id="Path_192" data-name="Path 192" d="M580.367,1251.9v86.255H543.614c-9.131,0-17.492-.5-24.992,5.722-5.248,4.358-8.805,10.842-8.8,17.64q.03,25.677.02,51.341v149.286H423.591V1338.158a86.234,86.234,0,0,1,86.255-86.255Z" transform="translate(-423.591 -1251.903)" fill="#fff"/>
        </g>
      </g>
      <path id="Path_193" data-name="Path 193" d="M488.106,1251.9a122.4,122.4,0,0,0-82.44,31.812,122.759,122.759,0,0,0-205.211,91v187.434h87.273V1376.3c0-.534,0-1.067.049-1.592a37.137,37.137,0,0,1,74.208,0c.04.524.04,1.058.04,1.592v185.842h90.514V1376.3c0-.534,0-1.067.039-1.592a37.163,37.163,0,0,1,74.257,0c.04.524.04,1.058.04,1.592v185.842h84.031V1374.713A122.792,122.792,0,0,0,488.106,1251.9Z" transform="translate(-200.455 -1159.759)" fill="#fff"/>
      <path id="Path_194" data-name="Path 194" d="M405.2,1251.9a155.122,155.122,0,1,0,71.1,293.008v17.235h84.041V1407.01c0-2.174-.04-4.338-.118-6.474A155.136,155.136,0,0,0,405.2,1251.9Zm74.1,161.125c-.089.81-.129,1.592-.247,2.372a71.994,71.994,0,0,1-2.747,13.341,74.359,74.359,0,1,1,2.955-28.205c.119,1.068.158,2.174.2,3.232s.089,2.174.089,3.241C479.549,1409.017,479.46,1411.022,479.3,1413.028Z" transform="translate(240.226 -1159.759)" fill="#fff"/>
      <path id="Path_195" data-name="Path 195" d="M539.241,1251.9a155.126,155.126,0,1,0,155.136,155.126A155.122,155.122,0,0,0,539.241,1251.9Zm57.358,202.4a74.33,74.33,0,1,1,16.979-47.278A74.164,74.164,0,0,1,596.6,1454.307Z" transform="translate(1430.912 -1159.768)" fill="#fff"/>
      <g id="Group_97" data-name="Group 97" transform="translate(880.406 92.143)">
        <path id="Path_196" data-name="Path 196" d="M289.544,1279.158" transform="translate(-289.524 -1009.808)" fill="#fff"/>
        <path id="Path_197" data-name="Path 197" d="M310.441,1252.92a128.384,128.384,0,0,0-15.684,8.221A90.342,90.342,0,0,1,310.441,1252.92Z" transform="translate(-243.22 -1242.868)" fill="#fff"/>
        <path id="Path_198" data-name="Path 198" d="M295.266,1275.081a10.451,10.451,0,0,1-.939-.95l.81-1.105C295.186,1273.727,295.226,1274.419,295.266,1275.081Z" transform="translate(-247.039 -1064.285)" fill="#fff"/>
        <path id="Path_199" data-name="Path 199" d="M295.266,1275.081a10.451,10.451,0,0,1-.939-.95l.81-1.105C295.186,1273.727,295.226,1274.419,295.266,1275.081Z" transform="translate(-247.039 -1064.285)" fill="#fff"/>
        <path id="Path_200" data-name="Path 200" d="M442.6,1555.861a3.584,3.584,0,0,1,.445-.04C358.6,1580.627,289.542,1524.5,289.542,1524.5l35.409-46.993,11.879-15.764a10.178,10.178,0,0,0,.939.95c.286.286.613.572.939.9a89.683,89.683,0,0,0,75.364,21.771,6.183,6.183,0,0,0,.86.04,22.676,22.676,0,0,0,11.454-3.064h.049a23.034,23.034,0,0,0-10.11-42.98c0-.049-.089,0-.089,0a6.39,6.39,0,0,0-1.3-.087,22.328,22.328,0,0,0-10.031,2.332h-.04a93.593,93.593,0,0,1-59.641-11.79,93.731,93.731,0,0,1-32.257-31.11c-1.354-2.086-2.579-4.209-3.726-6.423a93.777,93.777,0,0,1,31.594-121.94.655.655,0,0,0,.247-.169,128.394,128.394,0,0,1,15.684-8.222,1.468,1.468,0,0,0,.366-.17c78.843-34.183,157.389,31.28,157.389,31.28l-32.128,30.081-16.01,14.983-3.884,3.646a98.251,98.251,0,0,0-48.711-16.01,25.447,25.447,0,0,0-10.733,0,24.575,24.575,0,0,0,4.675,48.554,3.923,3.923,0,0,0,.692.038,24.26,24.26,0,0,0,10.07-2.174,89.053,89.053,0,0,1,12.857-.9,92.121,92.121,0,0,1,47.565,13.143,80.585,80.585,0,0,1,9.29,6.425,88.963,88.963,0,0,1,17.927,18.461A92.582,92.582,0,0,1,442.6,1555.861Z" transform="translate(-289.542 -1251.902)" fill="#fff"/>
        <path id="Path_201" data-name="Path 201" d="M295.266,1275.081a10.451,10.451,0,0,1-.939-.95l.81-1.105C295.186,1273.727,295.226,1274.419,295.266,1275.081Z" transform="translate(-247.039 -1064.285)" fill="#fff"/>
      </g>
      <g id="Group_98" data-name="Group 98" transform="translate(1194.68 92.143)">
        <path id="Path_202" data-name="Path 202" d="M321.345,1279.158" transform="translate(-321.325 -1009.808)" fill="#fff"/>
        <path id="Path_203" data-name="Path 203" d="M342.232,1252.92a128.256,128.256,0,0,0-15.674,8.221A90.226,90.226,0,0,1,342.232,1252.92Z" transform="translate(-275.02 -1242.868)" fill="#fff"/>
        <path id="Path_204" data-name="Path 204" d="M327.066,1275.081a10.451,10.451,0,0,1-.939-.95l.82-1.105C326.987,1273.727,327.026,1274.419,327.066,1275.081Z" transform="translate(-278.849 -1064.285)" fill="#fff"/>
        <path id="Path_205" data-name="Path 205" d="M327.066,1275.081a10.451,10.451,0,0,1-.939-.95l.82-1.105C326.987,1273.727,327.026,1274.419,327.066,1275.081Z" transform="translate(-278.849 -1064.285)" fill="#fff"/>
        <path id="Path_206" data-name="Path 206" d="M474.394,1555.861a3.657,3.657,0,0,1,.455-.04c-84.457,24.806-153.506-31.316-153.506-31.316l35.409-46.993,11.869-15.764a10.2,10.2,0,0,0,.938.95c.287.286.613.572.939.9a89.684,89.684,0,0,0,75.364,21.771,6.179,6.179,0,0,0,.86.04,22.738,22.738,0,0,0,11.464-3.064h.04a23.034,23.034,0,0,0-10.11-42.98c0-.049-.089,0-.089,0a6.388,6.388,0,0,0-1.3-.087,22.356,22.356,0,0,0-10.03,2.332h-.04a93.592,93.592,0,0,1-59.641-11.79,93.728,93.728,0,0,1-32.257-31.11c-1.354-2.086-2.58-4.209-3.726-6.423a93.769,93.769,0,0,1,31.6-121.94.859.859,0,0,0,.247-.169,128.266,128.266,0,0,1,15.674-8.222,1.461,1.461,0,0,0,.365-.17c78.843-34.183,157.4,31.28,157.4,31.28l-32.138,30.081-16,14.983-3.894,3.646a98.252,98.252,0,0,0-48.711-16.01,25.4,25.4,0,0,0-10.722,0,24.574,24.574,0,0,0,4.665,48.554,3.978,3.978,0,0,0,.692.038,24.226,24.226,0,0,0,10.07-2.174,89.155,89.155,0,0,1,12.857-.9,92.092,92.092,0,0,1,47.564,13.143,80.567,80.567,0,0,1,9.29,6.425,89.265,89.265,0,0,1,17.937,18.461,92.581,92.581,0,0,1-63.535,146.548Z" transform="translate(-321.343 -1251.902)" fill="#fff"/>
        <path id="Path_207" data-name="Path 207" d="M327.066,1275.081a10.451,10.451,0,0,1-.939-.95l.82-1.105C326.987,1273.727,327.026,1274.419,327.066,1275.081Z" transform="translate(-278.849 -1064.285)" fill="#fff"/>
      </g>
      <g id="Group_99" data-name="Group 99" transform="translate(1508.945)">
        <path id="Path_208" data-name="Path 208" d="M579.384,1559.333l-20.22,85.633-54.116-1.591a84.067,84.067,0,0,1-84.031-84.042v-125.26H353.143l19.4-84h48.474V1242.58h84.031v107.492h67.873l-19.4,84H505.047V1536.05c0,5.861,1.166,10.624,5.05,15.417a22.926,22.926,0,0,0,7.323,6.1c5.149,2.608,10.565,1.769,16.079,1.769h45.885Z" transform="translate(-353.143 -1242.58)" fill="#fff"/>
      </g>
    </g>
  </g>
  <g id="Group_103" data-name="Group 103" transform="translate(0 0)">
    <ellipse id="Ellipse_81" data-name="Ellipse 81" cx="86.483" cy="86.483" rx="86.483" ry="86.483" transform="translate(372.467)" fill="#fff"/>
    <path id="Path_209" data-name="Path 209" d="M278.131,1375.984a76.456,76.456,0,0,1-152.912,0c0-.455,0-.87.039-1.285v-.415a8.064,8.064,0,0,1,.03-.83c0-.494,0-.949.04-1.394.039-1.1.119-2.154.227-3.173.079-.909.188-1.769.306-2.678a12.767,12.767,0,0,1,.148-1.285l.336-2.145c.079-.455.158-.948.267-1.4a22.135,22.135,0,0,1,.6-2.678c.119-.6.267-1.235.415-1.849a2.956,2.956,0,0,1,.148-.483c.306-1.206.642-2.412,1.018-3.628.079-.148.119-.335.2-.483.336-1.1.712-2.154,1.127-3.213a15.79,15.79,0,0,1,.682-1.729c.3-.791.643-1.591,1.018-2.383.227-.562.484-1.125.751-1.688a68.9,68.9,0,0,1,4.487-8.114c.642-1.058,1.324-2.074,2.036-3.053a1.883,1.883,0,0,1,.346-.5c.791-1.126,1.621-2.224,2.49-3.28a.182.182,0,0,1,.109-.148c.87-1.1,1.739-2.115,2.678-3.173a13.8,13.8,0,0,1,1.057-1.087v-.039l.04-.04v-.04c.6-.642,1.166-1.205,1.769-1.809.978-.979,2-1.966,3.054-2.9.988-.91,2.036-1.77,3.064-2.6a1.243,1.243,0,0,1,.336-.267c1.018-.83,2.075-1.62,3.133-2.382s2.075-1.464,3.162-2.145a1.957,1.957,0,0,1,.534-.335c1.057-.684,2.144-1.325,3.281-1.968a72.552,72.552,0,0,1,13.045-5.811c.8-.3,1.591-.562,2.421-.791,1.087-.336,2.184-.643,3.321-.9.86-.229,1.729-.455,2.6-.613.563-.148,1.127-.257,1.7-.375.6-.11,1.245-.229,1.848-.336,1.206-.189,2.451-.376,3.656-.5.978-.108,1.957-.228,2.945-.257.672-.079,1.354-.119,2.075-.158,1.275-.069,2.6-.109,3.913-.109s2.649.04,3.923.109c.721.039,1.4.079,2.075.158.988.029,1.967.148,2.945.257,1.206.119,2.451.306,3.656.5.6.107,1.245.226,1.848.336.573.118,1.136.227,1.7.375.87.158,1.739.385,2.6.613,1.136.256,2.233.563,3.32.9.791.229,1.621.494,2.421.791a72.685,72.685,0,0,1,13.579,6.117c.83.445,1.66.939,2.451,1.463,1.433.869,2.866,1.857,4.22,2.836,1.057.752,2.075,1.5,3.054,2.332.909.682,1.779,1.434,2.609,2.154a75.654,75.654,0,0,1,5.465,5.356h.04a71.217,71.217,0,0,1,6.789,8.411c.751,1.057,1.473,2.115,2.155,3.241a69.315,69.315,0,0,1,4.3,7.846l.672,1.474c.454,1.017.909,2.035,1.285,3.093a3.954,3.954,0,0,1,.267.6c.484,1.284.978,2.6,1.393,3.924l.119.335c.415,1.364.83,2.719,1.166,4.111.109.455.227.91.3,1.365a32.782,32.782,0,0,1,.761,3.389,7.694,7.694,0,0,1,.148.8l.454,2.709.109.908c.119.939.227,1.928.307,2.866.109,1.019.188,2.075.227,3.173.039.444.039.9.039,1.394a8.031,8.031,0,0,1,.03.83v.415C278.131,1375.114,278.131,1375.529,278.131,1375.984Z" transform="translate(257.275 -736.689)" fill="#fff"/>
    <g id="Group_102" data-name="Group 102" transform="translate(106.414 90.547)">
      <ellipse id="Ellipse_82" data-name="Ellipse 82" cx="84.913" cy="84.913" rx="84.913" ry="84.913" transform="translate(0 291.525)" fill="#fff"/>
      <ellipse id="Ellipse_83" data-name="Ellipse 83" cx="84.913" cy="84.913" rx="84.913" ry="84.913" transform="translate(0 291.525)" fill="#fff"/>
      <path id="Path_210" data-name="Path 210" d="M134.783,1276.218a156.165,156.165,0,0,1-14.023-14.795C125.642,1266.137,130.356,1271.088,134.783,1276.218Z" transform="translate(111.254 -1165.652)" fill="#fff"/>
      <ellipse id="Ellipse_84" data-name="Ellipse 84" cx="84.913" cy="84.913" rx="84.913" ry="84.913" transform="translate(0 291.525)" fill="#fff"/>
      <path id="Path_211" data-name="Path 211" d="M98.8,1251.732" transform="translate(-83.824 -1251.732)" fill="#fff"/>
      <path id="Path_212" data-name="Path 212" d="M140.721,1281.028,118.93,1259.86C126.124,1266.4,133.4,1273.429,140.721,1281.028Z" transform="translate(94.999 -1179.536)" fill="#fff"/>
    </g>
    <ellipse id="Ellipse_85" data-name="Ellipse 85" cx="84.913" cy="84.913" rx="84.913" ry="84.913" transform="translate(641.661 382.072)" fill="#fff"/>
    <path id="Path_213" data-name="Path 213" d="M1004.415,1373.627A121.533,121.533,0,0,1,978,1449.189c-2.115,2.283-4.151,4.6-6.1,7.036-13.48,16.841-35.9,28.688-56.311,34.362-22.117,6.146-45.361,4.842-67.448-.742C802,1478.2,751.254,1487.108,709.6,1509.385a210.721,210.721,0,0,0-72.3,63.908c-6.1,8.619-13.569,18.688-16.87,28.779-2.164,6.621-2.233,13.667-4.516,20.309a76.058,76.058,0,0,1-10.5,20.21,74.384,74.384,0,0,1-130.262-19.854c-2.54-7.422-2.332-15.605-5.554-22.682-13.341-29.3-36.891-55.44-62.6-74.444a208.5,208.5,0,0,0-87.8-37.642,211.1,211.1,0,0,0-49.1-2.7c-19.221,1.166-37.376,8.736-56.686,9.565a122.79,122.79,0,0,1-53.237-9.634,119.541,119.541,0,0,1-22.473-12.552,128.363,128.363,0,0,1-18.688-16.425c-2.154-2.271-4.18-4.6-6.1-7.036a121.531,121.531,0,0,1-26.416-75.562,121.376,121.376,0,0,1,121.367-121.368h.573s93.2-13.656,197.918,80.8a5.994,5.994,0,0,1,.484.415l21.791,21.168c-7.323-7.6-14.6-14.626-21.791-21.168a200.2,200.2,0,0,1,17.848,15.16c.079.078.119.158.237.286a161.863,161.863,0,0,0,14.063,14.873,156.792,156.792,0,0,0,227.061-14.962c.04-.039.079-.119.158-.2a204.326,204.326,0,0,1,18.095-15.367,1.571,1.571,0,0,1,.237-.208c104.715-94.457,197.918-80.8,197.918-80.8h.573A121.376,121.376,0,0,1,1004.415,1373.627Z" transform="translate(-86.515 -1162.603)" fill="#fff"/>
  </g>
</svg>
