<svg xmlns="http://www.w3.org/2000/svg" width="697.596" height="778.83" viewBox="0 0 697.596 778.83">
  <g id="Group_71411" data-name="Group 71411" transform="translate(-611.476 -6655.528)">
    <g id="Group_68676" data-name="Group 68676" transform="translate(228.759 6471.762)">
      <g id="Group_68671" data-name="Group 68671" transform="translate(383.241 184.238)">
        <g id="Group_68653" data-name="Group 68653">
          <path id="Path_133200" data-name="Path 133200" d="M387.1,226.478s-9.019-1.756-10.523-5.013,2.255-8.517-6.514-9.769-9.519,2.253-12.776-6.514-9.271-6.514-8.52-14.782,3.257-9.269,1.254-20.294,0-6.764,5.762-11.023,7.516-6.264,5.011-9.269-6.514-.25-6.012-8.018-8.018-1.252-10.021-6.514-1.254-3.757-7.016-6.262-6.514,0-6.264-6.766-3.757-5.26,3.007-7.014c0,0,1.441.877,3.7-1.753s5.448-7.328,8.078-7.328,3.759-1.5,6.014,0,2.066,1.878,5.26,1.878,1.991-1.878,1.277-5.073,5.113-2.066,9.809-2.066,5.637-2.632,8.457-2.443,12.024,1.691,15.406,2.066S398.5,110.856,400,111.608s10.336,1.5,14.469,5.448,4.134,6.764,9.394,9.584,2.255,7.516,4.885,8.268,10.523,3.005,11.275,4.509-.187,4.886,2.818,5.45,12.027-3.946,14.469-4.511,2.818-5.073,6.764-5.448,13.9.375,16.535-.939,1.5-2.82,4.321-1.316.939,3.007,5.637,3.195,7.891-1.127,10.333,4.509,3.572,4.134,1.881,10.148-.377,8.642-3.946,10.521-.939,4.7-6.577,8.832-7.141,4.134-8.08,6.764.187,2.63-6.2,5.073-7.141,4.886-6.014,7.705,2.82,4.321.19,6.577-1.129,4.884,2.066,5.635,7.7-1.878,7.516,2.632,1.316,7.326,3.007,10.333.375,7.7-1.878,8.268-6.389,1.127-8.268,2.63-2.443,2.945-5.075,1,0-5.7-2.818-6.264-5.825-.187-6.577,2.63-.187,4.134,2.255,7.516,3.946.752,3.569,6.012-3.007,4.323,5.45,7.705,5.448,10.71,8.83,11.462.564-.19,5.073,3.944,6.389,1.129,11.275,4.886,5.373,2.63,7.008,6.014,1.26,3.569,7.649,5.448,9.207,5.26,8.08,7.328-3.195-.564-5.075,2.63-1.127,6.577-5.073,7.328-4.134,5.073-4.886,7.328,1.881,3.382-2.443,5.26,0,7.893-1.691,10.336-2.63,5.26.564,7.516,7.7,1.127,9.771,2.255.187,1.691,4.7,2.443,2.443.187,5.635,3.382,6.766,8.455,13.343,9.771,4.134,4.321,9.394,5.26,7.516.939,11.65,3.946,7.516.375,8.642,3.569,2.255,3.946,6.014,3.946,4.886-2.63,10.9-1.88,3.757,4.511,6.951,1.88,10.148-3.195,14.282,4.321,7.891,7.328,11.65,8.268,3.569,1.691,8.455,1.5,5.448-2.01,7.516.029,3.759,2.976,6.577,2.976,4.885-1.5,9.584,0,9.582,3.384,16.158,3.571,2.443.187,8.08,1.878,15.219-1.878,16.535-3.759,2.066-10.333,1.691-12.776-4.134-6.012-3.569-9.394,1.5-3.572,2.63-8.268,2.066-6.2,4.886-8.08,4.7-3.759,6.764-3.382,6.389,4.886,5.448,8.268a23.843,23.843,0,0,0,.133,12.214c1.183,3.757-.133,8.83,6.068,10.9s13.715-.377,15.6,2.63,4.134-2.005,9.144-3.007,4.761-.5,15.281-1.252,16.285.5,22.549-1,9.519-1,10.021-3.257,2-14.282-4.511-14.282-9.771-.752-9.519-3.507,1-8.268,4.759-8.517,6.766,1.252,11.275-2.005-.752-5.011,7.266-6.764,7.516-1.5,10.021-7.516,2.755-10.773,12.776-11.525,9.271-6.514,16.285-11.023,9.521-7.266,14.532-5.512,6.514,3.007,12.024-.5,13.278-8.27,15.032-4.261,1.254,3.509,0,6.766-1.754,3.005,4.761,3.255,2.005,6.766,1,10.023-2.253,9.017.5,8.767,4.761-5.011,10.523-3.005,7.766.25,10.021,7.264,5.26,7.768,4.259,10.523-1.5-1.5-2.255,5.512-9.771,8.018-12.526,7.516-2.255-2.757-7.766-.5-10.021,5.762-15.284,6.764-2.253,11.275-6.262,18.291-8.268,20.042-9.521,22.547-6.764.752-5.512,4.259,6.014,6.764,5.762,13.028-1,8.767.752,10.021,1,6.262-2,6.012-3.507-2.988-7.266.008-3.005,14.271-5.762,14.523-1-.5-7.266,0-9.269-1.756-11.525-1.756,5.263,9.019,4.511,13.78-4.009,13.53-6.012,18.791-2.005,6.514-.252,9.519.252,8.769-2.505,9.271-6.012-1.5-8.767-3.509-5.01-3.757-4.761-10.021-.25-16.785-2.755-18.289-9.521,2.255-11.777,3.007-6.512,2.253-10.521,2-6.014-2.253-6.264-6.764-.25-13.528,2.755-16.033,2.505-3.257,7.518-3.759,7.014-.25,10.271-1.753,2-7.766,2.255-11.023-1.5-4.511,4.009-4.761,3.507-7.266-1.254-8.018-5.01-1.754-12.276-.752-9.269-4.007-15.783-.752-2.505,4.009-13.028,3.257-14.782,0-20.794-4.509-1-12.778-1.252-15.032.25-6.514-3.509-7.016-2,3.507-9.519,1.5-5.512-5.762-10.273-6.012-1,5.762-5.76,3.257-2.255-6.514-6.514-4.761-2.757,10.021-4.511,13.028.25,6.514,4.573,8.58,4.321,4.886,8.83,5.45,7.516,3.382,4.134,5.635-4.509,2.068-8.078,2.82.562,5.825-4.134,7.328-5.825,2.253-6.2,4.886,8.455,8.642,13.341,9.582,5.825,2.63,2.255,6.953-3.382,10.333-.752,12.776,2.068,3.759,3.007,5.637,6.951,3.569,5.26,10.146-.187,5.262.564,11.087,5.073,9.582-.752,11.837-5.637,0-10.146,3.007-4.134-2.068-5.45-3.946-5.45,0-8.832,6.764-1.691,6.6-6.951,8.091-3.195,1.681-9.771,4.123-6.2,6.387-6.012,11.65,2.066,8.268-1.691,10.9-.939,7.7-4.134,10.523-1.191,3.195-4.352,6.2-.346,3.195-7.487,3.759-6.575,2.818-9.582,4.509-4.7,3.759-5.825,2.255-1.5-3.946-2.82-4.134-4.134-.564-5.635,3.759,1.127,3.569-2.068,7.326-9.207,5.637-11.085,10.148-1.316,4.7-6.577,11.837-11.275,9.394-14.282,12.4-6.2,3.382-9.582,9.394-4.7,9.019-12.966,12.026-8.83,4.134-12.214,7.891-1.127,4.886-.375,7.141.187,7.328-7.7,9.207-8.268.564-15.032,1.691-6.953,8.455-10.335,13.341-7.141,3.946-9.771,1.88-3.569-2.068-7.139.187-7.705,8.455-7.705,14.657.564,28.937,1.88,34.01,5.825,7.516,2.818,9.769-3.569,5.637-2.068,7.893,6.766,2.63,3.946,7.7-4.509,16.16-8.268,21.233-4.509,4.509-4.886,10.146,1.691,17.287,0,22.36-1.127,2.632-2.443,11.65.564,9.584-3.005,9.584-1.316-1.691-6.954,3.007-3.195,10.71-7.7,12.024-7.7,10.9-6.389,11.087,5.263,1.691,1.316,3.193-5.45-1.5-9.019,2.632-4.885.562-8.455,8.078.939,9.959-10.336,15.6-5.073,8.832-11.085,6.953-2.255-.564-7.893-3.195-5.825.562-8.642-6.012-4.7-7.328-10.523-12.778-1.691-5.26-4.134-13.153-4.321-3.382-2.066-9.959,3.005-6.577,2.066-11.837-2.63,2.066-4.7,0,.564-7.516-3.569-15.6-4.321-7.893-4.321-12.4-6.389-7.516-9.584-13.341-1.691-8.644-7.328-15.783-6.2-1.129-8.268-13.718-2.443-9.019-3.944-22.735-.752-19.355-6.014-27.622-3.569-16.535-8.83-21.231-15.032-19.73-17.1-26.306-2.63-5.637-2.818-18.226-5.073-25.932-5.637-32.131.187-15.783,0-19.73-4.511-10.146-3.195-21.608.375-15.783,1.878-20.482-.562-18.039-1.127-23.487-2.63-4.3,0-8.257-1.5-6.4-2.63-9.03,3.005-6.764,0-8.832-9.207.187-8.457,6.954,4.134,10.146-1.5,13.715-2.255,11.837-11.65,12.214-15.6,1.691-23.112.752-5.825-8.08-12.966-12.026S235.968,498.492,230.52,495.3s-5.637-8.832-7.705-13.343-1.5-8.078,2.255-6.012,2.255,5.825,5.825,6.764,7.139,2.255,10.9-.187a71.852,71.852,0,0,1,12.027-6.012c3.757-1.5,7.326-5.825,4.321-7.516s-3.759-.939-13.718-1.129-8.268,3.759-15.406,0-5.637-7.7-8.832-10.333-9.394-5.637-7.516-9.019,6.389-2.255,3.946-3.946-1.316.564-5.263-.939-4.509-4.886-2.443-5.637,5.073.377,8.455-1.314,2.445-1.691,6.766-6.2,4.7-5.073,8.455-3.005,5.26,4.321,9.019,4.321,3.005,3.757,6.764,3.005,3.382-4.883,9.584-5.448,4.884-3.946,9.582-.187,9.771-.19,9.584-2.632,1.878-12.964-3.382-16.158-6.014-4.7-4.323-8.645,3.007-5.635-1.878-5.825-12.4,1.5-10.523-6.764,10.336-13.528,3.572-15.783-3.946-.564-8.268-3.382-11.275-9.959-7.328-13.153,3.382-.939,9.207-8.268,8.642-12.776,13.153-12.214,9.019.19,9.019,4.886,5.637-1.5,11.273-2.63,10.71,1.878,14.469-1.691,11.462-6.764,15.6-17.474,9.582-10.146,13.716-12.027,5.637-9.959,8.268-17.662,8.645-8.455,11.087-8.832,3.195-11.085,10.333-14.467,12.591-8.08,11.839-9.207-2.632-10.335-1.691-14.844,3.005-11.839,7.139-12.027a64.577,64.577,0,0,0,10.523-1.878Z" transform="translate(-207.735 -98.445)" fill="none" stroke="#532280" stroke-miterlimit="10" stroke-width="0.951"/>
          <g id="Group_68652" data-name="Group 68652" transform="translate(69.436 105.385)">
            <path id="Path_133201" data-name="Path 133201" d="M293.865,171.7s5.2-2.318,9.9-3.821,3.569-6.764,4.886-11.462,5.448-1.691,9.207-4.509,7.139-3.195,11.273-2.632,1.691,6.389,6.954,7.516,6.2-1.127,9.394.377,3.195,1.691,6.577.752,3.946,0,6.951,5.26a12.35,12.35,0,0,0,7.639,6.141" transform="translate(-183.933 -149.05)" fill="none" stroke="#9b3189" stroke-linecap="round" stroke-linejoin="round" stroke-width="0.714" stroke-dasharray="1.117"/>
            <path id="Path_133202" data-name="Path 133202" d="M374.829,180.39a12.4,12.4,0,0,0-1.429,5.51c0,3.005,3.609,4.509,1.429,6.2s-3.307.939-6.5,0-5.45-1.878-9.207-1.127-5.263-1.372-8.645,2.132-7.516,4.255-7.7,9.892,2.443,7.893-1.5,8.268-4.134-4.321-8.642-6.012-3.195-4.321-8.832-6.389-.939-3.005-4.321-7.328-9.771-.752-11.837-6.764,1.5-8.08-3.195-12.024-5.825-14.657-5.825-14.657" transform="translate(-178.789 -139.264)" fill="none" stroke="#9b3189" stroke-linecap="round" stroke-linejoin="round" stroke-width="0.714" stroke-dasharray="1.117"/>
            <path id="Path_133203" data-name="Path 133203" d="M276.421,194.857s1.5,5.825,6.012,6.2,16.348-.939,19.73,0,1.691,5.637,4.509,7.139,4.323.377,7.705,0,4.509,4.527,6.577.76,1.5-3.953,6.951-3.578,2.818-3.569,5.073-6.2,3.007-1.691,6.389-.752,3.757,2.63,5.825-3.572,4.7-3.005,4.886-7.7a37.178,37.178,0,0,0-.941-9.219" transform="translate(-202.817 -117.783)" fill="none" stroke="#9b3189" stroke-linecap="round" stroke-linejoin="round" stroke-width="0.714" stroke-dasharray="1.117"/>
            <path id="Path_133204" data-name="Path 133204" d="M319.468,183.566a81.364,81.364,0,0,1,3.74,9.14c1.878,5.45,3.569,4.7,8.268,6.951a84.583,84.583,0,0,0,12.4,4.634c4.321,1.381,6.387,1.756,16.346,1.756s13.153,1.5,16.912,0a27.364,27.364,0,0,1,7.36-1.756" transform="translate(-156.218 -111.686)" fill="none" stroke="#9b3189" stroke-linecap="round" stroke-linejoin="round" stroke-width="0.714" stroke-dasharray="1.117"/>
            <path id="Path_133205" data-name="Path 133205" d="M284.271,192.973s0,17.108,2.066,17.108,2.443-2.443,5.825-1.5,7.516-.939,8.455,2.63-1.293,3.946,4.144,6.389,3.936,2.63,2.809,7.891,3.005,5.073,6.577,6.954,1.314,9.394,3.195,12.589,4.134-.187,9.017-1.316,3.759-4.884,4.886-1.127-.562,9.771,3.007,9.771,5.45-1.316,5.26,2.443,5.825,5.825,8.645-.752,3.255,1.314,4.446-7.7.062-9.959-2.943-13.153-8.413,4.509-8.059-3.007.731-13.528,2.422-17.474-6.764-6.893-.564-10.587,4.7-8.578,6.954-11.4,9.017-5.158,9.017-5.158" transform="translate(-194.319 -109.519)" fill="none" stroke="#9b3189" stroke-linecap="round" stroke-linejoin="round" stroke-width="0.714" stroke-dasharray="1.117"/>
            <path id="Path_133206" data-name="Path 133206" d="M241.077,295.508a8.664,8.664,0,0,1,7.964,0c4.009,2.237,3.759,2.237,10.273,2.237s7.641-.752,11.587,3.195,3.382,3.195,8.08,3.195,7.139,1.127,9.207-1.5,3.946-3.007,3.005,2.818-1.5,7.328,2.068,9.771,3.195,1.5,5.26,6.951,5.073,5.637,9.019,8.268,4.886-.375,7.893,6.2,7.891,7.328,8.83,5.26.19-2.253,3.007-6.577,2.255-5.825,3.759-9.019,3.757-3.005,2.443-10.333-3.007-5.073-1.5-12.214-1.651-4.321,1.9-7.891,3.926-8.457,6.743-7.516,4.7.939,3.946,4.884-1.358,6.014.167,6.2,1.524-1.127,5.658-1.691,6.012-1.5,6.577,1.691,1.5,4.134,0,5.825-1.878-.564-1.691,4.886-4.321,6.764-4.511,8.268-2.443,2.255.377,3.382,5.006-5.3,6.637-6.218,4.073-.358,6.139-3.553,3.007-4.634,5.011-3.005.627,3.13,4.386,3.382,2.505,0,5.51,1.753,5.762,2.505,5.011-2.757-1.629-6.764.127-7.139,1.5,2.128,3.13-.125.252-3.257-.752-4.386-6.262-3.882-2.505-7.391S393.6,290.6,394.6,289.1s.879-7.516-2.63-7.139-4.259,1.468-7.139-.017-5.01,1.77-7.141-3.742-4.886-7.139,1-11.525,9.269-5.135,13.9-9.519,5.26-5.01,10.648-5.387,12.9-4.571,12.714-7.391-5.073-1.314-8.078-1.691-5.075-.562-4.511-4.509,1.878-7.893-2.066-9.207-5.075.375-4.7-3.007-.987-8.207-.987-8.207" transform="translate(-241.077 -74.672)" fill="none" stroke="#9b3189" stroke-linecap="round" stroke-linejoin="round" stroke-width="0.714" stroke-dasharray="1.117"/>
            <path id="Path_133207" data-name="Path 133207" d="M257.439,351.495a52.469,52.469,0,0,1,7.087-4.261c3.257-1.5,4.134.627,7.891-2s2.63-4.259,4.761-7.391,2.255-1.254,4.009,0,5.385.25,6.764-2.255,1.5-8.018,0-8.767-2.13-5.388.375-7.016,4.511.752,3.509-3.382-5.512-5.01-4.636-8.393,3.632-3.257,6.137-4.259,4.511-4.259,5.138-9.019,0-3.759,3.005-6.264,2.359-10.677,2.359-10.677" transform="translate(-223.365 -9.669)" fill="none" stroke="#9b3189" stroke-linecap="round" stroke-linejoin="round" stroke-width="0.714" stroke-dasharray="1.117"/>
            <path id="Path_133208" data-name="Path 133208" d="M459.552,223.309s2.218,8.3,5.225,10.052,7.014,1.753,6.012,5.512-4.315-2.005-5.539,4.509-4.288,8.769,0,12.027,10.3,3.007,11.8,5.762-.752,4.259-3.509,4.509-3.005-1-7.014,2.005-6.264,7.014-8.517,8.767-5.512-.752-7.518,3.509,3.007,9.519,4.511,11.273,0,5.011-3.007,5.762,2.074,11.025-1.97,13.53-.283,5.011-6.046,4.259-12.027,2-11.525-1.753,2-5.011,3.005-7.518,1-7.766-2-8.266-3.007,3.757-9.269-3.759-6.766-10.523-9.771-10.523-4.009,1-10.273,1.753-5.271,3.257-11.654.752-4.38-4.761-9.892-3.757-5.762,1.5-8.268-2.505-4.007,3.507-12.274,3.005-4.761-5.51-12.276-4.509-2.122-3.257-7.2-4.761S334,277.706,335,283.217s2,8.27,4.761,12.528,7.4,11.023,2.822,11.775-4.577-7.768-10.34-7.768-5.127-1.252-5.946-7.766-4.944-13.528,0-16.285,4.444-4.758,10.456-7.766,11.023-10.523,10.523-13.028,2.137-7.014-4.694-10.521-5.9-7.916-11.341-7.518l-5.444.4" transform="translate(-151.412 -68.664)" fill="none" stroke="#9b3189" stroke-linecap="round" stroke-linejoin="round" stroke-width="0.714" stroke-dasharray="1.117"/>
            <path id="Path_133209" data-name="Path 133209" d="M437.677,226.37a58.791,58.791,0,0,0,8.413-2.166c4.259-1.472,4.761-1.722,6.514-1.722h3.315" transform="translate(-28.255 -69.559)" fill="none" stroke="#9b3189" stroke-linecap="round" stroke-linejoin="round" stroke-width="0.714" stroke-dasharray="1.117"/>
            <path id="Path_133210" data-name="Path 133210" d="M493.2,233.426s6.477-2.424,5.977,0a17.059,17.059,0,0,1-5.977,9.19c-3.544,2.757-2.468,10.773,0,13.78s-2.793,6.012-4.3,7.014,7.293,10.021,5.15,13.78-.389,3.257-2.895,9.521-8.018.25-9.269,8.016.5,7.32-8.52,10.55-9.019-.277-14.03,3.23-6.012-.752-10.021,1.753-4.009,5.011,0,9.269,7.768,8.178,12.526,7.6,2.505,9.94,5.512,13.449-.752,7.516-4.259,6.262-5.011-9.019-7.766-9.019-3.759,1.972-4.761,9.255-4.009,9.286-7.266,5.527-6.764-2.755-12.276-3.257.752-6.012-3.257-8.268-5.26.719-12.024,1.362-11.275,2.614-12.026,0-1-3.615,2.005-7.624,4.759-1.091,1.5-7.687-6.512-6.845-6.764-12.358-1.037-2-8.517-8.016l-7.482-6.012" transform="translate(-85.853 -58.878)" fill="none" stroke="#9b3189" stroke-linecap="round" stroke-linejoin="round" stroke-width="0.714" stroke-dasharray="1.117"/>
            <path id="Path_133211" data-name="Path 133211" d="M444.639,302.19s2.505-4.192-4.259-6.8-12.778-3.859-13.53-5.362a12.8,12.8,0,0,0-2.643-3.117" transform="translate(-42.836 0.186)" fill="none" stroke="#9b3189" stroke-linecap="round" stroke-linejoin="round" stroke-width="0.714" stroke-dasharray="1.117"/>
            <path id="Path_133212" data-name="Path 133212" d="M274.676,295.752a11.552,11.552,0,0,0,8.894,1.479c4.761-1.354,2.255,2.153,6.514,5.41s7.516,4.259,12.276,5.01,6.012.25,9.771,3.257,8.518-1.5,11.525,3.007,5.01,6.514,10.021,5.51,4.009-2.253,9.771-6.764,10.521-6.791,14.03-6.027-3.007,9.534,6.512,9.284,10.023-10.394,17.037-8.2,7.266,7.7,13.528,4.946,8.52-6.135,13.78-4.946,10.021,5.948,16.785,5.2,12.276,0,12.778,2.253-3.759,1.753-2.255,7.266,5.344,8.769,2.3,15.783-3.3,10.773-1.043,14.532,7.766,8.518,3.757,10.521-7.014,4.009-9.519,10.773,5.762,10.523.5,13.028,5.263,3.007,6.264,5.762,6,4.009,7.887,10.773,7.395,6.264,10.4,6.012,1,.5,5.26-7.264,8.018-12.526,10.021-15.785,9.271.754,8.268-9.519-3.257-.752-2.755-13.278-6.012-15.533-1.252-16.033,9.269,8.268,13.026,8.268,2.505-5.263,0-7.016-4.3-9.269-5.154-13.528-1.61-4.511,2.149-8.268-.752-6.764,6.514-8.52,10.271,5.512,12.776-5.011-.25-10.819,7.014-16.433a39.946,39.946,0,0,0,10.523-12.018" transform="translate(-204.706 -1.653)" fill="none" stroke="#9b3189" stroke-linecap="round" stroke-linejoin="round" stroke-width="0.714" stroke-dasharray="1.117"/>
            <path id="Path_133213" data-name="Path 133213" d="M266.4,426.071s6.087-3.888,8.842-1.885,7.016,2.505,10.021-2.255,6.264-6.983,3.257-11.273-4.123-4.009,1.2-10.523,2.564-8.767,9.328-8.018,7.266,1.5,13.528-5.26,2.005-9.019,10.273-7.266,14.03,1.5,18.039-4.761,2.505-9.017,9.269-10.521,7.266-.25,14.28-7.016,7.016-.752,9.019-12.776,2.755-12.526,7.516-13.78,3.507,1.5,7.766-4.509,5.762-8.018,10.273-7.016,5.011,8.268,12.276,8.52,10.773-8.769,15.281-1.5-.25,16.283,2.757,21.3,9.821,4.407,9.821,4.407" transform="translate(-213.664 34.887)" fill="none" stroke="#9b3189" stroke-linecap="round" stroke-linejoin="round" stroke-width="0.714" stroke-dasharray="1.117"/>
            <path id="Path_133214" data-name="Path 133214" d="M272.917,391.543s2.287,2.5,3.538-2.514-1.768-19.072-1.768-19.072" transform="translate(-206.61 90.086)" fill="none" stroke="#676b78" stroke-linecap="round" stroke-linejoin="round" stroke-width="0.714" stroke-dasharray="1.117"/>
            <path id="Path_133215" data-name="Path 133215" d="M279.533,408.539s14.313,4.115,15.817,9.378,3.507,5.512,11.273,8.517,8.77-3.257,9.271,5.26,6.764,12.778,8.517,15.034,3.007,12.776,7.516,14.782-.752,15.531,4.509,18.788,8.268-1.5,6.766,10.273,3.757,10.773-1,18.039-2,4.007-3.005,10.271,2,8.268,0,10.271-6.577,1.756-6.577,1.756" transform="translate(-199.448 131.85)" fill="none" stroke="#9b3189" stroke-linecap="round" stroke-linejoin="round" stroke-width="0.714" stroke-dasharray="1.117"/>
            <path id="Path_133216" data-name="Path 133216" d="M361.836,363.614a25.252,25.252,0,0,0,9.771-2.755c4.509-2.505,6.262-1.5,13.778-8.77s4.761-11.525,10.523-10.021,8.268,3.007,10.273-2.253-1.756-6.766,5.011-8.52,8.517-6.012,11.273-1.753,10.773,7.516,13.78,5.512,8.143-6.012,8.143-6.012" transform="translate(-110.354 44.35)" fill="none" stroke="#9b3189" stroke-linecap="round" stroke-linejoin="round" stroke-width="0.714" stroke-dasharray="1.117"/>
            <path id="Path_133217" data-name="Path 133217" d="M297.318,443.956s8.842-.342,10.1,2.414,7.014,6.514,9.019,4.761,2.328-5.512,8.555-5.762,9.232-1,11.737-7.266-5.01-6.012-1.753-11.775-1.254-8.018,5.26-8.018,8.268-5.475,10.273-1.36,6.514,7.624,8.016,4.367,3.007-6.764,8.018-7.516,7.516,3.257,10.773,2,9.269-5.762,9.521-7.766,2.693-1.254,9.519-3.007,6.033-4.263,6.033-4.263" transform="translate(-180.195 123.439)" fill="none" stroke="#9b3189" stroke-linecap="round" stroke-linejoin="round" stroke-width="0.714" stroke-dasharray="1.117"/>
            <path id="Path_133218" data-name="Path 133218" d="M322,337.371s5.762,9.019,4.009,12.528-5.931,6.012-1.839,9.769S322.5,368.438,322,374.7s5.844,8.955,2.17,11.743-1.92,7.3,1.087,9.55,2.949,6.514-3.286,8.018-7.737.752-9.49,4.509,3.257,9.521,2,13.278-6.264,2.012-6.764,5.642-4.511,16.406,0,16.656,14.03-4.259,13.78,2.255-6.014,3.007-6.514,7.768,5.26,5.51,10.521,5.26,8.52-2.255,11.275,2S335,464.636,340.9,469.4s6.9,4.013,5.148,8.774a21.185,21.185,0,0,1-4.509,7.407" transform="translate(-171.231 54.81)" fill="none" stroke="#9b3189" stroke-linecap="round" stroke-linejoin="round" stroke-width="0.714" stroke-dasharray="1.117"/>
            <path id="Path_133219" data-name="Path 133219" d="M457.356,242.758s1.066-5.073,2.38-6.012,2.03-9.157,2.03-9.157" transform="translate(-6.952 -64.031)" fill="none" stroke="#676b78" stroke-linecap="round" stroke-linejoin="round" stroke-width="0.714" stroke-dasharray="1.117"/>
            <path id="Path_133220" data-name="Path 133220" d="M458.916,243.566a29.48,29.48,0,0,1,12.285-2.474c6.764.187,11.839,1.337,15.032,1.231s3.759,3.717,8.457,1.243,7.516-9.24,13.341-8.676,9.394-1.5,8.642,3.759.377,6.577,4.321,6.951,7.328,4.886,6.953,7.516-3.965,7.141-3.965,7.141" transform="translate(-5.263 -56.163)" fill="none" stroke="#9b3189" stroke-linecap="round" stroke-linejoin="round" stroke-width="0.714" stroke-dasharray="1.117"/>
            <path id="Path_133221" data-name="Path 133221" d="M483.91,245.015s-2.562.848,6.268-2.911,18.226-2.07,25.18-3.761,8.832,2.255,9.207-6.012,2.255-7.516,6.577-9.584,2.443-4.134,6.577-4.7,6.2,4.321,11.837-1.691,11.087-7.328,15.409-8.268,6.389-4.321,5.448.939-5.635,4.511-2.066,8.457,5.26,5.448,1.5,9.207-5.2,2.364-4.575,6.724" transform="translate(21.419 -87.236)" fill="none" stroke="#9b3189" stroke-linecap="round" stroke-linejoin="round" stroke-width="0.714" stroke-dasharray="1.117"/>
            <path id="Path_133222" data-name="Path 133222" d="M532.71,241.3s.677-4.525-1.766-4.715-2.253,5.45-6.012,6.389-4.321-1.347-9.771,2.709-1.127,4.055-8.83,6.123-5.263,7.891-6.766,12.4-3.005,7.7-2.253,11.65,7.2,9.519,7.2,9.519" transform="translate(36.084 -54.293)" fill="none" stroke="#9b3189" stroke-linecap="round" stroke-linejoin="round" stroke-width="0.714" stroke-dasharray="1.117"/>
            <path id="Path_133223" data-name="Path 133223" d="M486.951,258.212s4.823,3.8,4.259,7.193-.721,16.273-.721,16.273" transform="translate(25.085 -30.881)" fill="none" stroke="#9b3189" stroke-linecap="round" stroke-linejoin="round" stroke-width="0.714" stroke-dasharray="1.117"/>
            <path id="Path_133224" data-name="Path 133224" d="M505.431,256.058s0-1.314-4.886-.939-.317,6.764-4.667,8.08-7.312,2.191-7.312,2.191" transform="translate(26.835 -34.302)" fill="none" stroke="#9b3189" stroke-linecap="round" stroke-linejoin="round" stroke-width="0.714" stroke-dasharray="1.117"/>
            <path id="Path_133225" data-name="Path 133225" d="M502.39,271.279a10.429,10.429,0,0,0-.752-9.584c-3.007-5.26,2.443-8.642,4.321-8.268s2.778.7,5.054-.027,3.213-9.367,6.6-12.937,3.007-1.691,7.141-8.08,5.637-7.516,11.65-9.019a45.4,45.4,0,0,0,11.289-4.765" transform="translate(40.024 -73.761)" fill="none" stroke="#9b3189" stroke-linecap="round" stroke-linejoin="round" stroke-width="0.714" stroke-dasharray="1.117"/>
          </g>
        </g>
        <g id="Group_68670" data-name="Group 68670" transform="translate(116.708 29.417)">
          <g id="Group_68655" data-name="Group 68655" transform="translate(76.37 78)">
            <g id="Group_68654" data-name="Group 68654">
              <circle id="Ellipse_7482" data-name="Ellipse 7482" cx="15.815" cy="15.815" r="15.815" fill="#532280"/>
              <path id="Path_133226" data-name="Path 133226" d="M311.3,124.9a9.1,9.1,0,1,1-9.1-9.1A9.1,9.1,0,0,1,311.3,124.9Z" transform="translate(-286.392 -109.079)" fill="none" stroke="#fff" stroke-miterlimit="10" stroke-width="0.713"/>
            </g>
            <line id="Line_8102" data-name="Line 8102" y2="10.932" transform="translate(15.815 31.631)" fill="none" stroke="#532280" stroke-linecap="round" stroke-linejoin="round" stroke-width="0.855"/>
            <path id="Path_133227" data-name="Path 133227" d="M301.821,136.066a2.857,2.857,0,1,1-2.857-2.857A2.858,2.858,0,0,1,301.821,136.066Z" transform="translate(-283.149 -90.23)" fill="none" stroke="#532280" stroke-linecap="round" stroke-linejoin="round" stroke-width="0.855"/>
          </g>
          <g id="Group_68657" data-name="Group 68657" transform="translate(104.579 92.264)">
            <g id="Group_68656" data-name="Group 68656">
              <circle id="Ellipse_7483" data-name="Ellipse 7483" cx="15.815" cy="15.815" r="15.815" transform="translate(0 30.779) rotate(-76.673)" fill="#9b3189"/>
              <path id="Path_133228" data-name="Path 133228" d="M286.742,225.485a9.1,9.1,0,1,1-9.1-9.1A9.1,9.1,0,0,1,286.742,225.485Z" transform="translate(-258.611 -206.45)" fill="none" stroke="#fff" stroke-miterlimit="10" stroke-width="0.713"/>
            </g>
            <line id="Line_8103" data-name="Line 8103" y2="10.932" transform="translate(19.035 34.851)" fill="none" stroke="#9b3189" stroke-linecap="round" stroke-linejoin="round" stroke-width="0.855"/>
            <path id="Path_133229" data-name="Path 133229" d="M277.259,236.657A2.857,2.857,0,1,1,274.4,233.8,2.857,2.857,0,0,1,277.259,236.657Z" transform="translate(-255.368 -187.603)" fill="none" stroke="#9b3189" stroke-linecap="round" stroke-linejoin="round" stroke-width="0.855"/>
          </g>
          <g id="Group_68659" data-name="Group 68659" transform="translate(-15.137 401.657)">
            <g id="Group_68658" data-name="Group 68658">
              <circle id="Ellipse_7484" data-name="Ellipse 7484" cx="15.815" cy="15.815" r="15.815" fill="#9b3189"/>
              <path id="Path_133230" data-name="Path 133230" d="M298.1,321.606a9.1,9.1,0,1,1-9.1-9.1A9.1,9.1,0,0,1,298.1,321.606Z" transform="translate(-273.183 -305.792)" fill="none" stroke="#fff" stroke-miterlimit="10" stroke-width="0.713"/>
            </g>
            <line id="Line_8104" data-name="Line 8104" y2="10.932" transform="translate(15.815 31.631)" fill="none" stroke="#9b3189" stroke-linecap="round" stroke-linejoin="round" stroke-width="0.855"/>
            <path id="Path_133231" data-name="Path 133231" d="M288.613,332.779a2.857,2.857,0,1,1-2.857-2.857A2.859,2.859,0,0,1,288.613,332.779Z" transform="translate(-269.94 -286.943)" fill="none" stroke="#9b3189" stroke-linecap="round" stroke-linejoin="round" stroke-width="0.855"/>
          </g>
          <g id="Group_68661" data-name="Group 68661" transform="translate(45.273 533.874)">
            <g id="Group_68660" data-name="Group 68660">
              <circle id="Ellipse_7485" data-name="Ellipse 7485" cx="15.815" cy="15.815" r="15.815" fill="#532280"/>
              <path id="Path_133232" data-name="Path 133232" d="M306.936,381.254a9.1,9.1,0,1,1-9.1-9.1A9.1,9.1,0,0,1,306.936,381.254Z" transform="translate(-282.024 -365.438)" fill="none" stroke="#fff" stroke-miterlimit="10" stroke-width="0.713"/>
            </g>
            <line id="Line_8105" data-name="Line 8105" y2="10.932" transform="translate(15.815 31.631)" fill="none" stroke="#532280" stroke-linecap="round" stroke-linejoin="round" stroke-width="0.855"/>
            <path id="Path_133233" data-name="Path 133233" d="M297.453,392.426a2.857,2.857,0,1,1-2.857-2.857A2.856,2.856,0,0,1,297.453,392.426Z" transform="translate(-278.781 -346.59)" fill="none" stroke="#532280" stroke-linecap="round" stroke-linejoin="round" stroke-width="0.855"/>
          </g>
          <g id="Group_68663" data-name="Group 68663" transform="translate(130.834 147.685)">
            <g id="Group_68662" data-name="Group 68662">
              <circle id="Ellipse_7486" data-name="Ellipse 7486" cx="15.815" cy="15.815" r="15.815" fill="#532280"/>
              <path id="Path_133234" data-name="Path 133234" d="M364.174,227.983a9.1,9.1,0,1,1-9.1-9.1A9.1,9.1,0,0,1,364.174,227.983Z" transform="translate(-339.262 -212.168)" fill="none" stroke="#fff" stroke-miterlimit="10" stroke-width="0.713"/>
            </g>
            <line id="Line_8106" data-name="Line 8106" y2="10.932" transform="translate(15.815 31.631)" fill="none" stroke="#532280" stroke-linecap="round" stroke-linejoin="round" stroke-width="0.855"/>
            <path id="Path_133235" data-name="Path 133235" d="M354.691,239.155a2.857,2.857,0,1,1-2.857-2.857A2.857,2.857,0,0,1,354.691,239.155Z" transform="translate(-336.019 -193.32)" fill="none" stroke="#532280" stroke-linecap="round" stroke-linejoin="round" stroke-width="0.855"/>
          </g>
          <g id="Group_68665" data-name="Group 68665" transform="translate(352.106 281.518)">
            <g id="Group_68664" data-name="Group 68664">
              <circle id="Ellipse_7487" data-name="Ellipse 7487" cx="15.815" cy="15.815" r="15.815" fill="#9b3189"/>
              <path id="Path_133236" data-name="Path 133236" d="M510.936,221.66a9.1,9.1,0,1,1-9.1-9.1A9.1,9.1,0,0,1,510.936,221.66Z" transform="translate(-486.024 -205.845)" fill="none" stroke="#fff" stroke-miterlimit="10" stroke-width="0.713"/>
            </g>
            <line id="Line_8107" data-name="Line 8107" y2="10.932" transform="translate(15.815 31.631)" fill="none" stroke="#9b3189" stroke-linecap="round" stroke-linejoin="round" stroke-width="0.855"/>
            <path id="Path_133237" data-name="Path 133237" d="M501.453,232.832a2.857,2.857,0,1,1-2.857-2.857A2.857,2.857,0,0,1,501.453,232.832Z" transform="translate(-482.78 -186.997)" fill="none" stroke="#9b3189" stroke-linecap="round" stroke-linejoin="round" stroke-width="0.855"/>
          </g>
          <g id="Group_68667" data-name="Group 68667" transform="translate(-85.061 273.103)">
            <g id="Group_68666" data-name="Group 68666">
              <circle id="Ellipse_7488" data-name="Ellipse 7488" cx="15.815" cy="15.815" r="15.815" fill="#532280"/>
              <path id="Path_133238" data-name="Path 133238" d="M377.843,287.247a9.1,9.1,0,1,1-9.1-9.1A9.1,9.1,0,0,1,377.843,287.247Z" transform="translate(-352.931 -271.431)" fill="none" stroke="#fff" stroke-miterlimit="10" stroke-width="0.713"/>
            </g>
            <line id="Line_8108" data-name="Line 8108" y2="10.932" transform="translate(15.815 31.631)" fill="none" stroke="#532280" stroke-linecap="round" stroke-linejoin="round" stroke-width="0.855"/>
            <path id="Path_133239" data-name="Path 133239" d="M368.36,298.419a2.857,2.857,0,1,1-2.857-2.857A2.857,2.857,0,0,1,368.36,298.419Z" transform="translate(-349.688 -252.584)" fill="none" stroke="#532280" stroke-linecap="round" stroke-linejoin="round" stroke-width="0.855"/>
          </g>
          <g id="Group_68669" data-name="Group 68669" transform="translate(152.694 565.963)">
            <g id="Group_68668" data-name="Group 68668">
              <circle id="Ellipse_7489" data-name="Ellipse 7489" cx="15.816" cy="15.816" r="15.816" transform="translate(0 31.225) rotate(-80.804)" fill="#9b3189"/>
              <path id="Path_133240" data-name="Path 133240" d="M340.427,429.471a9.1,9.1,0,1,1-9.1-9.1A9.1,9.1,0,0,1,340.427,429.471Z" transform="translate(-313.19 -411.332)" fill="none" stroke="#fff" stroke-miterlimit="10" stroke-width="0.713"/>
            </g>
            <line id="Line_8109" data-name="Line 8109" y2="10.931" transform="translate(18.14 33.955)" fill="none" stroke="#9b3189" stroke-linecap="round" stroke-linejoin="round" stroke-width="0.855"/>
            <path id="Path_133241" data-name="Path 133241" d="M330.944,440.643a2.857,2.857,0,1,1-2.857-2.857A2.857,2.857,0,0,1,330.944,440.643Z" transform="translate(-309.947 -392.484)" fill="none" stroke="#9b3189" stroke-linecap="round" stroke-linejoin="round" stroke-width="0.855"/>
          </g>
        </g>
      </g>
    </g>
    <text id="_1" data-name="1" transform="translate(872 6853)" fill="#fff" font-size="11" font-family="Metropolis-Black, Metropolis" font-weight="800" letter-spacing="0.069em"><tspan x="0" y="0">1</tspan></text>
    <text id="_2" data-name="2" transform="translate(849 6800)" fill="#fff" font-size="11" font-family="Metropolis-Black, Metropolis" font-weight="800" letter-spacing="0.069em"><tspan x="0" y="0">2</tspan></text>
    <text id="_3" data-name="3" transform="translate(817 6783)" fill="#fff" font-size="11" font-family="Metropolis-Black, Metropolis" font-weight="800" letter-spacing="0.069em"><tspan x="0" y="0">3</tspan></text>
    <text id="_4" data-name="4" transform="translate(725 7106)" fill="#fff" font-size="11" font-family="Metropolis-Black, Metropolis" font-weight="800" letter-spacing="0.069em"><tspan x="0" y="0">4</tspan></text>
    <text id="_8" data-name="8" transform="translate(1093 6987)" fill="#fff" font-size="11" font-family="Metropolis-Black, Metropolis" font-weight="800" letter-spacing="0.069em"><tspan x="0" y="0">8</tspan></text>
    <text id="_7" data-name="7" transform="translate(656 6978)" fill="#fff" font-size="11" font-family="Metropolis-Black, Metropolis" font-weight="800" letter-spacing="0.069em"><tspan x="0" y="0">7</tspan></text>
    <text id="_5" data-name="5" transform="translate(786 7239)" fill="#fff" font-size="11" font-family="Metropolis-Black, Metropolis" font-weight="800" letter-spacing="0.069em"><tspan x="0" y="0">5</tspan></text>
    <text id="_6" data-name="6" transform="translate(896 7273)" fill="#fff" font-size="11" font-family="Metropolis-Black, Metropolis" font-weight="800" letter-spacing="0.069em"><tspan x="0" y="0">6</tspan></text>
  </g>
</svg>
