<svg id="Group_79090" data-name="Group 79090" xmlns="http://www.w3.org/2000/svg" width="106.981" height="33.891" viewBox="0 0 106.981 33.891">
  <rect id="Rectangle_45548" data-name="Rectangle 45548" width="106.981" height="33.891" rx="5" transform="translate(0 0)" fill="#fff"/>
  <g id="Group_79089" data-name="Group 79089" transform="translate(19.357 7.97)">
    <g id="Group_79085" data-name="Group 79085" transform="translate(0 0)">
      <g id="Group_79084" data-name="Group 79084">
        <path id="Path_159398" data-name="Path 159398" d="M-128.3,4.529A3.607,3.607,0,0,1-126.582,1.5a3.7,3.7,0,0,0-2.91-1.573c-1.224-.129-2.411.732-3.035.732s-1.6-.72-2.631-.7a3.874,3.874,0,0,0-3.261,1.989c-1.41,2.441-.358,6.028.992,8,.676.966,1.465,2.045,2.5,2.007,1.011-.042,1.389-.645,2.609-.645s1.564.645,2.618.62c1.085-.017,1.768-.971,2.421-1.946a7.985,7.985,0,0,0,1.107-2.254A3.487,3.487,0,0,1-128.3,4.529Z" transform="translate(139.087 3.913)"/>
        <path id="Path_159399" data-name="Path 159399" d="M-126.395-3.694a3.55,3.55,0,0,0,.813-2.544,3.617,3.617,0,0,0-2.338,1.21,3.379,3.379,0,0,0-.834,2.45A2.987,2.987,0,0,0-126.395-3.694Z" transform="translate(135.191 6.238)"/>
      </g>
    </g>
    <g id="Group_79086" data-name="Group 79086" transform="translate(18.43 7.333)">
      <path id="Path_159400" data-name="Path 159400" d="M-102.478,14.022h-1.413l-.774-2.432h-2.691l-.737,2.432h-1.376l2.666-8.281h1.646Zm-2.421-3.453-.7-2.162q-.111-.331-.418-1.56h-.025q-.122.528-.393,1.56l-.688,2.162Z" transform="translate(109.469 -5.62)"/>
      <path id="Path_159401" data-name="Path 159401" d="M-90.708,12.291a3.393,3.393,0,0,1-.823,2.408,2.407,2.407,0,0,1-1.831.787,1.831,1.831,0,0,1-1.7-.848h-.025v3.146h-1.327V11.344q0-.958-.049-1.966h1.167l.074.946h.025a2.21,2.21,0,0,1,2.015-1.069,2.215,2.215,0,0,1,1.763.835A3.29,3.29,0,0,1-90.708,12.291Zm-1.352.049a2.458,2.458,0,0,0-.393-1.437,1.358,1.358,0,0,0-1.155-.59,1.38,1.38,0,0,0-.89.325,1.509,1.509,0,0,0-.522.854,1.737,1.737,0,0,0-.062.4v1a1.6,1.6,0,0,0,.4,1.1,1.324,1.324,0,0,0,1.038.449,1.358,1.358,0,0,0,1.167-.577A2.541,2.541,0,0,0-92.059,12.339Z" transform="translate(104.554 -6.947)"/>
      <path id="Path_159402" data-name="Path 159402" d="M-79.67,12.291a3.391,3.391,0,0,1-.824,2.408,2.4,2.4,0,0,1-1.83.787,1.829,1.829,0,0,1-1.7-.848h-.025v3.146h-1.327V11.344q0-.958-.049-1.966h1.167l.074.946h.025a2.209,2.209,0,0,1,2.015-1.069,2.218,2.218,0,0,1,1.763.835A3.3,3.3,0,0,1-79.67,12.291Zm-1.352.049a2.458,2.458,0,0,0-.394-1.437,1.356,1.356,0,0,0-1.154-.59,1.381,1.381,0,0,0-.891.325,1.509,1.509,0,0,0-.521.854,1.77,1.77,0,0,0-.062.4v1a1.6,1.6,0,0,0,.4,1.1,1.327,1.327,0,0,0,1.039.449,1.358,1.358,0,0,0,1.167-.577A2.541,2.541,0,0,0-81.022,12.339Z" transform="translate(100.385 -6.947)"/>
      <path id="Path_159403" data-name="Path 159403" d="M-66.959,11.626a2.207,2.207,0,0,1-.736,1.72,3.26,3.26,0,0,1-2.256.725,3.949,3.949,0,0,1-2.146-.516l.307-1.106a3.637,3.637,0,0,0,1.918.529A1.813,1.813,0,0,0-68.7,12.64a1.105,1.105,0,0,0,.417-.9,1.153,1.153,0,0,0-.344-.849,3.2,3.2,0,0,0-1.142-.64q-2.175-.811-2.174-2.375A2.1,2.1,0,0,1-71.184,6.2a3,3,0,0,1,2.027-.652,4.019,4.019,0,0,1,1.879.393l-.332,1.081a3.261,3.261,0,0,0-1.585-.381,1.6,1.6,0,0,0-1.093.344.983.983,0,0,0-.332.75,1.012,1.012,0,0,0,.38.811,4.3,4.3,0,0,0,1.2.639,4.087,4.087,0,0,1,1.572,1.007A2.1,2.1,0,0,1-66.959,11.626Z" transform="translate(95.352 -5.546)"/>
      <path id="Path_159404" data-name="Path 159404" d="M-59,9.545h-1.462v2.9q0,1.106.774,1.106a2.359,2.359,0,0,0,.589-.062l.037,1.007a3.006,3.006,0,0,1-1.032.147,1.592,1.592,0,0,1-1.229-.479,2.354,2.354,0,0,1-.442-1.61V9.544h-.871v-1h.871V7.455l1.3-.393V8.549H-59Z" transform="translate(91.778 -6.119)"/>
      <path id="Path_159405" data-name="Path 159405" d="M-49.738,12.315a3.276,3.276,0,0,1-.787,2.261,2.808,2.808,0,0,1-2.188.909,2.67,2.67,0,0,1-2.094-.872,3.175,3.175,0,0,1-.78-2.2,3.243,3.243,0,0,1,.8-2.272,2.784,2.784,0,0,1,2.168-.885,2.727,2.727,0,0,1,2.113.872A3.139,3.139,0,0,1-49.738,12.315Zm-1.376.043a2.686,2.686,0,0,0-.356-1.417,1.31,1.31,0,0,0-1.191-.714,1.33,1.33,0,0,0-1.217.714,2.737,2.737,0,0,0-.356,1.442,2.682,2.682,0,0,0,.356,1.416,1.338,1.338,0,0,0,1.2.714,1.327,1.327,0,0,0,1.191-.727A2.7,2.7,0,0,0-51.115,12.358Z" transform="translate(89.115 -6.948)"/>
      <path id="Path_159406" data-name="Path 159406" d="M-41.2,10.545a2.3,2.3,0,0,0-.418-.037,1.253,1.253,0,0,0-1.081.529,1.988,1.988,0,0,0-.332,1.179V15.35h-1.326l.012-4.091q0-1.032-.05-1.88h1.156l.049,1.142h.037a2.042,2.042,0,0,1,.663-.946,1.6,1.6,0,0,1,.959-.32,2.13,2.13,0,0,1,.332.024Z" transform="translate(84.887 -6.947)"/>
      <path id="Path_159407" data-name="Path 159407" d="M-32.944,12.075a3.111,3.111,0,0,1-.049.6h-3.98a1.732,1.732,0,0,0,.577,1.352,1.971,1.971,0,0,0,1.3.418,4.4,4.4,0,0,0,1.61-.283l.208.921a4.979,4.979,0,0,1-2,.369,2.9,2.9,0,0,1-2.182-.817,3.018,3.018,0,0,1-.792-2.193,3.421,3.421,0,0,1,.738-2.248,2.542,2.542,0,0,1,2.088-.958,2.225,2.225,0,0,1,1.955.958A3.229,3.229,0,0,1-32.944,12.075Zm-1.265-.344a1.8,1.8,0,0,0-.258-1.02,1.159,1.159,0,0,0-1.057-.553,1.259,1.259,0,0,0-1.056.541,1.98,1.98,0,0,0-.393,1.032h2.763Z" transform="translate(82.567 -6.941)"/>
    </g>
    <g id="Group_79088" data-name="Group 79088" transform="translate(19.218 0.211)">
      <g id="Group_79087" data-name="Group 79087">
        <path id="Path_159408" data-name="Path 159408" d="M-104.859-3.641a2.043,2.043,0,0,1-.658,1.654,2.619,2.619,0,0,1-1.732.513,8.029,8.029,0,0,1-.954-.049v-4a7.04,7.04,0,0,1,1.123-.085,2.421,2.421,0,0,1,1.612.465A1.878,1.878,0,0,1-104.859-3.641Zm-.688.018a1.487,1.487,0,0,0-.377-1.093,1.486,1.486,0,0,0-1.1-.38,2.76,2.76,0,0,0-.525.042v3.042a3.443,3.443,0,0,0,.441.018,1.543,1.543,0,0,0,1.156-.416A1.667,1.667,0,0,0-105.547-3.623Z" transform="translate(108.203 5.789)"/>
        <path id="Path_159409" data-name="Path 159409" d="M-98.714-2.33A1.609,1.609,0,0,1-99.1-1.219a1.379,1.379,0,0,1-1.075.447A1.311,1.311,0,0,1-101.2-1.2a1.561,1.561,0,0,1-.383-1.08,1.593,1.593,0,0,1,.4-1.116,1.37,1.37,0,0,1,1.065-.434,1.342,1.342,0,0,1,1.039.428A1.549,1.549,0,0,1-98.714-2.33Zm-.676.021a1.327,1.327,0,0,0-.175-.7.644.644,0,0,0-.585-.351.654.654,0,0,0-.6.351,1.344,1.344,0,0,0-.175.708,1.327,1.327,0,0,0,.175.7.658.658,0,0,0,.592.351.651.651,0,0,0,.585-.357A1.318,1.318,0,0,0-99.39-2.309Z" transform="translate(105.704 5.118)"/>
        <path id="Path_159410" data-name="Path 159410" d="M-91.694-3.736-92.612-.8h-.6l-.38-1.274a9.529,9.529,0,0,1-.236-.948h-.012a6.938,6.938,0,0,1-.236.948l-.4,1.274h-.6l-.863-2.933h.67l.332,1.394q.12.495.2.941h.012q.073-.368.242-.935l.416-1.4h.531l.4,1.37q.145.5.235.966h.018a9.227,9.227,0,0,1,.2-.966l.356-1.37h.64Z" transform="translate(103.572 5.082)"/>
        <path id="Path_159411" data-name="Path 159411" d="M-85.242-.84h-.652V-2.52q0-.777-.591-.777a.588.588,0,0,0-.471.213.757.757,0,0,0-.181.5v1.74h-.652V-2.935q0-.386-.024-.839h.573l.03.459h.018a.942.942,0,0,1,.338-.354,1.1,1.1,0,0,1,.591-.165.936.936,0,0,1,.683.266,1.291,1.291,0,0,1,.338.972Z" transform="translate(100.501 5.119)"/>
        <path id="Path_159412" data-name="Path 159412" d="M-81.186-1.62h-.652V-5.9h.652Z" transform="translate(98.244 5.899)"/>
        <path id="Path_159413" data-name="Path 159413" d="M-76.365-2.33a1.609,1.609,0,0,1-.386,1.111,1.38,1.38,0,0,1-1.075.447A1.309,1.309,0,0,1-78.855-1.2a1.561,1.561,0,0,1-.383-1.08,1.593,1.593,0,0,1,.4-1.116,1.37,1.37,0,0,1,1.065-.434,1.343,1.343,0,0,1,1.039.428A1.549,1.549,0,0,1-76.365-2.33Zm-.677.021a1.327,1.327,0,0,0-.175-.7.643.643,0,0,0-.584-.351.653.653,0,0,0-.6.351,1.344,1.344,0,0,0-.175.708,1.327,1.327,0,0,0,.175.7.658.658,0,0,0,.592.351.65.65,0,0,0,.584-.357A1.313,1.313,0,0,0-77.042-2.309Z" transform="translate(97.262 5.118)"/>
        <path id="Path_159414" data-name="Path 159414" d="M-71.011-.839H-71.6l-.049-.338h-.018a1,1,0,0,1-.857.4.884.884,0,0,1-.67-.266.833.833,0,0,1-.23-.6.911.911,0,0,1,.45-.821A2.335,2.335,0,0,1-71.7-2.734v-.055q0-.58-.609-.579a1.364,1.364,0,0,0-.765.217l-.133-.428A1.881,1.881,0,0,1-72.2-3.832q1.15,0,1.151,1.213v1.08A4.582,4.582,0,0,0-71.011-.839Zm-.677-1.008V-2.3q-1.079-.019-1.079.591a.442.442,0,0,0,.125.344.456.456,0,0,0,.319.114.659.659,0,0,0,.4-.136.556.556,0,0,0,.226-.347A.552.552,0,0,0-71.688-1.847Z" transform="translate(95.064 5.118)"/>
        <path id="Path_159415" data-name="Path 159415" d="M-65.294-1.62h-.579l-.03-.471h-.018a.975.975,0,0,1-.942.538,1.1,1.1,0,0,1-.881-.416,1.622,1.622,0,0,1-.35-1.08,1.7,1.7,0,0,1,.38-1.153,1.169,1.169,0,0,1,.905-.411.879.879,0,0,1,.826.4h.012V-5.9h.653V-2.41Q-65.317-1.982-65.294-1.62Zm-.676-1.237v-.489a.96.96,0,0,0-.018-.205.743.743,0,0,0-.236-.4.641.641,0,0,0-.436-.16.669.669,0,0,0-.574.29,1.243,1.243,0,0,0-.209.742,1.158,1.158,0,0,0,.2.706.671.671,0,0,0,.57.289.628.628,0,0,0,.515-.241A.8.8,0,0,0-65.97-2.857Z" transform="translate(93.052 5.899)"/>
        <path id="Path_159416" data-name="Path 159416" d="M-56.375-2.33a1.609,1.609,0,0,1-.386,1.111,1.378,1.378,0,0,1-1.075.447A1.313,1.313,0,0,1-58.865-1.2a1.561,1.561,0,0,1-.383-1.08,1.593,1.593,0,0,1,.4-1.116,1.371,1.371,0,0,1,1.066-.434,1.34,1.34,0,0,1,1.038.428A1.549,1.549,0,0,1-56.375-2.33Zm-.676.021a1.327,1.327,0,0,0-.175-.7.645.645,0,0,0-.586-.351.655.655,0,0,0-.6.351,1.344,1.344,0,0,0-.175.708,1.327,1.327,0,0,0,.175.7.658.658,0,0,0,.592.351.652.652,0,0,0,.586-.357A1.324,1.324,0,0,0-57.051-2.309Z" transform="translate(89.711 5.118)"/>
        <path id="Path_159417" data-name="Path 159417" d="M-50.556-.84h-.652V-2.52q0-.777-.592-.777a.586.586,0,0,0-.47.213.754.754,0,0,0-.181.5v1.74H-53.1V-2.935q0-.386-.023-.839h.572l.03.459h.018a.952.952,0,0,1,.338-.354,1.1,1.1,0,0,1,.592-.165.936.936,0,0,1,.682.266,1.289,1.289,0,0,1,.338.972Z" transform="translate(87.398 5.119)"/>
        <path id="Path_159418" data-name="Path 159418" d="M-43.027-3.691h-.718v1.425c0,.362.128.543.38.543a1.148,1.148,0,0,0,.291-.03l.017.495a1.465,1.465,0,0,1-.507.073.78.78,0,0,1-.6-.235,1.15,1.15,0,0,1-.218-.791V-3.691h-.429v-.488h.429v-.538l.639-.193v.73h.718v.489Z" transform="translate(84.258 5.525)"/>
        <path id="Path_159419" data-name="Path 159419" d="M-37.941-1.62h-.653V-3.287q0-.789-.591-.789a.622.622,0,0,0-.622.457.82.82,0,0,0-.03.235V-1.62h-.651V-5.9h.651v1.768h.012a.986.986,0,0,1,.881-.482.909.909,0,0,1,.671.266,1.336,1.336,0,0,1,.332.984Z" transform="translate(82.625 5.899)"/>
        <path id="Path_159420" data-name="Path 159420" d="M-32.255-2.448a1.575,1.575,0,0,1-.024.3h-1.956a.855.855,0,0,0,.283.664.971.971,0,0,0,.64.205,2.16,2.16,0,0,0,.791-.139l.1.453a2.456,2.456,0,0,1-.984.181,1.422,1.422,0,0,1-1.071-.4,1.479,1.479,0,0,1-.389-1.077,1.679,1.679,0,0,1,.362-1.1,1.247,1.247,0,0,1,1.025-.47,1.091,1.091,0,0,1,.959.47A1.566,1.566,0,0,1-32.255-2.448Zm-.622-.169a.878.878,0,0,0-.126-.5.57.57,0,0,0-.519-.272.619.619,0,0,0-.519.266.987.987,0,0,0-.194.507Z" transform="translate(80.499 5.122)"/>
      </g>
    </g>
  </g>
</svg>
