<svg id="Group_79302" data-name="Group 79302" xmlns="http://www.w3.org/2000/svg" width="113.75" height="36.035" viewBox="0 0 113.75 36.035">
  <g id="Group_68571" data-name="Group 68571" transform="translate(0)">
    <rect id="Rectangle_41266" data-name="Rectangle 41266" width="113.75" height="36.035" rx="9" fill="#fff"/>
  </g>
  <g id="Group_79244" data-name="Group 79244" transform="translate(19.352 8.515)">
    <g id="Group_1110" data-name="Group 1110" transform="translate(0 0)">
      <g id="Group_1109" data-name="Group 1109">
        <path id="Path_3477" data-name="Path 3477" d="M-127.258,4.974a3.955,3.955,0,0,1,1.884-3.319A4.051,4.051,0,0,0-128.565-.07c-1.342-.141-2.644.8-3.328.8s-1.75-.789-2.885-.766a4.248,4.248,0,0,0-3.575,2.181c-1.546,2.677-.393,6.61,1.088,8.774.741,1.06,1.607,2.243,2.74,2.2,1.109-.046,1.523-.707,2.861-.707s1.715.707,2.871.68c1.19-.019,1.939-1.064,2.654-2.134a8.756,8.756,0,0,0,1.214-2.472A3.824,3.824,0,0,1-127.258,4.974Z" transform="translate(139.087 4.283)" fill="#532280"/>
        <path id="Path_3478" data-name="Path 3478" d="M-126.165-3.448a3.893,3.893,0,0,0,.891-2.79,3.966,3.966,0,0,0-2.564,1.326,3.7,3.7,0,0,0-.914,2.687A3.276,3.276,0,0,0-126.165-3.448Z" transform="translate(135.81 6.238)" fill="#532280"/>
      </g>
    </g>
    <g id="Group_1111" data-name="Group 1111" transform="translate(20.209 8.041)">
      <path id="Path_3479" data-name="Path 3479" d="M-101.8,14.821h-1.55l-.849-2.667h-2.95l-.809,2.667h-1.509l2.923-9.08h1.805Zm-2.654-3.786-.768-2.371q-.122-.363-.458-1.711h-.027q-.134.579-.431,1.711l-.754,2.371Z" transform="translate(109.469 -5.608)" fill="#532280"/>
      <path id="Path_3480" data-name="Path 3480" d="M-90.153,12.584a3.721,3.721,0,0,1-.9,2.64,2.64,2.64,0,0,1-2.007.862,2.007,2.007,0,0,1-1.859-.929h-.027v3.449H-96.4v-7.06q0-1.05-.054-2.155h1.279l.081,1.038h.027a2.423,2.423,0,0,1,2.209-1.172,2.429,2.429,0,0,1,1.933.916A3.607,3.607,0,0,1-90.153,12.584Zm-1.482.053a2.7,2.7,0,0,0-.431-1.576,1.489,1.489,0,0,0-1.266-.647,1.513,1.513,0,0,0-.976.357,1.655,1.655,0,0,0-.572.937,1.905,1.905,0,0,0-.068.444v1.092a1.749,1.749,0,0,0,.438,1.206,1.452,1.452,0,0,0,1.138.492,1.489,1.489,0,0,0,1.279-.633A2.787,2.787,0,0,0-91.635,12.637Z" transform="translate(105.336 -6.725)" fill="#532280"/>
      <path id="Path_3481" data-name="Path 3481" d="M-79.115,12.584a3.718,3.718,0,0,1-.9,2.64,2.637,2.637,0,0,1-2.007.862,2.005,2.005,0,0,1-1.859-.929h-.027v3.449h-1.455v-7.06q0-1.05-.054-2.155h1.279l.081,1.038h.027a2.422,2.422,0,0,1,2.209-1.172,2.433,2.433,0,0,1,1.934.916A3.618,3.618,0,0,1-79.115,12.584Zm-1.482.053a2.7,2.7,0,0,0-.432-1.576,1.487,1.487,0,0,0-1.266-.647,1.515,1.515,0,0,0-.977.357,1.654,1.654,0,0,0-.572.937,1.942,1.942,0,0,0-.068.444v1.092a1.755,1.755,0,0,0,.437,1.206,1.455,1.455,0,0,0,1.139.492,1.489,1.489,0,0,0,1.279-.633A2.787,2.787,0,0,0-80.6,12.637Z" transform="translate(101.829 -6.725)" fill="#532280"/>
      <path id="Path_3482" data-name="Path 3482" d="M-66.463,12.213a2.42,2.42,0,0,1-.807,1.886,3.574,3.574,0,0,1-2.473.795,4.33,4.33,0,0,1-2.353-.566l.337-1.212a3.988,3.988,0,0,0,2.1.58,1.988,1.988,0,0,0,1.281-.371,1.212,1.212,0,0,0,.457-.992A1.265,1.265,0,0,0-68.3,11.4a3.508,3.508,0,0,0-1.253-.7q-2.385-.889-2.384-2.6A2.3,2.3,0,0,1-71.1,6.261a3.3,3.3,0,0,1,2.223-.715,4.407,4.407,0,0,1,2.061.431l-.364,1.186a3.575,3.575,0,0,0-1.738-.418,1.759,1.759,0,0,0-1.2.377,1.078,1.078,0,0,0-.364.822,1.11,1.11,0,0,0,.417.889,4.712,4.712,0,0,0,1.321.7,4.482,4.482,0,0,1,1.724,1.1A2.306,2.306,0,0,1-66.463,12.213Z" transform="translate(97.597 -5.546)" fill="#532280"/>
      <path id="Path_3483" data-name="Path 3483" d="M-58.647,9.785h-1.6v3.179q0,1.213.849,1.212a2.587,2.587,0,0,0,.646-.068l.04,1.1a3.3,3.3,0,0,1-1.131.161,1.746,1.746,0,0,1-1.348-.525,2.581,2.581,0,0,1-.485-1.765v-3.3h-.955V8.692h.955v-1.2l1.429-.431v1.63h1.6Z" transform="translate(94.591 -6.028)" fill="#532280"/>
      <path id="Path_3484" data-name="Path 3484" d="M-49.174,12.611a3.592,3.592,0,0,1-.862,2.479,3.079,3.079,0,0,1-2.4,1,2.928,2.928,0,0,1-2.3-.956,3.482,3.482,0,0,1-.856-2.411,3.556,3.556,0,0,1,.882-2.492,3.053,3.053,0,0,1,2.377-.97,2.99,2.99,0,0,1,2.317.957A3.442,3.442,0,0,1-49.174,12.611Zm-1.509.047a2.945,2.945,0,0,0-.39-1.554,1.437,1.437,0,0,0-1.306-.783,1.459,1.459,0,0,0-1.334.783,3,3,0,0,0-.39,1.581,2.941,2.941,0,0,0,.39,1.553,1.467,1.467,0,0,0,1.321.783,1.456,1.456,0,0,0,1.306-.8A2.956,2.956,0,0,0-50.683,12.658Z" transform="translate(92.352 -6.725)" fill="#532280"/>
      <path id="Path_3485" data-name="Path 3485" d="M-40.889,10.67a2.526,2.526,0,0,0-.459-.04,1.375,1.375,0,0,0-1.186.58A2.18,2.18,0,0,0-42.9,12.5v3.436h-1.454l.014-4.486q0-1.132-.055-2.061h1.267l.053,1.253h.04A2.239,2.239,0,0,1-42.3,9.607a1.759,1.759,0,0,1,1.051-.351,2.336,2.336,0,0,1,.364.027Z" transform="translate(88.796 -6.725)" fill="#532280"/>
      <path id="Path_3486" data-name="Path 3486" d="M-32.432,12.349a3.412,3.412,0,0,1-.053.66h-4.364a1.9,1.9,0,0,0,.633,1.483,2.162,2.162,0,0,0,1.427.458,4.827,4.827,0,0,0,1.766-.31l.228,1.01a5.459,5.459,0,0,1-2.2.4,3.18,3.18,0,0,1-2.392-.9,3.309,3.309,0,0,1-.869-2.4,3.751,3.751,0,0,1,.809-2.465,2.788,2.788,0,0,1,2.289-1.05,2.44,2.44,0,0,1,2.143,1.05A3.541,3.541,0,0,1-32.432,12.349Zm-1.387-.377a1.976,1.976,0,0,0-.282-1.118,1.271,1.271,0,0,0-1.159-.607,1.38,1.38,0,0,0-1.158.593,2.171,2.171,0,0,0-.431,1.131h3.03Z" transform="translate(86.845 -6.719)" fill="#532280"/>
    </g>
    <g id="Group_1113" data-name="Group 1113" transform="translate(21.073 0.231)">
      <g id="Group_1112" data-name="Group 1112">
        <path id="Path_3487" data-name="Path 3487" d="M-104.536-3.451a2.24,2.24,0,0,1-.722,1.814,2.871,2.871,0,0,1-1.9.562,8.8,8.8,0,0,1-1.046-.053V-5.516a7.719,7.719,0,0,1,1.232-.093,2.655,2.655,0,0,1,1.767.51A2.06,2.06,0,0,1-104.536-3.451Zm-.754.02a1.631,1.631,0,0,0-.413-1.2,1.63,1.63,0,0,0-1.208-.417,3.026,3.026,0,0,0-.576.046v3.336a3.775,3.775,0,0,0,.483.02,1.691,1.691,0,0,0,1.267-.456A1.828,1.828,0,0,0-105.29-3.431Z" transform="translate(108.203 5.807)" fill="#532280"/>
        <path id="Path_3488" data-name="Path 3488" d="M-98.437-2.185A1.764,1.764,0,0,1-98.86-.967a1.512,1.512,0,0,1-1.178.49,1.437,1.437,0,0,1-1.129-.47,1.712,1.712,0,0,1-.42-1.185,1.747,1.747,0,0,1,.433-1.224,1.5,1.5,0,0,1,1.168-.476,1.471,1.471,0,0,1,1.139.469A1.7,1.7,0,0,1-98.437-2.185Zm-.742.023a1.455,1.455,0,0,0-.192-.764.706.706,0,0,0-.641-.385.717.717,0,0,0-.656.385,1.474,1.474,0,0,0-.192.776,1.455,1.455,0,0,0,.192.764.722.722,0,0,0,.649.385.714.714,0,0,0,.641-.392A1.446,1.446,0,0,0-99.178-2.162Z" transform="translate(106.101 5.242)" fill="#532280"/>
        <path id="Path_3489" data-name="Path 3489" d="M-91.284-3.736-92.29-.52h-.655l-.417-1.4a10.453,10.453,0,0,1-.259-1.039h-.013a7.612,7.612,0,0,1-.259,1.039l-.443,1.4H-95l-.946-3.216h.735l.364,1.529q.132.542.218,1.032h.013q.08-.4.265-1.026l.456-1.535h.583l.437,1.5q.159.55.258,1.059h.02a10.118,10.118,0,0,1,.218-1.059l.39-1.5h.7Z" transform="translate(104.309 5.212)" fill="#532280"/>
        <path id="Path_3490" data-name="Path 3490" d="M-84.994-.551h-.715V-2.393q0-.852-.648-.852a.645.645,0,0,0-.517.234.831.831,0,0,0-.2.551V-.552h-.715v-2.3q0-.424-.026-.92h.628l.033.5h.02a1.033,1.033,0,0,1,.37-.388,1.209,1.209,0,0,1,.648-.181,1.026,1.026,0,0,1,.749.291,1.416,1.416,0,0,1,.37,1.066Z" transform="translate(101.726 5.243)" fill="#532280"/>
        <path id="Path_3491" data-name="Path 3491" d="M-81.124-1.207h-.714V-5.9h.714Z" transform="translate(99.828 5.899)" fill="#532280"/>
        <path id="Path_3492" data-name="Path 3492" d="M-76.088-2.185a1.764,1.764,0,0,1-.424,1.218,1.513,1.513,0,0,1-1.178.49,1.435,1.435,0,0,1-1.129-.47,1.712,1.712,0,0,1-.42-1.185A1.747,1.747,0,0,1-78.8-3.356a1.5,1.5,0,0,1,1.167-.476,1.472,1.472,0,0,1,1.139.469A1.7,1.7,0,0,1-76.088-2.185Zm-.742.023a1.455,1.455,0,0,0-.192-.764.705.705,0,0,0-.641-.385.716.716,0,0,0-.656.385,1.474,1.474,0,0,0-.192.776,1.455,1.455,0,0,0,.192.764A.722.722,0,0,0-77.669-1a.712.712,0,0,0,.641-.392A1.439,1.439,0,0,0-76.83-2.162Z" transform="translate(99.002 5.242)" fill="#532280"/>
        <path id="Path_3493" data-name="Path 3493" d="M-70.778-.55h-.642l-.053-.371h-.02a1.1,1.1,0,0,1-.94.444.97.97,0,0,1-.734-.291.914.914,0,0,1-.252-.655,1,1,0,0,1,.493-.9,2.56,2.56,0,0,1,1.387-.3v-.06q0-.636-.668-.635a1.5,1.5,0,0,0-.839.238l-.145-.469a2.063,2.063,0,0,1,1.1-.278q1.261,0,1.262,1.331v1.185A5.025,5.025,0,0,0-70.778-.55Zm-.742-1.105v-.5Q-72.7-2.172-72.7-1.5a.484.484,0,0,0,.137.377A.5.5,0,0,0-72.217-1a.722.722,0,0,0,.437-.149.609.609,0,0,0,.248-.381A.605.605,0,0,0-71.521-1.655Z" transform="translate(97.153 5.242)" fill="#532280"/>
        <path id="Path_3494" data-name="Path 3494" d="M-65.024-1.207h-.635l-.033-.517h-.02a1.069,1.069,0,0,1-1.033.59,1.211,1.211,0,0,1-.966-.456,1.778,1.778,0,0,1-.383-1.185,1.865,1.865,0,0,1,.417-1.264,1.282,1.282,0,0,1,.993-.45.964.964,0,0,1,.906.437h.014V-5.9h.716v3.826Q-65.049-1.6-65.024-1.207Zm-.741-1.356V-3.1a1.051,1.051,0,0,0-.02-.225.814.814,0,0,0-.259-.433.7.7,0,0,0-.478-.175.734.734,0,0,0-.629.318,1.363,1.363,0,0,0-.229.814,1.27,1.27,0,0,0,.22.774.736.736,0,0,0,.625.317.689.689,0,0,0,.565-.265A.881.881,0,0,0-65.765-2.563Z" transform="translate(95.462 5.899)" fill="#532280"/>
        <path id="Path_3495" data-name="Path 3495" d="M-56.1-2.185a1.764,1.764,0,0,1-.424,1.218,1.511,1.511,0,0,1-1.178.49,1.439,1.439,0,0,1-1.129-.47,1.712,1.712,0,0,1-.42-1.185,1.747,1.747,0,0,1,.433-1.224,1.5,1.5,0,0,1,1.169-.476,1.47,1.47,0,0,1,1.138.469A1.7,1.7,0,0,1-56.1-2.185Zm-.741.023a1.455,1.455,0,0,0-.192-.764.707.707,0,0,0-.642-.385.719.719,0,0,0-.656.385,1.474,1.474,0,0,0-.192.776,1.455,1.455,0,0,0,.192.764A.722.722,0,0,0-57.679-1a.714.714,0,0,0,.642-.392A1.452,1.452,0,0,0-56.839-2.162Z" transform="translate(92.651 5.242)" fill="#532280"/>
        <path id="Path_3496" data-name="Path 3496" d="M-50.308-.551h-.714V-2.393q0-.852-.649-.852a.643.643,0,0,0-.516.234.827.827,0,0,0-.2.551V-.552H-53.1v-2.3q0-.424-.025-.92h.628l.033.5h.02a1.044,1.044,0,0,1,.371-.388,1.211,1.211,0,0,1,.649-.181,1.026,1.026,0,0,1,.748.291,1.413,1.413,0,0,1,.371,1.066Z" transform="translate(90.707 5.243)" fill="#532280"/>
        <path id="Path_3497" data-name="Path 3497" d="M-42.855-3.573h-.787v1.563c0,.4.14.6.417.6a1.259,1.259,0,0,0,.319-.033l.018.542a1.607,1.607,0,0,1-.555.08.855.855,0,0,1-.661-.258,1.261,1.261,0,0,1-.239-.867V-3.573h-.47v-.536h.47V-4.7l.7-.212v.8h.787v.536Z" transform="translate(88.066 5.585)" fill="#532280"/>
        <path id="Path_3498" data-name="Path 3498" d="M-37.7-1.207h-.716V-3.035q0-.865-.648-.865a.683.683,0,0,0-.682.5.9.9,0,0,0-.033.257v1.934h-.714V-5.9h.714v1.938h.014a1.081,1.081,0,0,1,.966-.529,1,1,0,0,1,.736.291A1.465,1.465,0,0,1-37.7-3.119Z" transform="translate(86.692 5.899)" fill="#532280"/>
        <path id="Path_3499" data-name="Path 3499" d="M-32-2.313a1.727,1.727,0,0,1-.027.324h-2.145a.938.938,0,0,0,.31.728,1.065,1.065,0,0,0,.7.225,2.369,2.369,0,0,0,.867-.152l.112.5a2.693,2.693,0,0,1-1.079.2,1.559,1.559,0,0,1-1.174-.44,1.621,1.621,0,0,1-.426-1.181,1.841,1.841,0,0,1,.4-1.211,1.368,1.368,0,0,1,1.124-.516,1.2,1.2,0,0,1,1.051.516A1.717,1.717,0,0,1-32-2.313Zm-.682-.185a.963.963,0,0,0-.139-.549.625.625,0,0,0-.569-.3.679.679,0,0,0-.569.291,1.082,1.082,0,0,0-.212.556Z" transform="translate(84.905 5.245)" fill="#532280"/>
      </g>
    </g>
  </g>
</svg>
