<svg id="Group_79083" data-name="Group 79083" xmlns="http://www.w3.org/2000/svg" xmlns:xlink="http://www.w3.org/1999/xlink" width="106.981" height="33.891" viewBox="0 0 106.981 33.891">
  <defs>
    <linearGradient id="linear-gradient" x1="1.625" y1="-4.143" x2="0.33" y2="-3.468" gradientUnits="objectBoundingBox">
      <stop offset="0" stop-color="#00a0ff"/>
      <stop offset="0.007" stop-color="#00a1ff"/>
      <stop offset="0.26" stop-color="#00beff"/>
      <stop offset="0.512" stop-color="#00d2ff"/>
      <stop offset="0.76" stop-color="#00dfff"/>
      <stop offset="1" stop-color="#00e3ff"/>
    </linearGradient>
    <linearGradient id="linear-gradient-2" x1="1.977" y1="-11.775" x2="-0.399" y2="-11.775" gradientUnits="objectBoundingBox">
      <stop offset="0" stop-color="#ffe000"/>
      <stop offset="0.409" stop-color="#ffbd00"/>
      <stop offset="0.775" stop-color="orange"/>
      <stop offset="1" stop-color="#ff9c00"/>
    </linearGradient>
    <linearGradient id="linear-gradient-3" x1="0.913" y1="-8.638" x2="-0.447" y2="-6.852" gradientUnits="objectBoundingBox">
      <stop offset="0" stop-color="#ff3a44"/>
      <stop offset="1" stop-color="#c31162"/>
    </linearGradient>
    <linearGradient id="linear-gradient-4" x1="-0.134" y1="-8.068" x2="0.473" y2="-7.27" gradientUnits="objectBoundingBox">
      <stop offset="0" stop-color="#32a071"/>
      <stop offset="0.068" stop-color="#2da771"/>
      <stop offset="0.476" stop-color="#15cf74"/>
      <stop offset="0.801" stop-color="#06e775"/>
      <stop offset="1" stop-color="#00f076"/>
    </linearGradient>
  </defs>
  <rect id="Rectangle_45547" data-name="Rectangle 45547" width="106.981" height="33.891" rx="5" transform="translate(0 0)" fill="#fff"/>
  <g id="Group_79082" data-name="Group 79082" transform="translate(17.079 9.109)">
    <g id="g18" transform="translate(19.574 0)">
      <path id="path20" d="M-69.92-15.044a1.672,1.672,0,0,1-.463,1.235,1.835,1.835,0,0,1-1.377.548,1.9,1.9,0,0,1-1.376-.554,1.857,1.857,0,0,1-.567-1.379,1.844,1.844,0,0,1,.567-1.375,1.893,1.893,0,0,1,1.376-.558,1.978,1.978,0,0,1,.768.157,1.515,1.515,0,0,1,.584.412l-.325.325a1.278,1.278,0,0,0-1.027-.436,1.44,1.44,0,0,0-1.023.409,1.413,1.413,0,0,0-.429,1.066,1.42,1.42,0,0,0,.429,1.069,1.453,1.453,0,0,0,1.023.409,1.431,1.431,0,0,0,1.045-.412,1.152,1.152,0,0,0,.314-.75H-71.76v-.446h1.812A1.258,1.258,0,0,1-69.92-15.044Z" transform="translate(73.703 17.127)" stroke="#fff" stroke-miterlimit="10" stroke-width="0.16"/>
    </g>
    <g id="g22" transform="translate(24.048 0.085)">
      <path id="path24" d="M-64.33-16.537h-1.7v1.171H-64.5v.446h-1.534v1.171h1.7v.454h-2.184v-3.7h2.184Z" transform="translate(66.513 16.991)" stroke="#fff" stroke-miterlimit="10" stroke-width="0.16"/>
    </g>
    <g id="g26" transform="translate(26.734 0.085)">
      <path id="path28" d="M-60.67-13.295h-.482v-3.242H-62.2v-.454h2.571v.454H-60.67Z" transform="translate(62.196 16.991)" stroke="#fff" stroke-miterlimit="10" stroke-width="0.16"/>
    </g>
    <g id="g30" transform="translate(31.165 0.085)">
      <path id="path32" d="M-55.075-13.295v-3.7h.481v3.7Z" transform="translate(55.075 16.991)" stroke="#fff" stroke-miterlimit="10" stroke-width="0.16"/>
    </g>
    <g id="g34" transform="translate(32.253 0.085)">
      <path id="path36" d="M-51.8-13.295h-.478v-3.242h-1.048v-.454h2.574v.454H-51.8Z" transform="translate(53.327 16.991)" stroke="#fff" stroke-miterlimit="10" stroke-width="0.16"/>
    </g>
    <g id="g38" transform="translate(36.398 0)">
      <path id="path40" d="M-43.371-13.822a1.849,1.849,0,0,1-1.37.56,1.851,1.851,0,0,1-1.374-.56,1.878,1.878,0,0,1-.551-1.373,1.877,1.877,0,0,1,.551-1.372,1.85,1.85,0,0,1,1.374-.561,1.838,1.838,0,0,1,1.367.563,1.872,1.872,0,0,1,.554,1.37A1.878,1.878,0,0,1-43.371-13.822Zm-2.388-.31a1.386,1.386,0,0,0,1.018.415,1.379,1.379,0,0,0,1.014-.415,1.442,1.442,0,0,0,.417-1.063,1.442,1.442,0,0,0-.417-1.063,1.379,1.379,0,0,0-1.014-.415,1.386,1.386,0,0,0-1.018.415,1.444,1.444,0,0,0-.417,1.063A1.444,1.444,0,0,0-45.759-14.131Z" transform="translate(46.666 17.127)" stroke="#fff" stroke-miterlimit="10" stroke-width="0.16"/>
    </g>
    <g id="g42" transform="translate(40.921 0.085)">
      <path id="path44" d="M-39.4-13.295v-3.7h.584l1.818,2.875h.021l-.021-.711v-2.164h.481v3.7h-.5l-1.9-3.016h-.021l.021.713v2.3Z" transform="translate(39.397 16.991)" stroke="#fff" stroke-miterlimit="10" stroke-width="0.16"/>
    </g>
    <path id="path46" d="M-57.116-4.138a2.6,2.6,0,0,0-2.661,2.622,2.607,2.607,0,0,0,2.661,2.622,2.608,2.608,0,0,0,2.665-2.622A2.6,2.6,0,0,0-57.116-4.138Zm0,4.211a1.524,1.524,0,0,1-1.5-1.589,1.517,1.517,0,0,1,1.5-1.59,1.519,1.519,0,0,1,1.5,1.59A1.526,1.526,0,0,1-57.116.073Zm-5.808-4.211a2.6,2.6,0,0,0-2.662,2.622,2.605,2.605,0,0,0,2.662,2.622,2.606,2.606,0,0,0,2.662-2.622A2.6,2.6,0,0,0-62.924-4.138Zm0,4.211a1.526,1.526,0,0,1-1.5-1.589,1.518,1.518,0,0,1,1.5-1.59,1.516,1.516,0,0,1,1.5,1.59A1.523,1.523,0,0,1-62.924.073Zm-6.911-3.408v1.114h2.693a2.3,2.3,0,0,1-.612,1.4,2.783,2.783,0,0,1-2.08.813,2.939,2.939,0,0,1-2.954-2.959,2.938,2.938,0,0,1,2.954-2.959,2.876,2.876,0,0,1,2.029.794l.795-.785A3.954,3.954,0,0,0-69.835-7.04a4.154,4.154,0,0,0-4.181,4.073,4.154,4.154,0,0,0,4.181,4.073A3.788,3.788,0,0,0-66.96-.038a3.646,3.646,0,0,0,.975-2.6,3.674,3.674,0,0,0-.061-.7Zm28.26.864a2.457,2.457,0,0,0-2.272-1.668,2.5,2.5,0,0,0-2.5,2.622,2.58,2.58,0,0,0,2.632,2.622A2.638,2.638,0,0,0-41.5-.056l-.9-.6a1.521,1.521,0,0,1-1.307.726A1.35,1.35,0,0,1-45-.722l3.548-1.451Zm-3.618.873a1.447,1.447,0,0,1,1.386-1.529,1.033,1.033,0,0,1,.987.556ZM-48.076.946h1.166V-6.76h-1.166Zm-1.91-4.5h-.039a1.849,1.849,0,0,0-1.394-.584,2.622,2.622,0,0,0-2.544,2.631A2.612,2.612,0,0,0-51.42,1.105a1.82,1.82,0,0,0,1.394-.6h.039V.886A1.351,1.351,0,0,1-51.4,2.427a1.47,1.47,0,0,1-1.337-.937l-1.015.419A2.531,2.531,0,0,0-51.4,3.459,2.409,2.409,0,0,0-48.881.73V-3.979h-1.106ZM-51.32.073A1.512,1.512,0,0,1-52.8-1.507a1.523,1.523,0,0,1,1.477-1.6,1.485,1.485,0,0,1,1.417,1.6A1.473,1.473,0,0,1-51.32.073ZM-36.114-6.76H-38.9V.946h1.164v-2.92h1.626a2.459,2.459,0,0,0,2.559-2.393A2.461,2.461,0,0,0-36.114-6.76Zm.03,3.714H-37.74V-5.688h1.656a1.345,1.345,0,0,1,1.365,1.321A1.353,1.353,0,0,1-36.083-3.046Zm7.191-1.108a2.186,2.186,0,0,0-2.073,1.18l1.032.427a1.106,1.106,0,0,1,1.063-.566,1.118,1.118,0,0,1,1.225.991v.081a2.585,2.585,0,0,0-1.216-.3c-1.111,0-2.244.6-2.244,1.734a1.792,1.792,0,0,0,1.935,1.7A1.651,1.651,0,0,0-27.686.338h.04v.6h1.123V-2.023A2.13,2.13,0,0,0-28.892-4.153ZM-29.032.07c-.381,0-.911-.187-.911-.653,0-.6.661-.826,1.234-.826a2.11,2.11,0,0,1,1.063.259A1.407,1.407,0,0,1-29.032.07Zm6.6-4.055L-23.766-.644h-.04l-1.383-3.341h-1.254L-24.366.684l-1.185,2.6h1.215l3.2-7.266ZM-32.915.946h1.167V-6.76h-1.167Z" transform="translate(93.395 13.317)"/>
    <g id="g48" transform="translate(0 0.371)">
      <path id="path64" d="M-104.87-16.486a1.219,1.219,0,0,0-.289.867V-1.986a1.22,1.22,0,0,0,.289.867l.045.042,7.73-7.637v-.18l-7.73-7.637Z" transform="translate(105.159 16.531)" fill="url(#linear-gradient)"/>
    </g>
    <g id="g66" transform="translate(8.064 5.461)">
      <path id="path78" d="M-89.626-3.077-92.2-5.624V-5.8l2.577-2.547.058.033L-86.514-6.6c.871.487.871,1.288,0,1.778L-89.565-3.11Z" transform="translate(92.2 8.351)" fill="url(#linear-gradient-2)"/>
    </g>
    <g id="g80" transform="translate(0.289 8.097)">
      <path id="path88" d="M-94.285-1.51l-2.635-2.6-7.775,7.686a1.025,1.025,0,0,0,1.3.036l9.112-5.117" transform="translate(104.695 4.114)" fill="url(#linear-gradient-3)"/>
    </g>
    <g id="g90" transform="translate(0.289 0.171)">
      <path id="path104" d="M-94.285-11.529l-9.112-5.117a1.029,1.029,0,0,0-1.3.039l7.775,7.682Z" transform="translate(104.695 16.852)" fill="url(#linear-gradient-4)"/>
    </g>
  </g>
</svg>
