<svg id="Group_79306" data-name="Group 79306" xmlns="http://www.w3.org/2000/svg" xmlns:xlink="http://www.w3.org/1999/xlink" width="113.75" height="36.035" viewBox="0 0 113.75 36.035">
  <defs>
    <linearGradient id="linear-gradient" x1="1.625" y1="-4.143" x2="0.33" y2="-3.468" gradientUnits="objectBoundingBox">
      <stop offset="0" stop-color="#00a0ff"/>
      <stop offset="0.007" stop-color="#00a1ff"/>
      <stop offset="0.26" stop-color="#00beff"/>
      <stop offset="0.512" stop-color="#00d2ff"/>
      <stop offset="0.76" stop-color="#00dfff"/>
      <stop offset="1" stop-color="#00e3ff"/>
    </linearGradient>
    <linearGradient id="linear-gradient-2" x1="1.977" y1="-11.775" x2="-0.399" y2="-11.775" gradientUnits="objectBoundingBox">
      <stop offset="0" stop-color="#ffe000"/>
      <stop offset="0.409" stop-color="#ffbd00"/>
      <stop offset="0.775" stop-color="orange"/>
      <stop offset="1" stop-color="#ff9c00"/>
    </linearGradient>
    <linearGradient id="linear-gradient-3" x1="0.913" y1="-8.638" x2="-0.447" y2="-6.852" gradientUnits="objectBoundingBox">
      <stop offset="0" stop-color="#ff3a44"/>
      <stop offset="1" stop-color="#c31162"/>
    </linearGradient>
    <linearGradient id="linear-gradient-4" x1="-0.134" y1="-8.068" x2="0.473" y2="-7.27" gradientUnits="objectBoundingBox">
      <stop offset="0" stop-color="#32a071"/>
      <stop offset="0.068" stop-color="#2da771"/>
      <stop offset="0.476" stop-color="#15cf74"/>
      <stop offset="0.801" stop-color="#06e775"/>
      <stop offset="1" stop-color="#00f076"/>
    </linearGradient>
  </defs>
  <g id="Group_79303" data-name="Group 79303" transform="translate(0)">
    <g id="Group_79246" data-name="Group 79246">
      <rect id="Rectangle_41266" data-name="Rectangle 41266" width="113.75" height="36.035" rx="9" fill="#fff"/>
    </g>
  </g>
  <g id="Group_79305" data-name="Group 79305" transform="translate(17.03 8.82)">
    <g id="g18" transform="translate(21.463 0)">
      <path id="path20" d="M-69.555-14.843a1.834,1.834,0,0,1-.508,1.354,2.013,2.013,0,0,1-1.51.6,2.088,2.088,0,0,1-1.509-.607,2.037,2.037,0,0,1-.622-1.512,2.022,2.022,0,0,1,.622-1.508,2.076,2.076,0,0,1,1.509-.611,2.169,2.169,0,0,1,.843.172,1.662,1.662,0,0,1,.641.452l-.357.357a1.4,1.4,0,0,0-1.127-.478,1.579,1.579,0,0,0-1.122.448,1.549,1.549,0,0,0-.471,1.169,1.557,1.557,0,0,0,.471,1.172,1.594,1.594,0,0,0,1.122.448,1.569,1.569,0,0,0,1.146-.452,1.263,1.263,0,0,0,.344-.822h-1.49v-.489h1.987A1.379,1.379,0,0,1-69.555-14.843Z" transform="translate(73.703 17.127)" fill="#532280" stroke="#fff" stroke-miterlimit="10" stroke-width="0.16"/>
    </g>
    <g id="g22" transform="translate(26.369 0.093)">
      <path id="path24" d="M-64.119-16.493h-1.866v1.284H-64.3v.489h-1.683v1.284h1.866v.5h-2.394v-4.053h2.394Z" transform="translate(66.513 16.991)" fill="#532280" stroke="#fff" stroke-miterlimit="10" stroke-width="0.16"/>
    </g>
    <g id="g26" transform="translate(29.315 0.093)">
      <path id="path28" d="M-60.523-12.938h-.528v-3.555H-62.2v-.5h2.819v.5h-1.146Z" transform="translate(62.196 16.991)" fill="#532280" stroke="#fff" stroke-miterlimit="10" stroke-width="0.16"/>
    </g>
    <g id="g30" transform="translate(34.174 0.093)">
      <path id="path32" d="M-55.075-12.938v-4.053h.527v4.053Z" transform="translate(55.075 16.991)" fill="#532280" stroke="#fff" stroke-miterlimit="10" stroke-width="0.16"/>
    </g>
    <g id="g34" transform="translate(35.366 0.093)">
      <path id="path36" d="M-51.654-12.938h-.524v-3.555h-1.149v-.5H-50.5v.5h-1.149Z" transform="translate(53.327 16.991)" fill="#532280" stroke="#fff" stroke-miterlimit="10" stroke-width="0.16"/>
    </g>
    <g id="g38" transform="translate(39.911 0)">
      <path id="path40" d="M-43.052-13.5a2.027,2.027,0,0,1-1.5.614,2.03,2.03,0,0,1-1.507-.614,2.059,2.059,0,0,1-.6-1.505,2.058,2.058,0,0,1,.6-1.5,2.028,2.028,0,0,1,1.507-.615,2.015,2.015,0,0,1,1.5.618,2.052,2.052,0,0,1,.608,1.5A2.059,2.059,0,0,1-43.052-13.5Zm-2.619-.34a1.52,1.52,0,0,0,1.116.455,1.512,1.512,0,0,0,1.112-.455,1.581,1.581,0,0,0,.457-1.165,1.581,1.581,0,0,0-.457-1.165,1.512,1.512,0,0,0-1.112-.455,1.52,1.52,0,0,0-1.116.455,1.584,1.584,0,0,0-.457,1.165A1.584,1.584,0,0,0-45.671-13.842Z" transform="translate(46.666 17.127)" fill="#532280" stroke="#fff" stroke-miterlimit="10" stroke-width="0.16"/>
    </g>
    <g id="g42" transform="translate(44.871 0.093)">
      <path id="path44" d="M-39.4-12.938v-4.053h.641l1.994,3.152h.023l-.023-.779v-2.373h.527v4.053h-.551l-2.087-3.307H-38.9l.023.782v2.525Z" transform="translate(39.397 16.991)" fill="#532280" stroke="#fff" stroke-miterlimit="10" stroke-width="0.16"/>
    </g>
    <path id="path46" d="M-55.485-3.858A2.851,2.851,0,0,0-58.4-.983a2.858,2.858,0,0,0,2.918,2.875A2.859,2.859,0,0,0-52.562-.983,2.852,2.852,0,0,0-55.485-3.858Zm0,4.618a1.671,1.671,0,0,1-1.64-1.743,1.663,1.663,0,0,1,1.64-1.743A1.666,1.666,0,0,1-53.841-.983,1.674,1.674,0,0,1-55.485.76Zm-6.368-4.618A2.85,2.85,0,0,0-64.772-.983a2.857,2.857,0,0,0,2.919,2.875A2.857,2.857,0,0,0-58.934-.983,2.85,2.85,0,0,0-61.853-3.858Zm0,4.618A1.673,1.673,0,0,1-63.5-.983a1.665,1.665,0,0,1,1.643-1.743,1.663,1.663,0,0,1,1.64,1.743A1.671,1.671,0,0,1-61.853.76Zm-7.579-3.737v1.222h2.952A2.524,2.524,0,0,1-67.15-.221a3.051,3.051,0,0,1-2.281.892A3.222,3.222,0,0,1-72.67-2.574a3.222,3.222,0,0,1,3.239-3.244,3.153,3.153,0,0,1,2.225.871l.871-.861a4.336,4.336,0,0,0-3.1-1.231,4.555,4.555,0,0,0-4.585,4.466,4.555,4.555,0,0,0,4.585,4.466A4.154,4.154,0,0,0-66.278.638a4,4,0,0,0,1.069-2.851,4.028,4.028,0,0,0-.067-.764Zm30.989.948a2.694,2.694,0,0,0-2.491-1.829A2.746,2.746,0,0,0-43.676-.983,2.829,2.829,0,0,0-40.79,1.892,2.892,2.892,0,0,0-38.366.618l-.991-.654a1.668,1.668,0,0,1-1.433.8A1.481,1.481,0,0,1-42.2-.112L-38.308-1.7Zm-3.967.957a1.586,1.586,0,0,1,1.52-1.676,1.132,1.132,0,0,1,1.082.61Zm-3.162,2.789h1.279v-8.45h-1.279Zm-2.095-4.935h-.043a2.028,2.028,0,0,0-1.529-.64A2.875,2.875,0,0,0-52.028-.973a2.864,2.864,0,0,0,2.789,2.865,2,2,0,0,0,1.529-.653h.043v.412a1.481,1.481,0,0,1-1.553,1.69,1.612,1.612,0,0,1-1.466-1.027l-1.113.459a2.775,2.775,0,0,0,2.579,1.7c1.5,0,2.765-.872,2.765-2.993V-3.684h-1.212ZM-49.129.76A1.658,1.658,0,0,1-50.749-.973a1.67,1.67,0,0,1,1.619-1.753A1.628,1.628,0,0,1-47.576-.973,1.616,1.616,0,0,1-49.129.76Zm16.675-7.493h-3.059v8.45h1.276v-3.2h1.783a2.7,2.7,0,0,0,2.806-2.624A2.7,2.7,0,0,0-32.455-6.733Zm.033,4.073h-1.816v-2.9h1.816a1.475,1.475,0,0,1,1.5,1.449A1.484,1.484,0,0,1-32.421-2.66Zm7.885-1.215A2.4,2.4,0,0,0-26.81-2.581l1.131.469a1.212,1.212,0,0,1,1.165-.621A1.226,1.226,0,0,1-23.17-1.646v.089A2.834,2.834,0,0,0-24.5-1.884c-1.219,0-2.461.663-2.461,1.9a1.965,1.965,0,0,0,2.121,1.861,1.811,1.811,0,0,0,1.629-.828h.044V1.7h1.232V-1.538A2.336,2.336,0,0,0-24.536-3.875ZM-24.69.756c-.418,0-1-.2-1-.716,0-.654.725-.905,1.353-.905a2.314,2.314,0,0,1,1.166.284A1.543,1.543,0,0,1-24.69.756Zm7.241-4.446L-18.915-.026h-.044L-20.475-3.69h-1.376l2.278,5.12-1.3,2.848h1.333L-16.03-3.69Zm-11.5,5.407h1.279v-8.45h-1.279Z" transform="translate(95.266 13.923)" fill="#532280"/>
    <g id="g48" transform="translate(0 0.407)">
      <path id="path64" d="M-104.842-16.482a1.336,1.336,0,0,0-.317.95V-.582a1.337,1.337,0,0,0,.317.95l.05.046,8.476-8.374v-.2l-8.476-8.374Z" transform="translate(105.159 16.531)" fill="url(#linear-gradient)"/>
    </g>
    <g id="g66" transform="translate(8.842 5.988)">
      <path id="path78" d="M-89.378-2.568-92.2-5.361v-.2l2.826-2.793.063.036,3.346,1.882c.955.534.955,1.412,0,1.95L-89.311-2.6Z" transform="translate(92.2 8.351)" fill="url(#linear-gradient-2)"/>
    </g>
    <g id="g80" transform="translate(0.317 8.879)">
      <path id="path88" d="M-93.28-1.258l-2.889-2.856-8.526,8.427a1.124,1.124,0,0,0,1.423.04l9.992-5.611" transform="translate(104.695 4.114)" fill="url(#linear-gradient-3)"/>
    </g>
    <g id="g90" transform="translate(0.317 0.187)">
      <path id="path104" d="M-93.28-11.015l-9.992-5.611a1.128,1.128,0,0,0-1.423.043l8.526,8.423Z" transform="translate(104.695 16.852)" fill="url(#linear-gradient-4)"/>
    </g>
  </g>
</svg>
