<svg id="social-twitter-circular-button" xmlns="http://www.w3.org/2000/svg" width="59.213" height="59.213" viewBox="0 0 59.213 59.213">
  <path id="Path_47" data-name="Path 47" d="M29.607,0A29.607,29.607,0,1,0,59.213,29.607,29.606,29.606,0,0,0,29.607,0Zm0,54.587a24.981,24.981,0,1,1,24.98-24.981A24.98,24.98,0,0,1,29.607,54.587Z" fill="#fff"/>
  <path id="Path_48" data-name="Path 48" d="M157.606,147.114a10.152,10.152,0,0,1-3.39,1.035,6.942,6.942,0,0,0,2.546-3.572,9.454,9.454,0,0,1-3.811,1.453.007.007,0,0,0,0,0A5.894,5.894,0,0,0,148.536,144a6.356,6.356,0,0,0-6.107,6.578,6.966,6.966,0,0,0,.157,1.466h0a17.179,17.179,0,0,1-12.938-6.823,6.888,6.888,0,0,0,1.852,8.69,3.722,3.722,0,0,1-2.667-.741,6.288,6.288,0,0,0,4.711,6.426A4.461,4.461,0,0,1,131,159.8c.2,1.937,2.71,4.467,5.459,4.467A9.578,9.578,0,0,1,128,167a17.372,17.372,0,0,0,9.554,2.909c9.854,0,17.507-8.6,17.095-19.209,0-.013,0-.025,0-.036,0-.029,0-.058,0-.083s0-.065,0-.1A11,11,0,0,0,157.606,147.114Z" transform="translate(-113.196 -127.346)" fill="#fff"/>
</svg>
