<svg id="social-facebook-circular-button" xmlns="http://www.w3.org/2000/svg" width="59.213" height="59.213" viewBox="0 0 59.213 59.213">
  <path id="Path_45" data-name="Path 45" d="M29.607,0A29.607,29.607,0,1,0,59.213,29.607,29.606,29.606,0,0,0,29.607,0Zm0,54.587a24.981,24.981,0,1,1,24.98-24.981A24.98,24.98,0,0,1,29.607,54.587Z" fill="#fff"/>
  <path id="Path_46" data-name="Path 46" d="M209.3,138.271h-5.15v-3.759c0-1.153,1.193-1.42,1.749-1.42h3.327V128.02l-3.813-.02c-5.2,0-6.39,3.782-6.39,6.207v4.064H195.25V143.5h3.775v14.109h5.127V143.5h4.355Z" transform="translate(-172.669 -113.197)" fill="#fff"/>
</svg>
